<svg viewBox="0 0 500 500" xmlns="http://www.w3.org/2000/svg">
<circle cx="250.0" cy="250.0"  r="119.04761904761904" fill="none" stroke="black" id="sphereceleste"  stroke-width="0.5" />
<circle cx="250.0" cy="250.0"  r="181.40512252579057" fill="none" stroke="black" id="capricorne"  stroke-width="0.5" />
<text font-family="Arial, Helvetica, sans-serif" font-size="7" >
<textPath xlink:href="#capricorne" startOffset="23%">Latitude 39</textPath>
 </text><circle cx="250.0" cy="250.0"  r="190.4753786520801" fill="none" stroke="black" id="cercleexterne"  stroke-width="0.5" />
<circle cx="250.0" cy="250.0"  r="184.12619936367742" fill="none" stroke="none" id="cercleinvisible"  stroke-width="0.5" />
<text font-family="Arial, Helvetica, sans-serif" font-size="7" >
<textPath xlink:href="#cercleinvisible" startOffset="58.6%">230</textPath>
 </text><text font-family="Arial, Helvetica, sans-serif" font-size="7" >
<textPath xlink:href="#cercleinvisible" startOffset="62.4%">220</textPath>
 </text><text font-family="Arial, Helvetica, sans-serif" font-size="7" >
<textPath xlink:href="#cercleinvisible" startOffset="65.5%">210</textPath>
 </text><text font-family="Arial, Helvetica, sans-serif" font-size="7" >
<textPath xlink:href="#cercleinvisible" startOffset="68.6%">200</textPath>
 </text><text font-family="Arial, Helvetica, sans-serif" font-size="7" >
<textPath xlink:href="#cercleinvisible" startOffset="71.55%">190</textPath>
 </text><text font-family="Arial, Helvetica, sans-serif" font-size="7" >
<textPath xlink:href="#cercleinvisible" startOffset="74.4%">Sud</textPath>
 </text><text font-family="Arial, Helvetica, sans-serif" font-size="7" >
<textPath xlink:href="#cercleinvisible" startOffset="77.4%">170</textPath>
 </text><text font-family="Arial, Helvetica, sans-serif" font-size="7" >
<textPath xlink:href="#cercleinvisible" startOffset="80.3%">160</textPath>
 </text><text font-family="Arial, Helvetica, sans-serif" font-size="7" >
<textPath xlink:href="#cercleinvisible" startOffset="83.4%">150</textPath>
 </text><text font-family="Arial, Helvetica, sans-serif" font-size="7" >
<textPath xlink:href="#cercleinvisible" startOffset="86.5%">140</textPath>
 </text><text font-family="Arial, Helvetica, sans-serif" font-size="7" >
<textPath xlink:href="#cercleinvisible" startOffset="90%">130</textPath>
 </text><circle cx="250.0" cy="250.0"  r="78.1253329761519" fill="none" stroke="black" id="cancer"  stroke-width="0.5" />
<circle cx="250.0" cy="250.0"  r="0.7142857142857142" fill="none" stroke="black" id="  "  stroke-width="0.5" />
<path d="
M80.1546658526106 186.2788814680821
A189.16853917449384 189.16853917449384 0 0 0 419.8453341473894 186.2788814680821"  id="horizon" fill="none"  stroke="black"   stroke-width="0.5" />
<path d="
M76.75313904736976 196.21019010391385
A196.73528074147362 196.73528074147362 0 0 0 423.24686095263024 196.21019010391385"  id="horizonlarge" fill="none"    stroke="none"   stroke-width="0.5" />
<path d="
M80.1546658526106 186.2788814680821
A189.16853917449384 189.16853917449384 0 0 0 419.8453341473894 186.2788814680821"  id="horizon" fill="none"  stroke="black"   stroke-width="0.5" />
<text font-family="Arial, Helvetica, sans-serif" font-size="7" >
<textPath xlink:href="#horizonlarge" startOffset="6.5%">250</textPath>
 </text><text font-family="Arial, Helvetica, sans-serif" font-size="7" >
<textPath xlink:href="#horizonlarge" startOffset="16.8%">Ouest</textPath>
 </text><text font-family="Arial, Helvetica, sans-serif" font-size="7" >
<textPath xlink:href="#horizonlarge" startOffset="30.4%">300</textPath>
 </text><text font-family="Arial, Helvetica, sans-serif" font-size="7" >
<textPath xlink:href="#horizonlarge" startOffset="40.15%">330</textPath>
 </text><text font-family="Arial, Helvetica, sans-serif" font-size="7" >
<textPath xlink:href="#horizonlarge" startOffset="48.2%">Nord</textPath>
 </text><text font-family="Arial, Helvetica, sans-serif" font-size="7" >
<textPath xlink:href="#horizonlarge" startOffset="57.65%">30</textPath>
 </text><text font-family="Arial, Helvetica, sans-serif" font-size="7" >
<textPath xlink:href="#horizonlarge" startOffset="67.4%">60</textPath>
 </text><text font-family="Arial, Helvetica, sans-serif" font-size="7" >
<textPath xlink:href="#horizonlarge" startOffset="79.25%">Est</textPath>
 </text><text font-family="Arial, Helvetica, sans-serif" font-size="7" >
<textPath xlink:href="#horizonlarge" startOffset="91%">110</textPath>
 </text><path d="
M90.22038113311731 164.1030159240105
A165.52485326636645 165.52485326636645 0 0 0 409.7796188668827 164.1030159240105"  id=" " fill="none"  stroke="black"   stroke-width="0.25" />
<path d="
M395.8236210379964 142.09592210688282
A146.00698306672197 146.00698306672197 0 1 1104.17637896200358 142.09592210688282"  id="10" fill="none" stroke="black"   stroke-width="0.5" />
<text font-family="Arial, Helvetica, sans-serif" font-size="7" >
<textPath xlink:href="#10" startOffset="8.6%">10</textPath>
 </text><text font-family="Arial, Helvetica, sans-serif" font-size="7" >
<textPath xlink:href="#10" startOffset="89.785%">10</textPath>
 </text><path d="
M123.04268246963322 120.4250872888941
A129.47423018899835 129.47423018899835 0 1 0 376.95731753036677 120.4250872888941"  id=" " fill="none" stroke="black"   stroke-width="0.25" />
<path d="
M350.915291164844 99.25543960821724
A115.16884674549466 115.16884674549466 0 1 1149.08470883515596 99.25543960821724"  id="20" fill="none" stroke="black"   stroke-width="0.5" />
<text font-family="Arial, Helvetica, sans-serif" font-size="7" >
<textPath xlink:href="#20" startOffset="20.5%">20</textPath>
 </text><text font-family="Arial, Helvetica, sans-serif" font-size="7" >
<textPath xlink:href="#20" startOffset="78.1%">20</textPath>
 </text><path d="
M190.16186181320103 78.74809286628474
A102.56661249666399 102.56661249666399 0 1 0 309.838138186799 78.74809286628474"  id=" " fill="none" stroke="black"   stroke-width="0.25" />
<circle cx="250.0" cy="168.07694512810556"  r="91.292305684349" fill="none" stroke="black" id="30"  stroke-width="0.5" />
<text font-family="Arial, Helvetica, sans-serif" font-size="7" >
<textPath xlink:href="#30" startOffset="96.3%">30</textPath>
 </text><text font-family="Arial, Helvetica, sans-serif" font-size="7" >
<textPath xlink:href="#30" startOffset="52%">30</textPath>
 </text><circle cx="250.0" cy="173.08785403996058"  r="81.06938042334271" fill="none" stroke="black" id="  "  stroke-width="0.25" />
<circle cx="250.0" cy="177.2723885783517"  r="71.68869858941511" fill="none" stroke="black" id="40"  stroke-width="0.5" />
<text font-family="Arial, Helvetica, sans-serif" font-size="7" >
<textPath xlink:href="#40" startOffset="94.8%">40</textPath>
 </text><text font-family="Arial, Helvetica, sans-serif" font-size="7" >
<textPath xlink:href="#40" startOffset="53.18%">40</textPath>
 </text><circle cx="250.0" cy="180.77260154093847"  r="62.98837711584234" fill="none" stroke="black" id="  "  stroke-width="0.25" />
<circle cx="250.0" cy="183.6966404065676"  r="54.84037766515396" fill="none" stroke="black" id="50"  stroke-width="0.5" />
<text font-family="Arial, Helvetica, sans-serif" font-size="7" >
<textPath xlink:href="#50" startOffset="93.45%">50</textPath>
 </text><text font-family="Arial, Helvetica, sans-serif" font-size="7" >
<textPath xlink:href="#50" startOffset="54.18%">50</textPath>
 </text><circle cx="250.0" cy="186.12762375952065"  r="47.14132449019465" fill="none" stroke="black" id="  "  stroke-width="0.25" />
<circle cx="250.0" cy="188.12977795267852"  r="39.80605003166263" fill="none" stroke="black" id="60"  stroke-width="0.5" />
<circle cx="250.0" cy="189.7527489504595"  r="32.76294258221156" fill="none" stroke="black" id="  "  stroke-width="0.25" />
<circle cx="250.0" cy="191.0346659549498"  r="25.950507371259928" fill="none" stroke="black" id="70"  stroke-width="0.5" />
<circle cx="250.0" cy="192.00432801009424"  r="19.314755771702636" fill="none" stroke="black" id="  "  stroke-width="0.25" />
<circle cx="250.0" cy="192.68275619610978"  r="12.807162912842042" fill="none" stroke="black" id="80"  stroke-width="0.5" />
<circle cx="250.0" cy="193.08427096005457"  r="6.383012824516313" fill="none" stroke="black" id="  "  stroke-width="0.25" />
<path d="
M69.2082443232396 264.90501787693216
A353.4805282117604 353.4805282117604 0 0 0 430.79175567676043 264.90501787693216"  id="moins18" fill="none"  stroke="black"   stroke-width="0.5" />
<path d="
M69.04332166203329 262.7475112663901
A351.7131255707016 351.7131255707016 0 0 0 430.9566783379667 262.7475112663901"  id="moins18p" fill="none"    stroke="none"   stroke-width="0.5" />
<text font-family="Arial, Helvetica, sans-serif" font-size="7" >
<textPath xlink:href="#moins18p" startOffset="2%">-18</textPath>
 </text><text font-family="Arial, Helvetica, sans-serif" font-size="7" >
<textPath xlink:href="#moins18p" startOffset="95%">-18</textPath>
 </text><path d="
M369.04761904761904 250.0
A153.1856626063294 153.1856626063294 0 0 0 130.952380952381 250.0"  id=" " fill="none"  stroke="black"   stroke-width="0.5" />
<path d="
M377.2109524559142 242.995968502608
A153.7708069514556 153.7708069514556 0 0 0 262.80706705540837 192.6332050674808"  id=" " fill="none"  stroke="black"   stroke-width="0.25" />
<path d="
M237.37758569163518 194.850261421954
A153.7708069514556 153.7708069514556 0 0 0 138.92856499061668 256.1154154909409"  id=" " fill="none"  stroke="black"   stroke-width="0.25" />
<path d="
M361.0714350093833 256.1154154909409
A153.7708069514556 153.7708069514556 0 0 0 262.6224143083648 194.850261421954"  id=" " fill="none"  stroke="black"   stroke-width="0.25" />
<path d="
M237.19293294459163 192.6332050674808
A153.7708069514556 153.7708069514556 0 0 0 122.78904754408579 242.995968502608"  id=" " fill="none"  stroke="black"   stroke-width="0.25" />
<path d="
M385.5286000850473 234.9609110750013
A155.54879836981792 155.54879836981792 0 0 0 262.7532500523891 191.50885885080567"  id=" " fill="none"  stroke="black"   stroke-width="0.5" />
<path d="
M237.61050182075164 195.92679021912437
A155.54879836981792 155.54879836981792 0 0 0 146.70115839205872 261.46267624557703"  id=" " fill="none"  stroke="black"   stroke-width="0.5" />
<path d="
M353.2988416079413 261.46267624557703
A155.54879836981792 155.54879836981792 0 0 0 262.3894981792484 195.92679021912437"  id=" " fill="none"  stroke="black"   stroke-width="0.5" />
<path d="
M237.2467499476109 191.50885885080567
A155.54879836981792 155.54879836981792 0 0 0 114.47139991495271 234.9609110750013"  id=" " fill="none"  stroke="black"   stroke-width="0.5" />
<path d="
M393.94411421280313 225.72729554967296
A158.58946767666836 158.58946767666836 0 0 0 262.5994473826941 190.3855083803978"  id=" " fill="none"  stroke="black"   stroke-width="0.25" />
<path d="
M237.9324583045564 196.97202878068657
A158.58946767666836 158.58946767666836 0 0 0 154.26498744484115 266.14340175010113"  id=" " fill="none"  stroke="black"   stroke-width="0.25" />
<path d="
M345.73501255515885 266.14340175010113
A158.58946767666836 158.58946767666836 0 0 0 262.0675416954436 196.97202878068657"  id=" " fill="none"  stroke="black"   stroke-width="0.25" />
<path d="
M237.40055261730586 190.3855083803978
A158.58946767666836 158.58946767666836 0 0 0 106.0558857871969 225.72729554967296"  id=" " fill="none"  stroke="black"   stroke-width="0.25" />
<path d="
M402.36734418276376 215.09966708175676
A163.01677720765025 163.01677720765025 0 0 0 262.3447219563103 189.27229263561517"  id=" " fill="none"  stroke="black"   stroke-width="0.5" />
<path d="
M238.33932028863217 197.9791672965594
A163.01677720765025 163.01677720765025 0 0 0 161.62252578011 270.2432042724843"  id=" " fill="none"  stroke="black"   stroke-width="0.5" />
<path d="
M338.37747421989 270.2432042724843
A163.01677720765025 163.01677720765025 0 0 0 261.66067971136783 197.9791672965594"  id=" " fill="none"  stroke="black"   stroke-width="0.5" />
<path d="
M237.6552780436897 189.27229263561517
A163.01677720765025 163.01677720765025 0 0 0 97.63265581723621 215.09966708175676"  id=" " fill="none"  stroke="black"   stroke-width="0.5" />
<path d="
M410.66048251061227 202.8530699934463
A169.02167762146212 169.02167762146212 0 0 0 261.9890138934451 188.17865054250228"  id=" " fill="none"  stroke="black"   stroke-width="0.25" />
<path d="
M238.82654507684953 198.94193561168834
A169.02167762146212 169.02167762146212 0 0 0 168.78135036145903 273.8341745891505"  id=" " fill="none"  stroke="black"   stroke-width="0.25" />
<path d="
M331.21864963854097 273.8341745891505
A169.02167762146212 169.02167762146212 0 0 0 261.1734549231505 198.94193561168834"  id=" " fill="none"  stroke="black"   stroke-width="0.25" />
<path d="
M238.01098610655492 188.17865054250228
A169.02167762146212 169.02167762146212 0 0 0 89.33951748938773 202.8530699934463"  id=" " fill="none"  stroke="black"   stroke-width="0.25" />
<path d="
M418.6190814369421 188.73423007879
A176.8835670835109 176.8835670835109 0 0 0 261.5332106370943 187.11423087278718"  id=" " fill="none"  stroke="black"   stroke-width="0.5" />
<path d="
M239.38924943673857 199.8546035425275
A176.8835670835109 176.8835670835109 0 0 0 175.75236319145287 276.9770099275931"  id=" " fill="none"  stroke="black"   stroke-width="0.5" />
<path d="
M324.2476368085471 276.9770099275931
A176.8835670835109 176.8835670835109 0 0 0 260.61075056326143 199.8546035425275"  id=" " fill="none"  stroke="black"   stroke-width="0.5" />
<path d="
M238.46678936290564 187.11423087278718
A176.8835670835109 176.8835670835109 0 0 0 81.38091856305792 188.73423007879"  id=" " fill="none"  stroke="black"   stroke-width="0.5" />
<path d="
M411.53205856738316 167.4456994846385
A187.0051642723929 187.0051642723929 0 0 0 260.9792072934647 186.08878705126165"  id=" " fill="none"  stroke="black"   stroke-width="0.25" />
<path d="
M240.0222705945047 200.71197395295212
A187.0051642723929 187.0051642723929 0 0 0 182.54855653582845 279.7228078443928"  id=" " fill="none"  stroke="black"   stroke-width="0.25" />
<path d="
M317.4514434641716 279.7228078443928
A187.0051642723929 187.0051642723929 0 0 0 259.9777294054953 200.71197395295212"  id=" " fill="none"  stroke="black"   stroke-width="0.25" />
<path d="
M239.02079270653527 186.08878705126165
A187.0051642723929 187.0051642723929 0 0 0 88.46794143261687 167.4456994846385"  id=" " fill="none"  stroke="black"   stroke-width="0.25" />
<path d="
M399.71070144982536 147.55721426084543
A199.96968058749744 199.96968058749744 0 0 0 260.3299539568029 185.11205787122566"  id=" " fill="none"  stroke="black"   stroke-width="0.5" />
<path d="
M240.72022049625267 201.50937016965042
A199.96968058749744 199.96968058749744 0 0 0 189.18416347098542 282.1145631649832"  id=" " fill="none"  stroke="black"   stroke-width="0.5" />
<path d="
M310.8158365290146 282.1145631649832
A199.96968058749744 199.96968058749744 0 0 0 259.2797795037473 201.50937016965042"  id=" " fill="none"  stroke="black"   stroke-width="0.5" />
<path d="
M239.6700460431971 185.11205787122566
A199.96968058749744 199.96968058749744 0 0 0 100.2892985501746 147.55721426084543"  id=" " fill="none"  stroke="black"   stroke-width="0.5" />
<path d="
M386.4094043359732 130.41616795192556
A216.63724161898008 216.63724161898008 0 0 0 259.5894868224411 184.19363584366414"  id=" " fill="none"  stroke="black"   stroke-width="0.25" />
<path d="
M241.47753318256443 202.24261922974094
A216.63724161898008 216.63724161898008 0 0 0 195.67408143071515 284.18840831816397"  id=" " fill="none"  stroke="black"   stroke-width="0.25" />
<path d="
M304.32591856928485 284.18840831816397
A216.63724161898008 216.63724161898008 0 0 0 258.5224668174356 202.24261922974094"  id=" " fill="none"  stroke="black"   stroke-width="0.25" />
<path d="
M240.41051317755895 184.19363584366414
A216.63724161898008 216.63724161898008 0 0 0 113.59059566402681 130.41616795192556"  id=" " fill="none"  stroke="black"   stroke-width="0.25" />
<path d="
M372.13997914453864 115.87452153610508
A238.3145852500667 238.3145852500667 0 0 0 258.7629401122286 183.3428256575262"  id=" " fill="none"  stroke="black"   stroke-width="0.5" />
<path d="
M242.2885053504893 202.90803233647097
A238.3145852500667 238.3145852500667 0 0 0 202.03348908483716 285.97463553174777"  id=" " fill="none"  stroke="black"   stroke-width="0.5" />
<path d="
M297.96651091516287 285.97463553174777
A238.3145852500667 238.3145852500667 0 0 0 257.7114946495107 202.90803233647097"  id=" " fill="none"  stroke="black"   stroke-width="0.5" />
<path d="
M241.2370598877714 183.3428256575262
A238.3145852500667 238.3145852500667 0 0 0 127.86002085546134 115.87452153610508"  id=" " fill="none"  stroke="black"   stroke-width="0.5" />
<path d="
M357.28012736278345 103.71673796492621
A267.0710526060996 267.0710526060996 0 0 0 257.85653624572444 182.56849596138755"  id=" " fill="none"  stroke="black"   stroke-width="0.25" />
<path d="
M243.14733036156184 203.50238376375245
A267.0710526060996 267.0710526060996 0 0 0 208.27760005073907 287.49853524676394"  id=" " fill="none"  stroke="black"   stroke-width="0.25" />
<path d="
M291.72239994926093 287.49853524676394
A267.0710526060996 267.0710526060996 0 0 0 256.85266963843816 203.50238376375245"  id=" " fill="none"  stroke="black"   stroke-width="0.25" />
<path d="
M242.1434637542756 182.56849596138755
A267.0710526060996 267.0710526060996 0 0 0 142.71987263721655 103.71673796492621"  id=" " fill="none"  stroke="black"   stroke-width="0.25" />
<path d="
M342.0929327219151 93.70953253229447
A306.37132521265875 306.37132521265875 0 0 0 256.8775522917845 181.87892833975042"  id=" " fill="none"  stroke="black"   stroke-width="0.5" />
<path d="
M244.04812610007068 204.02288930623766
A306.37132521265875 306.37132521265875 0 0 0 214.42151335038585 288.78108026644514"  id=" " fill="none"  stroke="black"   stroke-width="0.5" />
<path d="
M285.57848664961415 288.78108026644514
A306.37132521265875 306.37132521265875 0 0 0 255.95187389992932 204.02288930623766"  id=" " fill="none"  stroke="black"   stroke-width="0.5" />
<path d="
M243.12244770821545 181.87892833975042
A306.37132521265875 306.37132521265875 0 0 0 157.90706727808495 93.70953253229447"  id=" " fill="none"  stroke="black"   stroke-width="0.5" />
<path d="
M326.75118346207034 85.63128547144768
A362.4681573753611 362.4681573753611 0 0 0 255.83426151685103 181.28166789590597"  id=" " fill="none"  stroke="black"   stroke-width="0.25" />
<path d="
M244.98495719691 204.46718522594523
A362.4681573753611 362.4681573753611 0 0 0 220.48013214560132 289.839480345173"  id=" " fill="none"  stroke="black"   stroke-width="0.25" />
<path d="
M279.5198678543987 289.839480345173
A362.4681573753611 362.4681573753611 0 0 0 255.01504280309 204.46718522594523"  id=" " fill="none"  stroke="black"   stroke-width="0.25" />
<path d="
M244.16573848314897 181.28166789590597
A362.4681573753611 362.4681573753611 0 0 0 173.24881653792968 85.63128547144768"  id=" " fill="none"  stroke="black"   stroke-width="0.25" />
<path d="
M311.3601761700279 79.28753045257585
A447.88491437028387 447.88491437028387 0 0 0 254.73584977995313 180.78338021508478"  id=" " fill="none"  stroke="black"   stroke-width="0.5" />
<path d="
M245.95185221616424 204.83330850439208
A447.88491437028387 447.88491437028387 0 0 0 226.46813051116902 290.6876274888284"  id=" " fill="none"  stroke="black"   stroke-width="0.5" />
<path d="
M273.531869488831 290.6876274888284
A447.88491437028387 447.88491437028387 0 0 0 254.04814778383576 204.83330850439208"  id=" " fill="none"  stroke="black"   stroke-width="0.5" />
<path d="
M245.26415022004687 180.78338021508478
A447.88491437028387 447.88491437028387 0 0 0 188.63982382997207 79.28753045257585"  id=" " fill="none"  stroke="black"   stroke-width="0.5" />
<path d="
M295.97668287529837 74.51791228053702
A591.8639509146285 591.8639509146285 0 0 0 253.5923075653411 180.38971962119894"  id=" " fill="none"  stroke="black"   stroke-width="0.25" />
<path d="
M246.94281645945065 205.11967907419736
A591.8639509146285 591.8639509146285 0 0 0 232.39995382543876 291.3364483041585"  id=" " fill="none"  stroke="black"   stroke-width="0.25" />
<path d="
M267.60004617456127 291.3364483041585
A591.8639509146285 591.8639509146285 0 0 0 253.05718354054935 205.11967907419736"  id=" " fill="none"  stroke="black"   stroke-width="0.25" />
<path d="
M246.4076924346589 180.38971962119894
A591.8639509146285 591.8639509146285 0 0 0 204.0233171247016 74.51791228053702"  id=" " fill="none"  stroke="black"   stroke-width="0.25" />
<path d="
M280.6238231886056 71.19843420173822
A882.1610722581287 882.1610722581287 0 0 0 252.41429953261803 180.10521352502718"  id=" " fill="none"  stroke="black"   stroke-width="0.5" />
<path d="
M247.9518410820355 205.32508457828948
A882.1610722581287 882.1610722581287 0 0 0 238.2898424647575 291.79417630656576"  id=" " fill="none"  stroke="black"   stroke-width="0.5" />
<path d="
M261.7101575352425 291.79417630656576
A882.1610722581287 882.1610722581287 0 0 0 252.0481589179645 205.32508457828948"  id=" " fill="none"  stroke="black"   stroke-width="0.5" />
<path d="
M247.58570046738197 180.10521352502718
A882.1610722581287 882.1610722581287 0 0 0 219.37617681139437 71.19843420173822"  id=" " fill="none"  stroke="black"   stroke-width="0.5" />
<path d="
M265.30245854119505 69.24145043403362
A1757.6083660929557 1757.6083660929557 0 0 0 251.2130145315142 179.93316727636662"  id=" " fill="none"  stroke="black"   stroke-width="0.25" />
<path d="
M248.97290923967893 205.44866808857427
A1757.6083660929557 1757.6083660929557 0 0 0 244.15187136537614 292.0665541217315"  id=" " fill="none"  stroke="black"   stroke-width="0.25" />
<path d="
M255.84812863462386 292.0665541217315
A1757.6083660929557 1757.6083660929557 0 0 0 251.02709076032107 205.44866808857427"  id=" " fill="none"  stroke="black"   stroke-width="0.25" />
<path d="
M248.7869854684858 179.93316727636662
A1757.6083660929557 1757.6083660929557 0 0 0 234.69754145880498 69.24145043403362"  id=" " fill="none"  stroke="black"   stroke-width="0.25" />
<line x1="250.0" y1="68.59487747420943"   x2="250.0" y2="328.12533297615187"   id=" " stroke="black"  stroke-width="0.5" /><circle cx="250.0" cy="250.0"  r="209.01024986667176" fill="none" stroke="red" id="  "  stroke-width="0.5" />
<circle cx="250.0" cy="250.0"  r="211.93639336480516" fill="none" stroke="none" id="basechiffre"  stroke-width="0.5" />
<circle cx="250.0" cy="250.0"  r="220.8410187270494" fill="none" stroke="red" id="  "  stroke-width="0.5" />
<text font-family="Arial, Helvetica, sans-serif" font-size="7" >
<textPath xlink:href="#basechiffre" startOffset="-0.27%">06</textPath>
 </text><text font-family="Arial, Helvetica, sans-serif" font-size="7" >
<textPath xlink:href="#basechiffre" startOffset="99.65%">0</textPath>
 </text><text font-family="Arial, Helvetica, sans-serif" font-size="7" >
<textPath xlink:href="#basechiffre" startOffset="3.896666666666667%">05</textPath>
 </text><text font-family="Arial, Helvetica, sans-serif" font-size="7" >
<textPath xlink:href="#basechiffre" startOffset="8.063333333333334%">04</textPath>
 </text><text font-family="Arial, Helvetica, sans-serif" font-size="7" >
<textPath xlink:href="#basechiffre" startOffset="12.23%">03</textPath>
 </text><text font-family="Arial, Helvetica, sans-serif" font-size="7" >
<textPath xlink:href="#basechiffre" startOffset="16.39666666666667%">02</textPath>
 </text><text font-family="Arial, Helvetica, sans-serif" font-size="7" >
<textPath xlink:href="#basechiffre" startOffset="20.563333333333333%">01</textPath>
 </text><text font-family="Arial, Helvetica, sans-serif" font-size="7" >
<textPath xlink:href="#basechiffre" startOffset="24.73%">24</textPath>
 </text><text font-family="Arial, Helvetica, sans-serif" font-size="7" >
<textPath xlink:href="#basechiffre" startOffset="28.89666666666667%">23</textPath>
 </text><text font-family="Arial, Helvetica, sans-serif" font-size="7" >
<textPath xlink:href="#basechiffre" startOffset="33.06333333333333%">22</textPath>
 </text><text font-family="Arial, Helvetica, sans-serif" font-size="7" >
<textPath xlink:href="#basechiffre" startOffset="37.23%">21</textPath>
 </text><text font-family="Arial, Helvetica, sans-serif" font-size="7" >
<textPath xlink:href="#basechiffre" startOffset="41.39666666666666%">20</textPath>
 </text><text font-family="Arial, Helvetica, sans-serif" font-size="7" >
<textPath xlink:href="#basechiffre" startOffset="45.56333333333333%">19</textPath>
 </text><text font-family="Arial, Helvetica, sans-serif" font-size="7" >
<textPath xlink:href="#basechiffre" startOffset="49.73%">18</textPath>
 </text><text font-family="Arial, Helvetica, sans-serif" font-size="7" >
<textPath xlink:href="#basechiffre" startOffset="53.89666666666666%">17</textPath>
 </text><text font-family="Arial, Helvetica, sans-serif" font-size="7" >
<textPath xlink:href="#basechiffre" startOffset="58.06333333333333%">16</textPath>
 </text><text font-family="Arial, Helvetica, sans-serif" font-size="7" >
<textPath xlink:href="#basechiffre" startOffset="62.23%">15</textPath>
 </text><text font-family="Arial, Helvetica, sans-serif" font-size="7" >
<textPath xlink:href="#basechiffre" startOffset="66.39666666666668%">14</textPath>
 </text><text font-family="Arial, Helvetica, sans-serif" font-size="7" >
<textPath xlink:href="#basechiffre" startOffset="70.56333333333333%">13</textPath>
 </text><text font-family="Arial, Helvetica, sans-serif" font-size="7" >
<textPath xlink:href="#basechiffre" startOffset="74.73%">12</textPath>
 </text><text font-family="Arial, Helvetica, sans-serif" font-size="7" >
<textPath xlink:href="#basechiffre" startOffset="78.89666666666668%">11</textPath>
 </text><text font-family="Arial, Helvetica, sans-serif" font-size="7" >
<textPath xlink:href="#basechiffre" startOffset="83.06333333333333%">10</textPath>
 </text><text font-family="Arial, Helvetica, sans-serif" font-size="7" >
<textPath xlink:href="#basechiffre" startOffset="87.23%">09</textPath>
 </text><text font-family="Arial, Helvetica, sans-serif" font-size="7" >
<textPath xlink:href="#basechiffre" startOffset="91.39666666666668%">08</textPath>
 </text><text font-family="Arial, Helvetica, sans-serif" font-size="7" >
<textPath xlink:href="#basechiffre" startOffset="95.56333333333333%">07</textPath>
 </text><line x1="459.01024986667176" y1="250.0"   x2="470.8410187270494" y2="250.0"   id=" " stroke="black"  stroke-width="0.5" /><line x1="458.56274287778854" y1="263.66992438245444"   x2="462.73399773534436" y2="263.9433228701035"   id=" " stroke="black"  stroke-width="0.5" /><line x1="457.2221382047678" y1="277.2813120500582"   x2="461.3665809688632" y2="277.8269382910594"   id=" " stroke="black"  stroke-width="0.5" /><line x1="454.99417652263287" y1="290.7758769511604"   x2="459.0940600530856" y2="291.59139449018363"   id=" " stroke="black"  stroke-width="0.5" /><line x1="451.88839830534954" y1="304.09583328713126"   x2="463.3160434924448" y2="307.1578615864028"   id=" " stroke="black"  stroke-width="0.5" /><line x1="447.9181029720519" y1="317.18414296002317"   x2="451.8764650314929" y2="318.5278258192236"   id=" " stroke="black"  stroke-width="0.5" /><line x1="443.10029193688797" y1="329.984759818463"   x2="446.9622977756257" y2="331.58445501483226"   id=" " stroke="black"  stroke-width="0.5" /><line x1="437.4555958063541" y1="342.44286965587645"   x2="441.2047077224812" y2="344.29172704899395"   id=" " stroke="black"  stroke-width="0.5" /><line x1="431.00818603587084" y1="354.5051249333359"   x2="441.2539324152597" y2="360.4205093635247"   id=" " stroke="black"  stroke-width="0.5" /><line x1="423.78567142389966" y1="366.1198732219121"   x2="427.26138485237766" y2="368.44227068635035"   id=" " stroke="black"  stroke-width="0.5" /><line x1="415.8189798868297" y1="377.23737838630484"   x2="419.1353594845663" y2="379.782125954031"   id=" " stroke="black"  stroke-width="0.5" /><line x1="407.1422260208914" y1="387.81003356260976"   x2="410.2850705413093" y2="390.56623423386196"   id=" " stroke="black"  stroke-width="0.5" /><line x1="397.7925650182183" y1="397.7925650182183"   x2="406.15818190604193" y2="406.15818190604193"   id=" " stroke="black"  stroke-width="0.5" /><line x1="387.81003356260976" y1="407.1422260208914"   x2="390.56623423386196" y2="410.2850705413093"   id=" " stroke="black"  stroke-width="0.5" /><line x1="377.23737838630484" y1="415.8189798868297"   x2="379.782125954031" y2="419.1353594845663"   id=" " stroke="black"  stroke-width="0.5" /><line x1="366.11987322191214" y1="423.78567142389966"   x2="368.4422706863504" y2="427.26138485237766"   id=" " stroke="black"  stroke-width="0.5" /><line x1="354.5051249333359" y1="431.00818603587084"   x2="360.42050936352473" y2="441.25393241525967"   id=" " stroke="black"  stroke-width="0.5" /><line x1="342.44286965587645" y1="437.4555958063541"   x2="344.29172704899395" y2="441.2047077224812"   id=" " stroke="black"  stroke-width="0.5" /><line x1="329.984759818463" y1="443.10029193688797"   x2="331.58445501483226" y2="446.9622977756257"   id=" " stroke="black"  stroke-width="0.5" /><line x1="317.1841429600232" y1="447.9181029720519"   x2="318.52782581922366" y2="451.8764650314929"   id=" " stroke="black"  stroke-width="0.5" /><line x1="304.09583328713126" y1="451.88839830534954"   x2="307.1578615864028" y2="463.3160434924448"   id=" " stroke="black"  stroke-width="0.5" /><line x1="290.77587695116046" y1="454.99417652263287"   x2="291.59139449018363" y2="459.0940600530856"   id=" " stroke="black"  stroke-width="0.5" /><line x1="277.28131205005826" y1="457.2221382047678"   x2="277.8269382910594" y2="461.3665809688632"   id=" " stroke="black"  stroke-width="0.5" /><line x1="263.6699243824545" y1="458.56274287778854"   x2="263.94332287010354" y2="462.73399773534436"   id=" " stroke="black"  stroke-width="0.5" /><line x1="250.0" y1="459.01024986667176"   x2="250.0" y2="470.8410187270494"   id=" " stroke="black"  stroke-width="0.5" /><line x1="236.33007561754556" y1="458.56274287778854"   x2="236.05667712989646" y2="462.73399773534436"   id=" " stroke="black"  stroke-width="0.5" /><line x1="222.7186879499418" y1="457.2221382047678"   x2="222.17306170894062" y2="461.3665809688632"   id=" " stroke="black"  stroke-width="0.5" /><line x1="209.2241230488396" y1="454.99417652263287"   x2="208.40860550981637" y2="459.0940600530856"   id=" " stroke="black"  stroke-width="0.5" /><line x1="195.90416671286877" y1="451.88839830534954"   x2="192.84213841359718" y2="463.3160434924448"   id=" " stroke="black"  stroke-width="0.5" /><line x1="182.81585703997683" y1="447.9181029720519"   x2="181.47217418077636" y2="451.8764650314929"   id=" " stroke="black"  stroke-width="0.5" /><line x1="170.01524018153708" y1="443.10029193688797"   x2="168.4155449851678" y2="446.96229777562576"   id=" " stroke="black"  stroke-width="0.5" /><line x1="157.5571303441236" y1="437.4555958063541"   x2="155.70827295100605" y2="441.2047077224812"   id=" " stroke="black"  stroke-width="0.5" /><line x1="145.49487506666418" y1="431.00818603587084"   x2="139.57949063647536" y2="441.2539324152597"   id=" " stroke="black"  stroke-width="0.5" /><line x1="133.88012677808786" y1="423.78567142389966"   x2="131.55772931364962" y2="427.26138485237766"   id=" " stroke="black"  stroke-width="0.5" /><line x1="122.76262161369513" y1="415.8189798868297"   x2="120.21787404596901" y2="419.1353594845663"   id=" " stroke="black"  stroke-width="0.5" /><line x1="112.18996643739024" y1="407.1422260208914"   x2="109.43376576613804" y2="410.2850705413093"   id=" " stroke="black"  stroke-width="0.5" /><line x1="102.20743498178172" y1="397.7925650182183"   x2="93.84181809395804" y2="406.15818190604193"   id=" " stroke="black"  stroke-width="0.5" /><line x1="92.85777397910857" y1="387.81003356260976"   x2="89.71492945869073" y2="390.56623423386196"   id=" " stroke="black"  stroke-width="0.5" /><line x1="84.18102011317029" y1="377.2373783863049"   x2="80.8646405154337" y2="379.782125954031"   id=" " stroke="black"  stroke-width="0.5" /><line x1="76.21432857610037" y1="366.11987322191214"   x2="72.73861514762237" y2="368.4422706863504"   id=" " stroke="black"  stroke-width="0.5" /><line x1="68.99181396412916" y1="354.5051249333359"   x2="58.746067584740274" y2="360.4205093635247"   id=" " stroke="black"  stroke-width="0.5" /><line x1="62.54440419364593" y1="342.4428696558765"   x2="58.795292277518826" y2="344.29172704899406"   id=" " stroke="black"  stroke-width="0.5" /><line x1="56.89970806311206" y1="329.98475981846303"   x2="53.0377022243743" y2="331.5844550148323"   id=" " stroke="black"  stroke-width="0.5" /><line x1="52.081897027948145" y1="317.1841429600232"   x2="48.1235349685071" y2="318.52782581922366"   id=" " stroke="black"  stroke-width="0.5" /><line x1="48.11160169465049" y1="304.0958332871313"   x2="36.68395650755522" y2="307.1578615864029"   id=" " stroke="black"  stroke-width="0.5" /><line x1="45.0058234773671" y1="290.7758769511604"   x2="40.9059399469144" y2="291.59139449018363"   id=" " stroke="black"  stroke-width="0.5" /><line x1="42.777861795232155" y1="277.2813120500583"   x2="38.63341903113678" y2="277.8269382910595"   id=" " stroke="black"  stroke-width="0.5" /><line x1="41.43725712221146" y1="263.66992438245444"   x2="37.26600226465567" y2="263.94332287010354"   id=" " stroke="black"  stroke-width="0.5" /><line x1="40.98975013332824" y1="250.00000000000003"   x2="29.158981272950598" y2="250.00000000000003"   id=" " stroke="black"  stroke-width="0.5" /><line x1="41.43725712221146" y1="236.33007561754562"   x2="37.26600226465567" y2="236.0566771298965"   id=" " stroke="black"  stroke-width="0.5" /><line x1="42.777861795232155" y1="222.71868794994174"   x2="38.63341903113678" y2="222.1730617089406"   id=" " stroke="black"  stroke-width="0.5" /><line x1="45.00582347736707" y1="209.22412304883966"   x2="40.90593994691437" y2="208.40860550981643"   id=" " stroke="black"  stroke-width="0.5" /><line x1="48.11160169465046" y1="195.90416671286874"   x2="36.683956507555195" y2="192.84213841359718"   id=" " stroke="black"  stroke-width="0.5" /><line x1="52.081897027948145" y1="182.81585703997683"   x2="48.12353496850707" y2="181.4721741807764"   id=" " stroke="black"  stroke-width="0.5" /><line x1="56.89970806311206" y1="170.01524018153702"   x2="53.03770222437427" y2="168.41554498516774"   id=" " stroke="black"  stroke-width="0.5" /><line x1="62.54440419364593" y1="157.55713034412355"   x2="58.795292277518826" y2="155.708272951006"   id=" " stroke="black"  stroke-width="0.5" /><line x1="68.99181396412914" y1="145.49487506666418"   x2="58.746067584740246" y2="139.57949063647538"   id=" " stroke="black"  stroke-width="0.5" /><line x1="76.21432857610029" y1="133.88012677808794"   x2="72.73861514762228" y2="131.5577293136497"   id=" " stroke="black"  stroke-width="0.5" /><line x1="84.18102011317029" y1="122.76262161369513"   x2="80.86464051543368" y2="120.21787404596901"   id=" " stroke="black"  stroke-width="0.5" /><line x1="92.85777397910857" y1="112.18996643739024"   x2="89.7149294586907" y2="109.43376576613804"   id=" " stroke="black"  stroke-width="0.5" /><line x1="102.20743498178163" y1="102.2074349817818"   x2="93.84181809395795" y2="93.84181809395812"   id=" " stroke="black"  stroke-width="0.5" /><line x1="112.18996643739021" y1="92.85777397910857"   x2="109.43376576613801" y2="89.71492945869073"   id=" " stroke="black"  stroke-width="0.5" /><line x1="122.76262161369509" y1="84.18102011317032"   x2="120.21787404596898" y2="80.86464051543373"   id=" " stroke="black"  stroke-width="0.5" /><line x1="133.8801267780879" y1="76.21432857610034"   x2="131.55772931364965" y2="72.73861514762231"   id=" " stroke="black"  stroke-width="0.5" /><line x1="145.49487506666404" y1="68.99181396412922"   x2="139.5794906364752" y2="58.7460675847403"   id=" " stroke="black"  stroke-width="0.5" /><line x1="157.55713034412355" y1="62.54440419364593"   x2="155.708272951006" y2="58.795292277518826"   id=" " stroke="black"  stroke-width="0.5" /><line x1="170.01524018153708" y1="56.89970806311206"   x2="168.4155449851678" y2="53.03770222437427"   id=" " stroke="black"  stroke-width="0.5" /><line x1="182.81585703997678" y1="52.081897027948145"   x2="181.47217418077634" y2="48.1235349685071"   id=" " stroke="black"  stroke-width="0.5" /><line x1="195.90416671286877" y1="48.11160169465046"   x2="192.84213841359718" y2="36.683956507555195"   id=" " stroke="black"  stroke-width="0.5" /><line x1="209.2241230488395" y1="45.00582347736713"   x2="208.40860550981628" y2="40.90593994691443"   id=" " stroke="black"  stroke-width="0.5" /><line x1="222.7186879499418" y1="42.777861795232155"   x2="222.17306170894062" y2="38.63341903113678"   id=" " stroke="black"  stroke-width="0.5" /><line x1="236.33007561754565" y1="41.43725712221146"   x2="236.05667712989657" y2="37.26600226465567"   id=" " stroke="black"  stroke-width="0.5" /><line x1="249.99999999999997" y1="40.98975013332824"   x2="249.99999999999997" y2="29.158981272950598"   id=" " stroke="black"  stroke-width="0.5" /><line x1="263.66992438245427" y1="41.437257122211435"   x2="263.9433228701034" y2="37.26600226465564"   id=" " stroke="black"  stroke-width="0.5" /><line x1="277.28131205005815" y1="42.77786179523213"   x2="277.8269382910593" y2="38.633419031136754"   id=" " stroke="black"  stroke-width="0.5" /><line x1="290.77587695116046" y1="45.0058234773671"   x2="291.59139449018363" y2="40.9059399469144"   id=" " stroke="black"  stroke-width="0.5" /><line x1="304.09583328713114" y1="48.11160169465043"   x2="307.15786158640276" y2="36.683956507555195"   id=" " stroke="black"  stroke-width="0.5" /><line x1="317.18414296002317" y1="52.081897027948145"   x2="318.5278258192236" y2="48.12353496850707"   id=" " stroke="black"  stroke-width="0.5" /><line x1="329.98475981846286" y1="56.89970806311203"   x2="331.58445501483214" y2="53.03770222437424"   id=" " stroke="black"  stroke-width="0.5" /><line x1="342.4428696558764" y1="62.5444041936459"   x2="344.29172704899395" y2="58.7952922775188"   id=" " stroke="black"  stroke-width="0.5" /><line x1="354.5051249333359" y1="68.9918139641292"   x2="360.42050936352473" y2="58.7460675847403"   id=" " stroke="black"  stroke-width="0.5" /><line x1="366.11987322191203" y1="76.21432857610029"   x2="368.4422706863503" y2="72.73861514762228"   id=" " stroke="black"  stroke-width="0.5" /><line x1="377.2373783863047" y1="84.18102011317015"   x2="379.7821259540308" y2="80.86464051543354"   id=" " stroke="black"  stroke-width="0.5" /><line x1="387.81003356260976" y1="92.85777397910857"   x2="390.566234233862" y2="89.71492945869076"   id=" " stroke="black"  stroke-width="0.5" /><line x1="397.7925650182183" y1="102.20743498178169"   x2="406.15818190604193" y2="93.84181809395801"   id=" " stroke="black"  stroke-width="0.5" /><line x1="407.1422260208915" y1="112.18996643739027"   x2="410.2850705413093" y2="109.43376576613807"   id=" " stroke="black"  stroke-width="0.5" /><line x1="415.81897988682965" y1="122.76262161369506"   x2="419.13535948456627" y2="120.21787404596895"   id=" " stroke="black"  stroke-width="0.5" /><line x1="423.78567142389954" y1="133.88012677808774"   x2="427.26138485237755" y2="131.55772931364947"   id=" " stroke="black"  stroke-width="0.5" /><line x1="431.0081860358707" y1="145.49487506666404"   x2="441.25393241525967" y2="139.5794906364752"   id=" " stroke="black"  stroke-width="0.5" /><line x1="437.45559580635404" y1="157.55713034412355"   x2="441.2047077224812" y2="155.708272951006"   id=" " stroke="black"  stroke-width="0.5" /><line x1="443.10029193688797" y1="170.01524018153705"   x2="446.96229777562576" y2="168.4155449851678"   id=" " stroke="black"  stroke-width="0.5" /><line x1="447.9181029720519" y1="182.81585703997678"   x2="451.8764650314929" y2="181.4721741807763"   id=" " stroke="black"  stroke-width="0.5" /><line x1="451.8883983053495" y1="195.90416671286857"   x2="463.31604349244475" y2="192.84213841359698"   id=" " stroke="black"  stroke-width="0.5" /><line x1="454.99417652263287" y1="209.2241230488395"   x2="459.09406005308557" y2="208.40860550981625"   id=" " stroke="black"  stroke-width="0.5" /><line x1="457.2221382047678" y1="222.71868794994177"   x2="461.3665809688632" y2="222.1730617089406"   id=" " stroke="black"  stroke-width="0.5" /><line x1="458.56274287778854" y1="236.33007561754562"   x2="462.73399773534436" y2="236.05667712989654"   id=" " stroke="black"  stroke-width="0.5" /><circle cx="250.0" cy="250.0"  r="4.416820374540988" fill="none" stroke="red" id="  "  stroke-width="0.5" />
</svg>
