<svg viewBox="0 0 500 500" xmlns="http://www.w3.org/2000/svg">
<circle cx="250.0" cy="250.0"  r="0.7142857142857142" fill="none" stroke="black" id="  "  stroke-width="0.5" />
<path d="
M250.0 226.1904761904762
A23.80952380952381 23.80952380952381 0 0 0 226.1904761904762 250.0"  id=" " fill="none"  stroke="red"   stroke-width="0.5" />
<path d="
M250.0 273.8095238095238
A23.80952380952381 23.80952380952381 0 0 0 273.8095238095238 250.0"  id=" " fill="none"  stroke="red"   stroke-width="0.5" />
<line x1="250.0" y1="226.1904761904762"   x2="444.26805799152254" y2="226.1904761904762"   id=" " stroke="red"  stroke-width="0.5" /><line x1="273.8095238095238" y1="250.0"   x2="469.2584388135069" y2="250.0"   id=" " stroke="red"  stroke-width="0.5" /><line x1="444.26805799152254" y1="226.1904761904762"   x2="469.2584388135069" y2="250.0"   id=" " stroke="red"  stroke-width="0.5" /><line x1="226.1904761904762" y1="250.0"   x2="30.7415611864931" y2="250.0"   id=" " stroke="red"  stroke-width="0.5" /><line x1="250.0" y1="273.8095238095238"   x2="55.73194200847746" y2="273.8095238095238"   id=" " stroke="red"  stroke-width="0.5" /><line x1="55.73194200847746" y1="273.8095238095238"   x2="30.7415611864931" y2="250.0"   id=" " stroke="red"  stroke-width="0.5" /><line x1="262.9594712101435" y1="250.0"   x2="262.9594712101435" y2="246.42857142857142"   id=" " stroke="black"  stroke-width="0.5" /><line x1="237.04052878985652" y1="250.0"   x2="237.04052878985652" y2="253.57142857142858"   id=" " stroke="black"  stroke-width="0.5" /><line x1="268.13924987888527" y1="250.0"   x2="268.13924987888527" y2="246.42857142857142"   id=" " stroke="black"  stroke-width="0.5" /><line x1="231.86075012111473" y1="250.0"   x2="231.86075012111473" y2="253.57142857142858"   id=" " stroke="black"  stroke-width="0.5" /><line x1="273.31902854762706" y1="250.0"   x2="273.31902854762706" y2="242.85714285714286"   id=" " stroke="black"  stroke-width="0.5" /><line x1="226.68097145237294" y1="250.0"   x2="226.68097145237294" y2="257.14285714285717"   id=" " stroke="black"  stroke-width="0.5" /><line x1="278.49880721636885" y1="250.0"   x2="278.49880721636885" y2="246.42857142857142"   id=" " stroke="black"  stroke-width="0.5" /><line x1="221.50119278363118" y1="250.0"   x2="221.50119278363118" y2="253.57142857142858"   id=" " stroke="black"  stroke-width="0.5" /><line x1="283.6785858851106" y1="250.0"   x2="283.6785858851106" y2="246.42857142857142"   id=" " stroke="black"  stroke-width="0.5" /><line x1="216.3214141148894" y1="250.0"   x2="216.3214141148894" y2="253.57142857142858"   id=" " stroke="black"  stroke-width="0.5" /><line x1="288.8583645538524" y1="250.0"   x2="288.8583645538524" y2="246.42857142857142"   id=" " stroke="black"  stroke-width="0.5" /><line x1="211.1416354461476" y1="250.0"   x2="211.1416354461476" y2="253.57142857142858"   id=" " stroke="black"  stroke-width="0.5" /><line x1="294.03814322259416" y1="250.0"   x2="294.03814322259416" y2="246.42857142857142"   id=" " stroke="black"  stroke-width="0.5" /><line x1="205.9618567774058" y1="250.0"   x2="205.9618567774058" y2="253.57142857142858"   id=" " stroke="black"  stroke-width="0.5" /><line x1="299.21792189133595" y1="250.0"   x2="299.21792189133595" y2="242.85714285714286"   id=" " stroke="black"  stroke-width="0.5" /><line x1="200.78207810866402" y1="250.0"   x2="200.78207810866402" y2="257.14285714285717"   id=" " stroke="black"  stroke-width="0.5" /><line x1="304.39770056007774" y1="250.0"   x2="304.39770056007774" y2="246.42857142857142"   id=" " stroke="black"  stroke-width="0.5" /><line x1="195.60229943992226" y1="250.0"   x2="195.60229943992226" y2="253.57142857142858"   id=" " stroke="black"  stroke-width="0.5" /><line x1="309.5774792288195" y1="250.0"   x2="309.5774792288195" y2="246.42857142857142"   id=" " stroke="black"  stroke-width="0.5" /><line x1="190.42252077118047" y1="250.0"   x2="190.42252077118047" y2="253.57142857142858"   id=" " stroke="black"  stroke-width="0.5" /><line x1="314.7572578975613" y1="250.0"   x2="314.7572578975613" y2="246.42857142857142"   id=" " stroke="black"  stroke-width="0.5" /><line x1="185.24274210243868" y1="250.0"   x2="185.24274210243868" y2="253.57142857142858"   id=" " stroke="black"  stroke-width="0.5" /><line x1="319.9370365663031" y1="250.0"   x2="319.9370365663031" y2="246.42857142857142"   id=" " stroke="black"  stroke-width="0.5" /><line x1="180.0629634336969" y1="250.0"   x2="180.0629634336969" y2="253.57142857142858"   id=" " stroke="black"  stroke-width="0.5" /><line x1="325.1168152350449" y1="250.0"   x2="325.1168152350449" y2="242.85714285714286"   id=" " stroke="black"  stroke-width="0.5" /><line x1="174.8831847649551" y1="250.0"   x2="174.8831847649551" y2="257.14285714285717"   id=" " stroke="black"  stroke-width="0.5" /><line x1="330.2965939037867" y1="250.0"   x2="330.2965939037867" y2="246.42857142857142"   id=" " stroke="black"  stroke-width="0.5" /><line x1="169.7034060962133" y1="250.0"   x2="169.7034060962133" y2="253.57142857142858"   id=" " stroke="black"  stroke-width="0.5" /><line x1="335.4763725725285" y1="250.0"   x2="335.4763725725285" y2="246.42857142857142"   id=" " stroke="black"  stroke-width="0.5" /><line x1="164.52362742747152" y1="250.0"   x2="164.52362742747152" y2="253.57142857142858"   id=" " stroke="black"  stroke-width="0.5" /><line x1="340.6561512412702" y1="250.0"   x2="340.6561512412702" y2="246.42857142857142"   id=" " stroke="black"  stroke-width="0.5" /><line x1="159.34384875872976" y1="250.0"   x2="159.34384875872976" y2="253.57142857142858"   id=" " stroke="black"  stroke-width="0.5" /><line x1="345.83592991001206" y1="250.0"   x2="345.83592991001206" y2="246.42857142857142"   id=" " stroke="black"  stroke-width="0.5" /><line x1="154.16407008998797" y1="250.0"   x2="154.16407008998797" y2="253.57142857142858"   id=" " stroke="black"  stroke-width="0.5" /><line x1="351.0157085787538" y1="250.0"   x2="351.0157085787538" y2="242.85714285714286"   id=" " stroke="black"  stroke-width="0.5" /><line x1="148.98429142124618" y1="250.0"   x2="148.98429142124618" y2="257.14285714285717"   id=" " stroke="black"  stroke-width="0.5" /><line x1="356.1954872474956" y1="250.0"   x2="356.1954872474956" y2="246.42857142857142"   id=" " stroke="black"  stroke-width="0.5" /><line x1="143.80451275250442" y1="250.0"   x2="143.80451275250442" y2="253.57142857142858"   id=" " stroke="black"  stroke-width="0.5" /><line x1="361.37526591623737" y1="250.0"   x2="361.37526591623737" y2="246.42857142857142"   id=" " stroke="black"  stroke-width="0.5" /><line x1="138.62473408376263" y1="250.0"   x2="138.62473408376263" y2="253.57142857142858"   id=" " stroke="black"  stroke-width="0.5" /><line x1="366.55504458497916" y1="250.0"   x2="366.55504458497916" y2="246.42857142857142"   id=" " stroke="black"  stroke-width="0.5" /><line x1="133.44495541502084" y1="250.0"   x2="133.44495541502084" y2="253.57142857142858"   id=" " stroke="black"  stroke-width="0.5" /><line x1="371.73482325372095" y1="250.0"   x2="371.73482325372095" y2="246.42857142857142"   id=" " stroke="black"  stroke-width="0.5" /><line x1="128.26517674627905" y1="250.0"   x2="128.26517674627905" y2="253.57142857142858"   id=" " stroke="black"  stroke-width="0.5" /><line x1="376.91460192246274" y1="250.0"   x2="376.91460192246274" y2="242.85714285714286"   id=" " stroke="black"  stroke-width="0.5" /><line x1="123.08539807753726" y1="250.0"   x2="123.08539807753726" y2="257.14285714285717"   id=" " stroke="black"  stroke-width="0.5" /><line x1="382.0943805912045" y1="250.0"   x2="382.0943805912045" y2="246.42857142857142"   id=" " stroke="black"  stroke-width="0.5" /><line x1="117.90561940879547" y1="250.0"   x2="117.90561940879547" y2="253.57142857142858"   id=" " stroke="black"  stroke-width="0.5" /><line x1="387.2741592599463" y1="250.0"   x2="387.2741592599463" y2="246.42857142857142"   id=" " stroke="black"  stroke-width="0.5" /><line x1="112.72584074005368" y1="250.0"   x2="112.72584074005368" y2="253.57142857142858"   id=" " stroke="black"  stroke-width="0.5" /><line x1="392.4539379286881" y1="250.0"   x2="392.4539379286881" y2="246.42857142857142"   id=" " stroke="black"  stroke-width="0.5" /><line x1="107.5460620713119" y1="250.0"   x2="107.5460620713119" y2="253.57142857142858"   id=" " stroke="black"  stroke-width="0.5" /><line x1="397.63371659742984" y1="250.0"   x2="397.63371659742984" y2="246.42857142857142"   id=" " stroke="black"  stroke-width="0.5" /><line x1="102.36628340257013" y1="250.0"   x2="102.36628340257013" y2="253.57142857142858"   id=" " stroke="black"  stroke-width="0.5" /><line x1="402.8134952661717" y1="250.0"   x2="402.8134952661717" y2="242.85714285714286"   id=" " stroke="black"  stroke-width="0.5" /><line x1="97.18650473382834" y1="250.0"   x2="97.18650473382834" y2="257.14285714285717"   id=" " stroke="black"  stroke-width="0.5" /><line x1="407.9932739349134" y1="250.0"   x2="407.9932739349134" y2="246.42857142857142"   id=" " stroke="black"  stroke-width="0.5" /><line x1="92.00672606508655" y1="250.0"   x2="92.00672606508655" y2="253.57142857142858"   id=" " stroke="black"  stroke-width="0.5" /><line x1="413.17305260365526" y1="250.0"   x2="413.17305260365526" y2="246.42857142857142"   id=" " stroke="black"  stroke-width="0.5" /><line x1="86.82694739634476" y1="250.0"   x2="86.82694739634476" y2="253.57142857142858"   id=" " stroke="black"  stroke-width="0.5" /><line x1="418.352831272397" y1="250.0"   x2="418.352831272397" y2="246.42857142857142"   id=" " stroke="black"  stroke-width="0.5" /><line x1="81.64716872760297" y1="250.0"   x2="81.64716872760297" y2="253.57142857142858"   id=" " stroke="black"  stroke-width="0.5" /><line x1="423.5326099411388" y1="250.0"   x2="423.5326099411388" y2="246.42857142857142"   id=" " stroke="black"  stroke-width="0.5" /><line x1="76.46739005886121" y1="250.0"   x2="76.46739005886121" y2="253.57142857142858"   id=" " stroke="black"  stroke-width="0.5" /><line x1="428.7123886098806" y1="250.0"   x2="428.7123886098806" y2="242.85714285714286"   id=" " stroke="black"  stroke-width="0.5" /><line x1="71.28761139011942" y1="250.0"   x2="71.28761139011942" y2="257.14285714285717"   id=" " stroke="black"  stroke-width="0.5" /><line x1="262.9594712101435" y1="241.66666666666666"   x2="431.4051225257906" y2="241.66666666666666"   id="droite" stroke="none"  stroke-width="0.5" /><line x1="237.04052878985652" y1="258.3333333333333"   x2="68.59487747420943" y2="258.3333333333333"   id="gauche" stroke="none"  stroke-width="0.5" /><line x1="262.9594712101435" y1="250.0"   x2="273.8095238095238" y2="250.0"   id=" " stroke="black"  stroke-width="0.5" /><line x1="237.04052878985652" y1="250.0"   x2="226.1904761904762" y2="250.0"   id=" " stroke="black"  stroke-width="0.5" /><text font-family="Arial, Helvetica, sans-serif" font-size="7" >
<textPath xlink:href="#droite" startOffset="3%">-15</textPath>
 </text><text font-family="Arial, Helvetica, sans-serif" font-size="7" >
<textPath xlink:href="#gauche" startOffset="3%">-15</textPath>
 </text><text font-family="Arial, Helvetica, sans-serif" font-size="7" >
<textPath xlink:href="#droite" startOffset="18%">-10</textPath>
 </text><text font-family="Arial, Helvetica, sans-serif" font-size="7" >
<textPath xlink:href="#gauche" startOffset="18%">-10</textPath>
 </text><text font-family="Arial, Helvetica, sans-serif" font-size="7" >
<textPath xlink:href="#droite" startOffset="34.5%">-5</textPath>
 </text><text font-family="Arial, Helvetica, sans-serif" font-size="7" >
<textPath xlink:href="#gauche" startOffset="34.5%">-5</textPath>
 </text><text font-family="Arial, Helvetica, sans-serif" font-size="7" >
<textPath xlink:href="#droite" startOffset="51%">0</textPath>
 </text><text font-family="Arial, Helvetica, sans-serif" font-size="7" >
<textPath xlink:href="#gauche" startOffset="51%">0</textPath>
 </text><text font-family="Arial, Helvetica, sans-serif" font-size="7" >
<textPath xlink:href="#droite" startOffset="66.74%">5</textPath>
 </text><text font-family="Arial, Helvetica, sans-serif" font-size="7" >
<textPath xlink:href="#gauche" startOffset="66.74%">5</textPath>
 </text><text font-family="Arial, Helvetica, sans-serif" font-size="7" >
<textPath xlink:href="#droite" startOffset="81%">10</textPath>
 </text><text font-family="Arial, Helvetica, sans-serif" font-size="7" >
<textPath xlink:href="#gauche" startOffset="81%">10</textPath>
 </text><text font-family="Arial, Helvetica, sans-serif" font-size="7" >
<textPath xlink:href="#droite" startOffset="96.26%">15</textPath>
 </text><text font-family="Arial, Helvetica, sans-serif" font-size="7" >
<textPath xlink:href="#gauche" startOffset="96.26%">15</textPath>
 </text><circle cx="250.0" cy="250.0"  r="4.416820374540988" fill="none" stroke="red" id="  "  stroke-width="0.5" />
</svg>
