<svg viewBox="0 0 500 500" xmlns="http://www.w3.org/2000/svg">
<circle cx="250.0" cy="250.0"  r="119.04761904761904" fill="none" stroke="black" id="sphereceleste"  stroke-width="0.5" />
<circle cx="250.0" cy="250.0"  r="181.40512252579057" fill="none" stroke="black" id="capricorne"  stroke-width="0.5" />
<text font-family="Arial, Helvetica, sans-serif" font-size="7" >
<textPath xlink:href="#capricorne" startOffset="23%">Latitude 50.73</textPath>
 </text><circle cx="250.0" cy="250.0"  r="190.4753786520801" fill="none" stroke="black" id="cercleexterne"  stroke-width="0.5" />
<circle cx="250.0" cy="250.0"  r="184.12619936367742" fill="none" stroke="none" id="cercleinvisible"  stroke-width="0.5" />
<text font-family="Arial, Helvetica, sans-serif" font-size="7" >
<textPath xlink:href="#cercleinvisible" startOffset="58.6%">230</textPath>
 </text><text font-family="Arial, Helvetica, sans-serif" font-size="7" >
<textPath xlink:href="#cercleinvisible" startOffset="62%">220</textPath>
 </text><text font-family="Arial, Helvetica, sans-serif" font-size="7" >
<textPath xlink:href="#cercleinvisible" startOffset="65.5%">210</textPath>
 </text><text font-family="Arial, Helvetica, sans-serif" font-size="7" >
<textPath xlink:href="#cercleinvisible" startOffset="68.6%">200</textPath>
 </text><text font-family="Arial, Helvetica, sans-serif" font-size="7" >
<textPath xlink:href="#cercleinvisible" startOffset="71.55%">190</textPath>
 </text><text font-family="Arial, Helvetica, sans-serif" font-size="7" >
<textPath xlink:href="#cercleinvisible" startOffset="74.4%">Sud</textPath>
 </text><text font-family="Arial, Helvetica, sans-serif" font-size="7" >
<textPath xlink:href="#cercleinvisible" startOffset="77.4%">170</textPath>
 </text><text font-family="Arial, Helvetica, sans-serif" font-size="7" >
<textPath xlink:href="#cercleinvisible" startOffset="80.35%">160</textPath>
 </text><text font-family="Arial, Helvetica, sans-serif" font-size="7" >
<textPath xlink:href="#cercleinvisible" startOffset="83.4%">150</textPath>
 </text><text font-family="Arial, Helvetica, sans-serif" font-size="7" >
<textPath xlink:href="#cercleinvisible" startOffset="86.7%">140</textPath>
 </text><text font-family="Arial, Helvetica, sans-serif" font-size="7" >
<textPath xlink:href="#cercleinvisible" startOffset="90.2%">130</textPath>
 </text><circle cx="250.0" cy="250.0"  r="78.1253329761519" fill="none" stroke="black" id="cancer"  stroke-width="0.5" />
<circle cx="250.0" cy="250.0"  r="0.7142857142857142" fill="none" stroke="black" id="  "  stroke-width="0.5" />
<path d="
M96.23679496611479 153.74671301038876
A153.76693191032717 153.76693191032717 0 0 0 403.76320503388524 153.74671301038876"  id="horizon" fill="none"  stroke="black"   stroke-width="0.5" />
<path d="
M90.45996713261152 163.65883721381965
A159.91760918674026 159.91760918674026 0 0 0 409.5400328673885 163.65883721381965"  id="horizonlarge" fill="none"    stroke="none"   stroke-width="0.5" />
<path d="
M96.23679496611479 153.74671301038876
A153.76693191032717 153.76693191032717 0 0 0 403.76320503388524 153.74671301038876"  id="horizon" fill="none"  stroke="black"   stroke-width="0.5" />
<text font-family="Arial, Helvetica, sans-serif" font-size="7" >
<textPath xlink:href="#horizonlarge" startOffset="9%">250</textPath>
 </text><text font-family="Arial, Helvetica, sans-serif" font-size="7" >
<textPath xlink:href="#horizonlarge" startOffset="18.1%">Ouest</textPath>
 </text><text font-family="Arial, Helvetica, sans-serif" font-size="7" >
<textPath xlink:href="#horizonlarge" startOffset="30.8%">300</textPath>
 </text><text font-family="Arial, Helvetica, sans-serif" font-size="7" >
<textPath xlink:href="#horizonlarge" startOffset="40.15%">330</textPath>
 </text><text font-family="Arial, Helvetica, sans-serif" font-size="7" >
<textPath xlink:href="#horizonlarge" startOffset="48.2%">Nord</textPath>
 </text><text font-family="Arial, Helvetica, sans-serif" font-size="7" >
<textPath xlink:href="#horizonlarge" startOffset="57.5%">30</textPath>
 </text><text font-family="Arial, Helvetica, sans-serif" font-size="7" >
<textPath xlink:href="#horizonlarge" startOffset="67%">60</textPath>
 </text><text font-family="Arial, Helvetica, sans-serif" font-size="7" >
<textPath xlink:href="#horizonlarge" startOffset="78.2%">Est</textPath>
 </text><text font-family="Arial, Helvetica, sans-serif" font-size="7" >
<textPath xlink:href="#horizonlarge" startOffset="88.3%">110</textPath>
 </text><path d="
M117.10899554705819 126.51801988109646
A137.6823448268982 137.6823448268982 0 1 0 382.89100445294184 126.51801988109646"  id=" " fill="none" stroke="black"   stroke-width="0.25" />
<path d="
M351.27453324781317 99.49655354765235
A123.68858974983266 123.68858974983266 0 1 1148.72546675218683 99.49655354765235"  id="10" fill="none" stroke="black"   stroke-width="0.5" />
<text font-family="Arial, Helvetica, sans-serif" font-size="7" >
<textPath xlink:href="#10" startOffset="12.485%">10</textPath>
 </text><text font-family="Arial, Helvetica, sans-serif" font-size="7" >
<textPath xlink:href="#10" startOffset="86.2%">10</textPath>
 </text><path d="
M210.76806057684348 72.88796368486169
A111.3147506248299 111.3147506248299 0 1 0 289.2319394231565 72.88796368486169"  id=" " fill="none" stroke="black"   stroke-width="0.25" />
<circle cx="250.0" cy="182.49684895813573"  r="100.2197893943803" fill="none" stroke="black" id="20"  stroke-width="0.5" />
<text font-family="Arial, Helvetica, sans-serif" font-size="7" >
<textPath xlink:href="#20" startOffset="97.13%">20</textPath>
 </text><text font-family="Arial, Helvetica, sans-serif" font-size="7" >
<textPath xlink:href="#20" startOffset="51.7%">20</textPath>
 </text><circle cx="250.0" cy="187.04272686987832"  r="90.14989886052754" fill="none" stroke="black" id="  "  stroke-width="0.25" />
<circle cx="250.0" cy="190.8660763381662"  r="80.91163016544222" fill="none" stroke="black" id="30"  stroke-width="0.5" />
<text font-family="Arial, Helvetica, sans-serif" font-size="7" >
<textPath xlink:href="#30" startOffset="95.561%">30</textPath>
 </text><text font-family="Arial, Helvetica, sans-serif" font-size="7" >
<textPath xlink:href="#30" startOffset="52.9%">30</textPath>
 </text><circle cx="250.0" cy="194.09423554416432"  r="72.3543644348196" fill="none" stroke="black" id="  "  stroke-width="0.25" />
<circle cx="250.0" cy="196.82487422149848"  r="64.3585299510416" fill="none" stroke="black" id="40"  stroke-width="0.5" />
<text font-family="Arial, Helvetica, sans-serif" font-size="7" >
<textPath xlink:href="#40" startOffset="94.1%">40</textPath>
 </text><text font-family="Arial, Helvetica, sans-serif" font-size="7" >
<textPath xlink:href="#40" startOffset="54.1%">40</textPath>
 </text><circle cx="250.0" cy="199.13375523993216"  r="56.82746747064022" fill="none" stroke="black" id="  "  stroke-width="0.25" />
<circle cx="250.0" cy="201.08014861734006"  r="49.68167722247814" fill="none" stroke="black" id="50"  stroke-width="0.5" />
<text font-family="Arial, Helvetica, sans-serif" font-size="7" >
<textPath xlink:href="#50" startOffset="92.59%">50</textPath>
 </text><text font-family="Arial, Helvetica, sans-serif" font-size="7" >
<textPath xlink:href="#50" startOffset="54.8%">50</textPath>
 </text><circle cx="250.0" cy="202.71067502931646"  r="42.85465856249663" fill="none" stroke="black" id="  "  stroke-width="0.25" />
<circle cx="250.0" cy="204.0620737137222"  r="36.28983671024569" fill="none" stroke="black" id="60"  stroke-width="0.5" />
<circle cx="250.0" cy="205.16321715449777"  r="29.938244156451834" fill="none" stroke="black" id="  "  stroke-width="0.25" />
<circle cx="250.0" cy="206.03658656186582"  r="23.756732779830486" fill="none" stroke="black" id="70"  stroke-width="0.5" />
<circle cx="250.0" cy="206.69935232828811"  r="17.70656206863214" fill="none" stroke="black" id="  "  stroke-width="0.25" />
<circle cx="250.0" cy="207.164157469249"  r="11.752253928125297" fill="none" stroke="black" id="80"  stroke-width="0.5" />
<circle cx="250.0" cy="207.43967068028246"  r="5.860634148122137" fill="none" stroke="black" id="  "  stroke-width="0.25" />
<path d="
M68.59510611410442 250.28801535386268
A243.38597400054186 243.38597400054186 0 0 0 431.4048938858956 250.28801535386268"  id="moins18" fill="none"  stroke="black"   stroke-width="0.5" />
<path d="
M68.60138042504272 248.46400035904205
A242.16904413053916 242.16904413053916 0 0 0 431.39861957495725 248.46400035904205"  id="moins18p" fill="none"    stroke="none"   stroke-width="0.5" />
<text font-family="Arial, Helvetica, sans-serif" font-size="7" >
<textPath xlink:href="#moins18p" startOffset="2%">-18</textPath>
 </text><text font-family="Arial, Helvetica, sans-serif" font-size="7" >
<textPath xlink:href="#moins18p" startOffset="95%">-18</textPath>
 </text><path d="
M369.04761904761904 250.0
A188.08940695575677 188.08940695575677 0 0 0 130.95238095238096 250.0"  id=" " fill="none"  stroke="black"   stroke-width="0.5" />
<path d="
M375.518664902731 241.49806347187592
A188.8078779339523 188.8078779339523 0 0 0 261.7486011491585 206.8711669760006"  id=" " fill="none"  stroke="black"   stroke-width="0.25" />
<path d="
M238.37841789952915 208.91181357762895
A188.8078779339523 188.8078779339523 0 0 0 137.60547654166555 257.6129801515338"  id=" " fill="none"  stroke="black"   stroke-width="0.25" />
<path d="
M362.39452345833445 257.6129801515338
A188.8078779339523 188.8078779339523 0 0 0 261.62158210047085 208.91181357762895"  id=" " fill="none"  stroke="black"   stroke-width="0.25" />
<path d="
M238.25139885084153 206.8711669760006
A188.8078779339523 188.8078779339523 0 0 0 124.481335097269 241.49806347187592"  id=" " fill="none"  stroke="black"   stroke-width="0.25" />
<path d="
M381.7155173555689 232.0190150310568
A190.99098923668316 190.99098923668316 0 0 0 261.6776396425097 205.84196052067344"  id=" " fill="none"  stroke="black"   stroke-width="0.5" />
<path d="
M238.57256099435608 209.90807987402354
A190.99098923668316 190.99098923668316 0 0 0 144.3704430054766 264.4198915566447"  id=" " fill="none"  stroke="black"   stroke-width="0.5" />
<path d="
M355.6295569945234 264.4198915566447
A190.99098923668316 190.99098923668316 0 0 0 261.4274390056439 209.90807987402354"  id=" " fill="none"  stroke="black"   stroke-width="0.5" />
<path d="
M238.32236035749034 205.84196052067344
A190.99098923668316 190.99098923668316 0 0 0 118.28448264443108 232.0190150310568"  id=" " fill="none"  stroke="black"   stroke-width="0.5" />
<path d="
M387.51874869290714 221.4719472185998
A194.72448280875358 194.72448280875358 0 0 0 261.5155741718494 204.81745257008149"  id=" " fill="none"  stroke="black"   stroke-width="0.25" />
<path d="
M238.8502470962009 210.8787883493454
A194.72448280875358 194.72448280875358 0 0 0 151.19459771871072 270.4970286463454"  id=" " fill="none"  stroke="black"   stroke-width="0.25" />
<path d="
M348.8054022812893 270.4970286463454
A194.72448280875358 194.72448280875358 0 0 0 261.1497529037991 210.8787883493454"  id=" " fill="none"  stroke="black"   stroke-width="0.25" />
<path d="
M238.4844258281506 204.81745257008149
A194.72448280875358 194.72448280875358 0 0 0 112.48125130709289 221.4719472185998"  id=" " fill="none"  stroke="black"   stroke-width="0.25" />
<path d="
M392.77552270409353 209.76746554293703
A200.16056612049255 200.16056612049255 0 0 0 261.2622195043825 203.80590134050564"  id=" " fill="none"  stroke="black"   stroke-width="0.5" />
<path d="
M239.208162721309 211.8172984021449
A200.16056612049255 200.16056612049255 0 0 0 158.03908441424247 275.9135504107034"  id=" " fill="none"  stroke="black"   stroke-width="0.5" />
<path d="
M341.96091558575756 275.9135504107034
A200.16056612049255 200.16056612049255 0 0 0 260.791837278691 211.8172984021449"  id=" " fill="none"  stroke="black"   stroke-width="0.5" />
<path d="
M238.7377804956175 203.80590134050564
A200.16056612049255 200.16056612049255 0 0 0 107.22447729590644 209.76746554293703"  id=" " fill="none"  stroke="black"   stroke-width="0.5" />
<path d="
M397.2928967041357 196.82443463555938
A207.5336984257321 207.5336984257321 0 0 0 260.918174500904 202.81571660395656"  id=" " fill="none"  stroke="black"   stroke-width="0.25" />
<path d="
M239.6425396505093 212.71739863994054
A207.5336984257321 207.5336984257321 0 0 0 164.87590673081883 280.7314329951459"  id=" " fill="none"  stroke="black"   stroke-width="0.25" />
<path d="
M335.1240932691812 280.7314329951459
A207.5336984257321 207.5336984257321 0 0 0 260.35746034949074 212.71739863994054"  id=" " fill="none"  stroke="black"   stroke-width="0.25" />
<path d="
M239.081825499096 202.81571660395656
A207.5336984257321 207.5336984257321 0 0 0 102.7071032958643 196.82443463555938"  id=" " fill="none"  stroke="black"   stroke-width="0.25" />
<path d="
M400.83110421386283 182.58010869485878
A217.18693947524648 217.18693947524648 0 0 0 260.48486279339215 201.85537939940252"  id=" " fill="none"  stroke="black"   stroke-width="0.5" />
<path d="
M240.14920962223803 213.57332288484992
A217.18693947524648 217.18693947524648 0 0 0 171.6855574178294 285.00571870790156"  id=" " fill="none"  stroke="black"   stroke-width="0.5" />
<path d="
M328.3144425821706 285.00571870790156
A217.18693947524648 217.18693947524648 0 0 0 259.85079037776194 213.57332288484992"  id=" " fill="none"  stroke="black"   stroke-width="0.5" />
<path d="
M239.51513720660785 201.85537939940252
A217.18693947524648 217.18693947524648 0 0 0 99.16889578613717 182.58010869485878"  id=" " fill="none"  stroke="black"   stroke-width="0.5" />
<path d="
M403.0978871692887 167.00465318323762
A229.61476842680014 229.61476842680014 0 0 0 259.96456442510095 200.93335268903368"  id=" " fill="none"  stroke="black"   stroke-width="0.25" />
<path d="
M240.7236560705191 214.37975970975015
A229.61476842680014 229.61476842680014 0 0 0 178.45513909053233 288.7849280870378"  id=" " fill="none"  stroke="black"   stroke-width="0.25" />
<path d="
M321.5448609094677 288.7849280870378
A229.61476842680014 229.61476842680014 0 0 0 259.2763439294809 214.37975970975015"  id=" " fill="none"  stroke="black"   stroke-width="0.25" />
<path d="
M240.03543557489903 200.93335268903368
A229.61476842680014 229.61476842680014 0 0 0 96.90211283071133 167.00465318323762"  id=" " fill="none"  stroke="black"   stroke-width="0.25" />
<path d="
M401.46512952385046 150.16947853025965
A245.53328288623024 245.53328288623024 0 0 0 259.36043651758075 200.0579840551339"  id=" " fill="none"  stroke="black"   stroke-width="0.5" />
<path d="
M241.36106231436958 215.13185651319702
A245.53328288623024 245.53328288623024 0 0 0 185.17688351409998 292.1115475740794"  id=" " fill="none"  stroke="black"   stroke-width="0.5" />
<path d="
M314.8231164859 292.1115475740794
A245.53328288623024 245.53328288623024 0 0 0 258.6389376856304 215.13185651319702"  id=" " fill="none"  stroke="black"   stroke-width="0.5" />
<path d="
M240.63956348241925 200.0579840551339
A245.53328288623024 245.53328288623024 0 0 0 98.53487047614954 150.16947853025965"  id=" " fill="none"  stroke="black"   stroke-width="0.5" />
<path d="
M389.5438658954496 134.0891378275967
A265.99859025554355 265.99859025554355 0 0 0 258.67652115897323 199.23740195586112"  id=" " fill="none"  stroke="black"   stroke-width="0.25" />
<path d="
M242.05635580670017 215.82521914328123
A265.99859025554355 265.99859025554355 0 0 0 191.84698998417693 295.0225370099299"  id=" " fill="none"  stroke="black"   stroke-width="0.25" />
<path d="
M308.15301001582304 295.0225370099299
A265.99859025554355 265.99859025554355 0 0 0 257.94364419329986 215.82521914328123"  id=" " fill="none"  stroke="black"   stroke-width="0.25" />
<path d="
M241.32347884102674 199.23740195586112
A265.99859025554355 265.99859025554355 0 0 0 110.45613410455044 134.0891378275967"  id=" " fill="none"  stroke="black"   stroke-width="0.25" />
<path d="
M376.3516267666817 119.83439435853165
A292.6151719811154 292.6151719811154 0 0 0 257.917738935382 198.4794074704136"  id=" " fill="none"  stroke="black"   stroke-width="0.5" />
<path d="
M242.80424823347244 216.45590805273173
A292.6151719811154 292.6151719811154 0 0 0 198.46471688197244 297.5498225961115"  id=" " fill="none"  stroke="black"   stroke-width="0.5" />
<path d="
M301.53528311802756 297.5498225961115
A292.6151719811154 292.6151719811154 0 0 0 257.19575176652756 216.45590805273173"  id=" " fill="none"  stroke="black"   stroke-width="0.5" />
<path d="
M242.08226106461802 198.4794074704136
A292.6151719811154 292.6151719811154 0 0 0 123.64837323331828 119.83439435853165"  id=" " fill="none"  stroke="black"   stroke-width="0.5" />
<path d="
M362.1635609836028 107.42667126676639
A327.92387384728676 327.92387384728676 0 0 0 257.08986685367614 197.7913638415049"  id=" " fill="none"  stroke="black"   stroke-width="0.25" />
<path d="
M243.59927141541704 217.02043191640388
A327.92387384728676 327.92387384728676 0 0 0 205.03167269734968 299.7207551822801"  id=" " fill="none"  stroke="black"   stroke-width="0.25" />
<path d="
M294.9683273026503 299.7207551822801
A327.92387384728676 327.92387384728676 0 0 0 256.40072858458296 217.02043191640388"  id=" " fill="none"  stroke="black"   stroke-width="0.25" />
<path d="
M242.91013314632386 197.7913638415049
A327.92387384728676 327.92387384728676 0 0 0 137.8364390163972 107.42667126676639"  id=" " fill="none"  stroke="black"   stroke-width="0.25" />
<path d="
M347.2144606293436 96.84267199006476
A376.17881391151343 376.17881391151343 0 0 0 256.19949982485656 197.18008644021913"  id=" " fill="none"  stroke="black"   stroke-width="0.5" />
<path d="
M244.4358091042531 217.51573957377767
A376.17881391151343 376.17881391151343 0 0 0 211.55126328127102 301.55852296992833"  id=" " fill="none"  stroke="black"   stroke-width="0.5" />
<path d="
M288.448736718729 301.55852296992833
A376.17881391151343 376.17881391151343 0 0 0 255.5641908957469 217.51573957377767"  id=" " fill="none"  stroke="black"   stroke-width="0.5" />
<path d="
M243.80050017514344 197.18008644021913
A376.17881391151343 376.17881391151343 0 0 0 152.7855393706564 96.84267199006476"  id=" " fill="none"  stroke="black"   stroke-width="0.5" />
<path d="
M331.6975464720124 88.03293736364031
A445.0574525129262 445.0574525129262 0 0 0 255.2539953800921 196.65173600998918"  id=" " fill="none"  stroke="black"   stroke-width="0.25" />
<path d="
M245.30812488344006 217.9392110784772
A445.0574525129262 445.0574525129262 0 0 0 218.02826075678237 303.0825135467202"  id=" " fill="none"  stroke="black"   stroke-width="0.25" />
<path d="
M281.97173924321766 303.0825135467202
A445.0574525129262 445.0574525129262 0 0 0 254.69187511655994 217.9392110784772"  id=" " fill="none"  stroke="black"   stroke-width="0.25" />
<path d="
M244.7460046199079 196.65173600998918
A445.0574525129262 445.0574525129262 0 0 0 168.3024535279876 88.03293736364031"  id=" " fill="none"  stroke="black"   stroke-width="0.25" />
<path d="
M315.7676061827897 80.93657859967891
A549.936635681307 549.936635681307 0 0 0 254.26140185743753 196.21171817014474"  id=" " fill="none"  stroke="black"   stroke-width="0.5" />
<path d="
M246.2103864812997 218.28864854839597
A549.936635681307 549.936635681307 0 0 0 224.4684665228656 304.308623695708"  id=" " fill="none"  stroke="black"   stroke-width="0.5" />
<path d="
M275.5315334771344 304.308623695708
A549.936635681307 549.936635681307 0 0 0 253.7896135187003 218.28864854839597"  id=" " fill="none"  stroke="black"   stroke-width="0.5" />
<path d="
M245.73859814256247 196.21171817014474
A549.936635681307 549.936635681307 0 0 0 184.23239381721032 80.93657859967891"  id=" " fill="none"  stroke="black"   stroke-width="0.5" />
<path d="
M299.5465048504607 75.49222843752648
A726.7216633198408 726.7216633198408 0 0 0 253.23037090030996 195.86459215735906"  id=" " fill="none"  stroke="black"   stroke-width="0.25" />
<path d="
M247.1366868835664 218.56226741732792
A726.7216633198408 726.7216633198408 0 0 0 230.878446338361 305.2495174246567"  id=" " fill="none"  stroke="black"   stroke-width="0.25" />
<path d="
M269.12155366163904 305.2495174246567
A726.7216633198408 726.7216633198408 0 0 0 252.8633131164336 218.56226741732792"  id=" " fill="none"  stroke="black"   stroke-width="0.25" />
<path d="
M246.76962909969004 195.86459215735906
A726.7216633198408 726.7216633198408 0 0 0 200.45349514953932 75.49222843752648"  id=" " fill="none"  stroke="black"   stroke-width="0.25" />
<path d="
M283.12973262307526 71.64574775206327
A1083.1637249688022 1083.1637249688022 0 0 0 252.17005571778907 195.6139916447802"  id=" " fill="none"  stroke="black"   stroke-width="0.5" />
<path d="
M248.08106269521838 218.758688594368
A1083.1637249688022 1083.1637249688022 0 0 0 237.2653197953679 305.9148336551307"  id=" " fill="none"  stroke="black"   stroke-width="0.5" />
<path d="
M262.7346802046321 305.9148336551307
A1083.1637249688022 1083.1637249688022 0 0 0 251.91893730478162 218.758688594368"  id=" " fill="none"  stroke="black"   stroke-width="0.5" />
<path d="
M247.82994428221093 195.6139916447802
A1083.1637249688022 1083.1637249688022 0 0 0 216.87026737692474 71.64574775206327"  id=" " fill="none"  stroke="black"   stroke-width="0.5" />
<path d="
M266.59321214010663 69.35536600975217
A2158.0839199584548 2158.0839199584548 0 0 0 251.08999713760076 195.46256020085588"  id=" " fill="none"  stroke="black"   stroke-width="0.25" />
<path d="
M249.03751024973323 218.87693194297105
A2158.0839199584548 2158.0839199584548 0 0 0 243.63658978563578 306.31134535149135"  id=" " fill="none"  stroke="black"   stroke-width="0.25" />
<path d="
M256.3634102143642 306.31134535149135
A2158.0839199584548 2158.0839199584548 0 0 0 250.96248975026677 218.87693194297105"  id=" " fill="none"  stroke="black"   stroke-width="0.25" />
<path d="
M248.91000286239924 195.46256020085588
A2158.0839199584548 2158.0839199584548 0 0 0 233.40678785989334 69.35536600975217"  id=" " fill="none"  stroke="black"   stroke-width="0.25" />
<line x1="250.0" y1="68.59487747420943"   x2="250.0" y2="328.12533297615187"   id=" " stroke="black"  stroke-width="0.5" /><circle cx="250.0" cy="250.0"  r="209.01024986667176" fill="none" stroke="red" id="  "  stroke-width="0.5" />
<circle cx="250.0" cy="250.0"  r="4.416820374540988" fill="none" stroke="red" id="  "  stroke-width="0.5" />
</svg>
