<svg viewBox="0 0 500 500" xmlns="http://www.w3.org/2000/svg">
<circle cx="250.0" cy="250.0"  r="119.04761904761904" fill="none" stroke="black" id="sphereceleste"  stroke-width="0.5" />
<circle cx="250.0" cy="250.0"  r="181.40512252579057" fill="none" stroke="black" id="capricorne"  stroke-width="0.5" />
<text font-family="Arial, Helvetica, sans-serif" font-size="7" >
<textPath xlink:href="#capricorne" startOffset="23%">Latitude 50.73</textPath>
 </text><circle cx="250.0" cy="250.0"  r="190.4753786520801" fill="none" stroke="black" id="cercleexterne"  stroke-width="0.5" />
<circle cx="250.0" cy="250.0"  r="184.12619936367742" fill="none" stroke="none" id="cercleinvisible"  stroke-width="0.5" />
<text font-family="Arial, Helvetica, sans-serif" font-size="7" >
<textPath xlink:href="#cercleinvisible" startOffset="58.6%">230</textPath>
 </text><text font-family="Arial, Helvetica, sans-serif" font-size="7" >
<textPath xlink:href="#cercleinvisible" startOffset="62%">220</textPath>
 </text><text font-family="Arial, Helvetica, sans-serif" font-size="7" >
<textPath xlink:href="#cercleinvisible" startOffset="65.5%">210</textPath>
 </text><text font-family="Arial, Helvetica, sans-serif" font-size="7" >
<textPath xlink:href="#cercleinvisible" startOffset="68.6%">200</textPath>
 </text><text font-family="Arial, Helvetica, sans-serif" font-size="7" >
<textPath xlink:href="#cercleinvisible" startOffset="71.55%">190</textPath>
 </text><text font-family="Arial, Helvetica, sans-serif" font-size="7" >
<textPath xlink:href="#cercleinvisible" startOffset="74.4%">Sud</textPath>
 </text><text font-family="Arial, Helvetica, sans-serif" font-size="7" >
<textPath xlink:href="#cercleinvisible" startOffset="77.4%">170</textPath>
 </text><text font-family="Arial, Helvetica, sans-serif" font-size="7" >
<textPath xlink:href="#cercleinvisible" startOffset="80.35%">160</textPath>
 </text><text font-family="Arial, Helvetica, sans-serif" font-size="7" >
<textPath xlink:href="#cercleinvisible" startOffset="83.4%">150</textPath>
 </text><text font-family="Arial, Helvetica, sans-serif" font-size="7" >
<textPath xlink:href="#cercleinvisible" startOffset="86.7%">140</textPath>
 </text><text font-family="Arial, Helvetica, sans-serif" font-size="7" >
<textPath xlink:href="#cercleinvisible" startOffset="90.2%">130</textPath>
 </text><circle cx="250.0" cy="250.0"  r="78.1253329761519" fill="none" stroke="black" id="cancer"  stroke-width="0.5" />
<circle cx="250.0" cy="250.0"  r="0.7142857142857142" fill="none" stroke="black" id="  "  stroke-width="0.5" />
<path d="
M96.23679496611479 153.74671301038876
A153.76693191032717 153.76693191032717 0 0 0 403.76320503388524 153.74671301038876"  id="horizon" fill="none"  stroke="black"   stroke-width="0.5" />
<path d="
M90.45996713261152 163.65883721381965
A159.91760918674026 159.91760918674026 0 0 0 409.5400328673885 163.65883721381965"  id="horizonlarge" fill="none"    stroke="none"   stroke-width="0.5" />
<path d="
M96.23679496611479 153.74671301038876
A153.76693191032717 153.76693191032717 0 0 0 403.76320503388524 153.74671301038876"  id="horizon" fill="none"  stroke="black"   stroke-width="0.5" />
<text font-family="Arial, Helvetica, sans-serif" font-size="7" >
<textPath xlink:href="#horizonlarge" startOffset="9%">250</textPath>
 </text><text font-family="Arial, Helvetica, sans-serif" font-size="7" >
<textPath xlink:href="#horizonlarge" startOffset="18.1%">Ouest</textPath>
 </text><text font-family="Arial, Helvetica, sans-serif" font-size="7" >
<textPath xlink:href="#horizonlarge" startOffset="30.8%">300</textPath>
 </text><text font-family="Arial, Helvetica, sans-serif" font-size="7" >
<textPath xlink:href="#horizonlarge" startOffset="40.15%">330</textPath>
 </text><text font-family="Arial, Helvetica, sans-serif" font-size="7" >
<textPath xlink:href="#horizonlarge" startOffset="48.2%">Nord</textPath>
 </text><text font-family="Arial, Helvetica, sans-serif" font-size="7" >
<textPath xlink:href="#horizonlarge" startOffset="57.5%">30</textPath>
 </text><text font-family="Arial, Helvetica, sans-serif" font-size="7" >
<textPath xlink:href="#horizonlarge" startOffset="67%">60</textPath>
 </text><text font-family="Arial, Helvetica, sans-serif" font-size="7" >
<textPath xlink:href="#horizonlarge" startOffset="78.2%">Est</textPath>
 </text><text font-family="Arial, Helvetica, sans-serif" font-size="7" >
<textPath xlink:href="#horizonlarge" startOffset="88.3%">110</textPath>
 </text><path d="
M117.10899554705819 126.51801988109646
A137.6823448268982 137.6823448268982 0 1 0 382.89100445294184 126.51801988109646"  id=" " fill="none" stroke="black"   stroke-width="0.25" />
<path d="
M351.27453324781317 99.49655354765235
A123.68858974983266 123.68858974983266 0 1 1148.72546675218683 99.49655354765235"  id="10" fill="none" stroke="black"   stroke-width="0.5" />
<text font-family="Arial, Helvetica, sans-serif" font-size="7" >
<textPath xlink:href="#10" startOffset="12.485%">10</textPath>
 </text><text font-family="Arial, Helvetica, sans-serif" font-size="7" >
<textPath xlink:href="#10" startOffset="86.2%">10</textPath>
 </text><path d="
M210.76806057684348 72.88796368486169
A111.3147506248299 111.3147506248299 0 1 0 289.2319394231565 72.88796368486169"  id=" " fill="none" stroke="black"   stroke-width="0.25" />
<circle cx="250.0" cy="182.49684895813573"  r="100.2197893943803" fill="none" stroke="black" id="20"  stroke-width="0.5" />
<text font-family="Arial, Helvetica, sans-serif" font-size="7" >
<textPath xlink:href="#20" startOffset="97.13%">20</textPath>
 </text><text font-family="Arial, Helvetica, sans-serif" font-size="7" >
<textPath xlink:href="#20" startOffset="51.7%">20</textPath>
 </text><circle cx="250.0" cy="187.04272686987832"  r="90.14989886052754" fill="none" stroke="black" id="  "  stroke-width="0.25" />
<circle cx="250.0" cy="190.8660763381662"  r="80.91163016544222" fill="none" stroke="black" id="30"  stroke-width="0.5" />
<text font-family="Arial, Helvetica, sans-serif" font-size="7" >
<textPath xlink:href="#30" startOffset="95.561%">30</textPath>
 </text><text font-family="Arial, Helvetica, sans-serif" font-size="7" >
<textPath xlink:href="#30" startOffset="52.9%">30</textPath>
 </text><circle cx="250.0" cy="194.09423554416432"  r="72.3543644348196" fill="none" stroke="black" id="  "  stroke-width="0.25" />
<circle cx="250.0" cy="196.82487422149848"  r="64.3585299510416" fill="none" stroke="black" id="40"  stroke-width="0.5" />
<text font-family="Arial, Helvetica, sans-serif" font-size="7" >
<textPath xlink:href="#40" startOffset="94.1%">40</textPath>
 </text><text font-family="Arial, Helvetica, sans-serif" font-size="7" >
<textPath xlink:href="#40" startOffset="54.1%">40</textPath>
 </text><circle cx="250.0" cy="199.13375523993216"  r="56.82746747064022" fill="none" stroke="black" id="  "  stroke-width="0.25" />
<circle cx="250.0" cy="201.08014861734006"  r="49.68167722247814" fill="none" stroke="black" id="50"  stroke-width="0.5" />
<text font-family="Arial, Helvetica, sans-serif" font-size="7" >
<textPath xlink:href="#50" startOffset="92.59%">50</textPath>
 </text><text font-family="Arial, Helvetica, sans-serif" font-size="7" >
<textPath xlink:href="#50" startOffset="54.8%">50</textPath>
 </text><circle cx="250.0" cy="202.71067502931646"  r="42.85465856249663" fill="none" stroke="black" id="  "  stroke-width="0.25" />
<circle cx="250.0" cy="204.0620737137222"  r="36.28983671024569" fill="none" stroke="black" id="60"  stroke-width="0.5" />
<circle cx="250.0" cy="205.16321715449777"  r="29.938244156451834" fill="none" stroke="black" id="  "  stroke-width="0.25" />
<circle cx="250.0" cy="206.03658656186582"  r="23.756732779830486" fill="none" stroke="black" id="70"  stroke-width="0.5" />
<circle cx="250.0" cy="206.69935232828811"  r="17.70656206863214" fill="none" stroke="black" id="  "  stroke-width="0.25" />
<circle cx="250.0" cy="207.164157469249"  r="11.752253928125297" fill="none" stroke="black" id="80"  stroke-width="0.5" />
<circle cx="250.0" cy="207.43967068028246"  r="5.860634148122137" fill="none" stroke="black" id="  "  stroke-width="0.25" />
<path d="
M68.59510611410442 250.28801535386268
A243.38597400054186 243.38597400054186 0 0 0 431.4048938858956 250.28801535386268"  id="moins18" fill="none"  stroke="black"   stroke-width="0.5" />
<path d="
M68.60138042504272 248.46400035904205
A242.16904413053916 242.16904413053916 0 0 0 431.39861957495725 248.46400035904205"  id="moins18p" fill="none"    stroke="none"   stroke-width="0.5" />
<text font-family="Arial, Helvetica, sans-serif" font-size="7" >
<textPath xlink:href="#moins18p" startOffset="2%">-18</textPath>
 </text><text font-family="Arial, Helvetica, sans-serif" font-size="7" >
<textPath xlink:href="#moins18p" startOffset="95%">-18</textPath>
 </text><path d="
M369.04761904761904 250.0
A188.08940695575677 188.08940695575677 0 0 0 130.95238095238096 250.0"  id=" " fill="none"  stroke="black"   stroke-width="0.5" />
<path d="
M375.518664902731 241.49806347187592
A188.8078779339523 188.8078779339523 0 0 0 261.7486011491585 206.8711669760006"  id=" " fill="none"  stroke="black"   stroke-width="0.25" />
<path d="
M238.37841789952915 208.91181357762895
A188.8078779339523 188.8078779339523 0 0 0 137.60547654166555 257.6129801515338"  id=" " fill="none"  stroke="black"   stroke-width="0.25" />
<path d="
M362.39452345833445 257.6129801515338
A188.8078779339523 188.8078779339523 0 0 0 261.62158210047085 208.91181357762895"  id=" " fill="none"  stroke="black"   stroke-width="0.25" />
<path d="
M238.25139885084153 206.8711669760006
A188.8078779339523 188.8078779339523 0 0 0 124.481335097269 241.49806347187592"  id=" " fill="none"  stroke="black"   stroke-width="0.25" />
<path d="
M381.7155173555689 232.0190150310568
A190.99098923668316 190.99098923668316 0 0 0 261.6776396425097 205.84196052067344"  id=" " fill="none"  stroke="black"   stroke-width="0.5" />
<path d="
M238.57256099435608 209.90807987402354
A190.99098923668316 190.99098923668316 0 0 0 144.3704430054766 264.4198915566447"  id=" " fill="none"  stroke="black"   stroke-width="0.5" />
<path d="
M355.6295569945234 264.4198915566447
A190.99098923668316 190.99098923668316 0 0 0 261.4274390056439 209.90807987402354"  id=" " fill="none"  stroke="black"   stroke-width="0.5" />
<path d="
M238.32236035749034 205.84196052067344
A190.99098923668316 190.99098923668316 0 0 0 118.28448264443108 232.0190150310568"  id=" " fill="none"  stroke="black"   stroke-width="0.5" />
<path d="
M387.51874869290714 221.4719472185998
A194.72448280875358 194.72448280875358 0 0 0 261.5155741718494 204.81745257008149"  id=" " fill="none"  stroke="black"   stroke-width="0.25" />
<path d="
M238.8502470962009 210.8787883493454
A194.72448280875358 194.72448280875358 0 0 0 151.19459771871072 270.4970286463454"  id=" " fill="none"  stroke="black"   stroke-width="0.25" />
<path d="
M348.8054022812893 270.4970286463454
A194.72448280875358 194.72448280875358 0 0 0 261.1497529037991 210.8787883493454"  id=" " fill="none"  stroke="black"   stroke-width="0.25" />
<path d="
M238.4844258281506 204.81745257008149
A194.72448280875358 194.72448280875358 0 0 0 112.48125130709289 221.4719472185998"  id=" " fill="none"  stroke="black"   stroke-width="0.25" />
<path d="
M392.77552270409353 209.76746554293703
A200.16056612049255 200.16056612049255 0 0 0 261.2622195043825 203.80590134050564"  id=" " fill="none"  stroke="black"   stroke-width="0.5" />
<path d="
M239.208162721309 211.8172984021449
A200.16056612049255 200.16056612049255 0 0 0 158.03908441424247 275.9135504107034"  id=" " fill="none"  stroke="black"   stroke-width="0.5" />
<path d="
M341.96091558575756 275.9135504107034
A200.16056612049255 200.16056612049255 0 0 0 260.791837278691 211.8172984021449"  id=" " fill="none"  stroke="black"   stroke-width="0.5" />
<path d="
M238.7377804956175 203.80590134050564
A200.16056612049255 200.16056612049255 0 0 0 107.22447729590644 209.76746554293703"  id=" " fill="none"  stroke="black"   stroke-width="0.5" />
<path d="
M397.2928967041357 196.82443463555938
A207.5336984257321 207.5336984257321 0 0 0 260.918174500904 202.81571660395656"  id=" " fill="none"  stroke="black"   stroke-width="0.25" />
<path d="
M239.6425396505093 212.71739863994054
A207.5336984257321 207.5336984257321 0 0 0 164.87590673081883 280.7314329951459"  id=" " fill="none"  stroke="black"   stroke-width="0.25" />
<path d="
M335.1240932691812 280.7314329951459
A207.5336984257321 207.5336984257321 0 0 0 260.35746034949074 212.71739863994054"  id=" " fill="none"  stroke="black"   stroke-width="0.25" />
<path d="
M239.081825499096 202.81571660395656
A207.5336984257321 207.5336984257321 0 0 0 102.7071032958643 196.82443463555938"  id=" " fill="none"  stroke="black"   stroke-width="0.25" />
<path d="
M400.83110421386283 182.58010869485878
A217.18693947524648 217.18693947524648 0 0 0 260.48486279339215 201.85537939940252"  id=" " fill="none"  stroke="black"   stroke-width="0.5" />
<path d="
M240.14920962223803 213.57332288484992
A217.18693947524648 217.18693947524648 0 0 0 171.6855574178294 285.00571870790156"  id=" " fill="none"  stroke="black"   stroke-width="0.5" />
<path d="
M328.3144425821706 285.00571870790156
A217.18693947524648 217.18693947524648 0 0 0 259.85079037776194 213.57332288484992"  id=" " fill="none"  stroke="black"   stroke-width="0.5" />
<path d="
M239.51513720660785 201.85537939940252
A217.18693947524648 217.18693947524648 0 0 0 99.16889578613717 182.58010869485878"  id=" " fill="none"  stroke="black"   stroke-width="0.5" />
<path d="
M403.0978871692887 167.00465318323762
A229.61476842680014 229.61476842680014 0 0 0 259.96456442510095 200.93335268903368"  id=" " fill="none"  stroke="black"   stroke-width="0.25" />
<path d="
M240.7236560705191 214.37975970975015
A229.61476842680014 229.61476842680014 0 0 0 178.45513909053233 288.7849280870378"  id=" " fill="none"  stroke="black"   stroke-width="0.25" />
<path d="
M321.5448609094677 288.7849280870378
A229.61476842680014 229.61476842680014 0 0 0 259.2763439294809 214.37975970975015"  id=" " fill="none"  stroke="black"   stroke-width="0.25" />
<path d="
M240.03543557489903 200.93335268903368
A229.61476842680014 229.61476842680014 0 0 0 96.90211283071133 167.00465318323762"  id=" " fill="none"  stroke="black"   stroke-width="0.25" />
<path d="
M401.46512952385046 150.16947853025965
A245.53328288623024 245.53328288623024 0 0 0 259.36043651758075 200.0579840551339"  id=" " fill="none"  stroke="black"   stroke-width="0.5" />
<path d="
M241.36106231436958 215.13185651319702
A245.53328288623024 245.53328288623024 0 0 0 185.17688351409998 292.1115475740794"  id=" " fill="none"  stroke="black"   stroke-width="0.5" />
<path d="
M314.8231164859 292.1115475740794
A245.53328288623024 245.53328288623024 0 0 0 258.6389376856304 215.13185651319702"  id=" " fill="none"  stroke="black"   stroke-width="0.5" />
<path d="
M240.63956348241925 200.0579840551339
A245.53328288623024 245.53328288623024 0 0 0 98.53487047614954 150.16947853025965"  id=" " fill="none"  stroke="black"   stroke-width="0.5" />
<path d="
M389.5438658954496 134.0891378275967
A265.99859025554355 265.99859025554355 0 0 0 258.67652115897323 199.23740195586112"  id=" " fill="none"  stroke="black"   stroke-width="0.25" />
<path d="
M242.05635580670017 215.82521914328123
A265.99859025554355 265.99859025554355 0 0 0 191.84698998417693 295.0225370099299"  id=" " fill="none"  stroke="black"   stroke-width="0.25" />
<path d="
M308.15301001582304 295.0225370099299
A265.99859025554355 265.99859025554355 0 0 0 257.94364419329986 215.82521914328123"  id=" " fill="none"  stroke="black"   stroke-width="0.25" />
<path d="
M241.32347884102674 199.23740195586112
A265.99859025554355 265.99859025554355 0 0 0 110.45613410455044 134.0891378275967"  id=" " fill="none"  stroke="black"   stroke-width="0.25" />
<path d="
M376.3516267666817 119.83439435853165
A292.6151719811154 292.6151719811154 0 0 0 257.917738935382 198.4794074704136"  id=" " fill="none"  stroke="black"   stroke-width="0.5" />
<path d="
M242.80424823347244 216.45590805273173
A292.6151719811154 292.6151719811154 0 0 0 198.46471688197244 297.5498225961115"  id=" " fill="none"  stroke="black"   stroke-width="0.5" />
<path d="
M301.53528311802756 297.5498225961115
A292.6151719811154 292.6151719811154 0 0 0 257.19575176652756 216.45590805273173"  id=" " fill="none"  stroke="black"   stroke-width="0.5" />
<path d="
M242.08226106461802 198.4794074704136
A292.6151719811154 292.6151719811154 0 0 0 123.64837323331828 119.83439435853165"  id=" " fill="none"  stroke="black"   stroke-width="0.5" />
<path d="
M362.1635609836028 107.42667126676639
A327.92387384728676 327.92387384728676 0 0 0 257.08986685367614 197.7913638415049"  id=" " fill="none"  stroke="black"   stroke-width="0.25" />
<path d="
M243.59927141541704 217.02043191640388
A327.92387384728676 327.92387384728676 0 0 0 205.03167269734968 299.7207551822801"  id=" " fill="none"  stroke="black"   stroke-width="0.25" />
<path d="
M294.9683273026503 299.7207551822801
A327.92387384728676 327.92387384728676 0 0 0 256.40072858458296 217.02043191640388"  id=" " fill="none"  stroke="black"   stroke-width="0.25" />
<path d="
M242.91013314632386 197.7913638415049
A327.92387384728676 327.92387384728676 0 0 0 137.8364390163972 107.42667126676639"  id=" " fill="none"  stroke="black"   stroke-width="0.25" />
<path d="
M347.2144606293436 96.84267199006476
A376.17881391151343 376.17881391151343 0 0 0 256.19949982485656 197.18008644021913"  id=" " fill="none"  stroke="black"   stroke-width="0.5" />
<path d="
M244.4358091042531 217.51573957377767
A376.17881391151343 376.17881391151343 0 0 0 211.55126328127102 301.55852296992833"  id=" " fill="none"  stroke="black"   stroke-width="0.5" />
<path d="
M288.448736718729 301.55852296992833
A376.17881391151343 376.17881391151343 0 0 0 255.5641908957469 217.51573957377767"  id=" " fill="none"  stroke="black"   stroke-width="0.5" />
<path d="
M243.80050017514344 197.18008644021913
A376.17881391151343 376.17881391151343 0 0 0 152.7855393706564 96.84267199006476"  id=" " fill="none"  stroke="black"   stroke-width="0.5" />
<path d="
M331.6975464720124 88.03293736364031
A445.0574525129262 445.0574525129262 0 0 0 255.2539953800921 196.65173600998918"  id=" " fill="none"  stroke="black"   stroke-width="0.25" />
<path d="
M245.30812488344006 217.9392110784772
A445.0574525129262 445.0574525129262 0 0 0 218.02826075678237 303.0825135467202"  id=" " fill="none"  stroke="black"   stroke-width="0.25" />
<path d="
M281.97173924321766 303.0825135467202
A445.0574525129262 445.0574525129262 0 0 0 254.69187511655994 217.9392110784772"  id=" " fill="none"  stroke="black"   stroke-width="0.25" />
<path d="
M244.7460046199079 196.65173600998918
A445.0574525129262 445.0574525129262 0 0 0 168.3024535279876 88.03293736364031"  id=" " fill="none"  stroke="black"   stroke-width="0.25" />
<path d="
M315.7676061827897 80.93657859967891
A549.936635681307 549.936635681307 0 0 0 254.26140185743753 196.21171817014474"  id=" " fill="none"  stroke="black"   stroke-width="0.5" />
<path d="
M246.2103864812997 218.28864854839597
A549.936635681307 549.936635681307 0 0 0 224.4684665228656 304.308623695708"  id=" " fill="none"  stroke="black"   stroke-width="0.5" />
<path d="
M275.5315334771344 304.308623695708
A549.936635681307 549.936635681307 0 0 0 253.7896135187003 218.28864854839597"  id=" " fill="none"  stroke="black"   stroke-width="0.5" />
<path d="
M245.73859814256247 196.21171817014474
A549.936635681307 549.936635681307 0 0 0 184.23239381721032 80.93657859967891"  id=" " fill="none"  stroke="black"   stroke-width="0.5" />
<path d="
M299.5465048504607 75.49222843752648
A726.7216633198408 726.7216633198408 0 0 0 253.23037090030996 195.86459215735906"  id=" " fill="none"  stroke="black"   stroke-width="0.25" />
<path d="
M247.1366868835664 218.56226741732792
A726.7216633198408 726.7216633198408 0 0 0 230.878446338361 305.2495174246567"  id=" " fill="none"  stroke="black"   stroke-width="0.25" />
<path d="
M269.12155366163904 305.2495174246567
A726.7216633198408 726.7216633198408 0 0 0 252.8633131164336 218.56226741732792"  id=" " fill="none"  stroke="black"   stroke-width="0.25" />
<path d="
M246.76962909969004 195.86459215735906
A726.7216633198408 726.7216633198408 0 0 0 200.45349514953932 75.49222843752648"  id=" " fill="none"  stroke="black"   stroke-width="0.25" />
<path d="
M283.12973262307526 71.64574775206327
A1083.1637249688022 1083.1637249688022 0 0 0 252.17005571778907 195.6139916447802"  id=" " fill="none"  stroke="black"   stroke-width="0.5" />
<path d="
M248.08106269521838 218.758688594368
A1083.1637249688022 1083.1637249688022 0 0 0 237.2653197953679 305.9148336551307"  id=" " fill="none"  stroke="black"   stroke-width="0.5" />
<path d="
M262.7346802046321 305.9148336551307
A1083.1637249688022 1083.1637249688022 0 0 0 251.91893730478162 218.758688594368"  id=" " fill="none"  stroke="black"   stroke-width="0.5" />
<path d="
M247.82994428221093 195.6139916447802
A1083.1637249688022 1083.1637249688022 0 0 0 216.87026737692474 71.64574775206327"  id=" " fill="none"  stroke="black"   stroke-width="0.5" />
<path d="
M266.59321214010663 69.35536600975217
A2158.0839199584548 2158.0839199584548 0 0 0 251.08999713760076 195.46256020085588"  id=" " fill="none"  stroke="black"   stroke-width="0.25" />
<path d="
M249.03751024973323 218.87693194297105
A2158.0839199584548 2158.0839199584548 0 0 0 243.63658978563578 306.31134535149135"  id=" " fill="none"  stroke="black"   stroke-width="0.25" />
<path d="
M256.3634102143642 306.31134535149135
A2158.0839199584548 2158.0839199584548 0 0 0 250.96248975026677 218.87693194297105"  id=" " fill="none"  stroke="black"   stroke-width="0.25" />
<path d="
M248.91000286239924 195.46256020085588
A2158.0839199584548 2158.0839199584548 0 0 0 233.40678785989334 69.35536600975217"  id=" " fill="none"  stroke="black"   stroke-width="0.25" />
<line x1="250.0" y1="68.59487747420943"   x2="250.0" y2="328.12533297615187"   id=" " stroke="black"  stroke-width="0.5" /><circle cx="250.0" cy="250.0"  r="209.01024986667176" fill="none" stroke="red" id="  "  stroke-width="0.5" />
<circle cx="250.0" cy="250.0"  r="211.93639336480516" fill="none" stroke="none" id="basechiffre"  stroke-width="0.5" />
<circle cx="250.0" cy="250.0"  r="220.8410187270494" fill="none" stroke="red" id="  "  stroke-width="0.5" />
<text font-family="Arial, Helvetica, sans-serif" font-size="7" >
<textPath xlink:href="#basechiffre" startOffset="-0.27%">06</textPath>
 </text><text font-family="Arial, Helvetica, sans-serif" font-size="7" >
<textPath xlink:href="#basechiffre" startOffset="99.65%">0</textPath>
 </text><text font-family="Arial, Helvetica, sans-serif" font-size="7" >
<textPath xlink:href="#basechiffre" startOffset="3.896666666666667%">05</textPath>
 </text><text font-family="Arial, Helvetica, sans-serif" font-size="7" >
<textPath xlink:href="#basechiffre" startOffset="8.063333333333334%">04</textPath>
 </text><text font-family="Arial, Helvetica, sans-serif" font-size="7" >
<textPath xlink:href="#basechiffre" startOffset="12.23%">03</textPath>
 </text><text font-family="Arial, Helvetica, sans-serif" font-size="7" >
<textPath xlink:href="#basechiffre" startOffset="16.39666666666667%">02</textPath>
 </text><text font-family="Arial, Helvetica, sans-serif" font-size="7" >
<textPath xlink:href="#basechiffre" startOffset="20.563333333333333%">01</textPath>
 </text><text font-family="Arial, Helvetica, sans-serif" font-size="7" >
<textPath xlink:href="#basechiffre" startOffset="24.73%">24</textPath>
 </text><text font-family="Arial, Helvetica, sans-serif" font-size="7" >
<textPath xlink:href="#basechiffre" startOffset="28.89666666666667%">23</textPath>
 </text><text font-family="Arial, Helvetica, sans-serif" font-size="7" >
<textPath xlink:href="#basechiffre" startOffset="33.06333333333333%">22</textPath>
 </text><text font-family="Arial, Helvetica, sans-serif" font-size="7" >
<textPath xlink:href="#basechiffre" startOffset="37.23%">21</textPath>
 </text><text font-family="Arial, Helvetica, sans-serif" font-size="7" >
<textPath xlink:href="#basechiffre" startOffset="41.39666666666666%">20</textPath>
 </text><text font-family="Arial, Helvetica, sans-serif" font-size="7" >
<textPath xlink:href="#basechiffre" startOffset="45.56333333333333%">19</textPath>
 </text><text font-family="Arial, Helvetica, sans-serif" font-size="7" >
<textPath xlink:href="#basechiffre" startOffset="49.73%">18</textPath>
 </text><text font-family="Arial, Helvetica, sans-serif" font-size="7" >
<textPath xlink:href="#basechiffre" startOffset="53.89666666666666%">17</textPath>
 </text><text font-family="Arial, Helvetica, sans-serif" font-size="7" >
<textPath xlink:href="#basechiffre" startOffset="58.06333333333333%">16</textPath>
 </text><text font-family="Arial, Helvetica, sans-serif" font-size="7" >
<textPath xlink:href="#basechiffre" startOffset="62.23%">15</textPath>
 </text><text font-family="Arial, Helvetica, sans-serif" font-size="7" >
<textPath xlink:href="#basechiffre" startOffset="66.39666666666668%">14</textPath>
 </text><text font-family="Arial, Helvetica, sans-serif" font-size="7" >
<textPath xlink:href="#basechiffre" startOffset="70.56333333333333%">13</textPath>
 </text><text font-family="Arial, Helvetica, sans-serif" font-size="7" >
<textPath xlink:href="#basechiffre" startOffset="74.73%">12</textPath>
 </text><text font-family="Arial, Helvetica, sans-serif" font-size="7" >
<textPath xlink:href="#basechiffre" startOffset="78.89666666666668%">11</textPath>
 </text><text font-family="Arial, Helvetica, sans-serif" font-size="7" >
<textPath xlink:href="#basechiffre" startOffset="83.06333333333333%">10</textPath>
 </text><text font-family="Arial, Helvetica, sans-serif" font-size="7" >
<textPath xlink:href="#basechiffre" startOffset="87.23%">09</textPath>
 </text><text font-family="Arial, Helvetica, sans-serif" font-size="7" >
<textPath xlink:href="#basechiffre" startOffset="91.39666666666668%">08</textPath>
 </text><text font-family="Arial, Helvetica, sans-serif" font-size="7" >
<textPath xlink:href="#basechiffre" startOffset="95.56333333333333%">07</textPath>
 </text><line x1="459.01024986667176" y1="250.0"   x2="470.8410187270494" y2="250.0"   id=" " stroke="black"  stroke-width="0.5" /><line x1="458.56274287778854" y1="263.66992438245444"   x2="462.73399773534436" y2="263.9433228701035"   id=" " stroke="black"  stroke-width="0.5" /><line x1="457.2221382047678" y1="277.2813120500582"   x2="461.3665809688632" y2="277.8269382910594"   id=" " stroke="black"  stroke-width="0.5" /><line x1="454.99417652263287" y1="290.7758769511604"   x2="459.0940600530856" y2="291.59139449018363"   id=" " stroke="black"  stroke-width="0.5" /><line x1="451.88839830534954" y1="304.09583328713126"   x2="463.3160434924448" y2="307.1578615864028"   id=" " stroke="black"  stroke-width="0.5" /><line x1="447.9181029720519" y1="317.18414296002317"   x2="451.8764650314929" y2="318.5278258192236"   id=" " stroke="black"  stroke-width="0.5" /><line x1="443.10029193688797" y1="329.984759818463"   x2="446.9622977756257" y2="331.58445501483226"   id=" " stroke="black"  stroke-width="0.5" /><line x1="437.4555958063541" y1="342.44286965587645"   x2="441.2047077224812" y2="344.29172704899395"   id=" " stroke="black"  stroke-width="0.5" /><line x1="431.00818603587084" y1="354.5051249333359"   x2="441.2539324152597" y2="360.4205093635247"   id=" " stroke="black"  stroke-width="0.5" /><line x1="423.78567142389966" y1="366.1198732219121"   x2="427.26138485237766" y2="368.44227068635035"   id=" " stroke="black"  stroke-width="0.5" /><line x1="415.8189798868297" y1="377.23737838630484"   x2="419.1353594845663" y2="379.782125954031"   id=" " stroke="black"  stroke-width="0.5" /><line x1="407.1422260208914" y1="387.81003356260976"   x2="410.2850705413093" y2="390.56623423386196"   id=" " stroke="black"  stroke-width="0.5" /><line x1="397.7925650182183" y1="397.7925650182183"   x2="406.15818190604193" y2="406.15818190604193"   id=" " stroke="black"  stroke-width="0.5" /><line x1="387.81003356260976" y1="407.1422260208914"   x2="390.56623423386196" y2="410.2850705413093"   id=" " stroke="black"  stroke-width="0.5" /><line x1="377.23737838630484" y1="415.8189798868297"   x2="379.782125954031" y2="419.1353594845663"   id=" " stroke="black"  stroke-width="0.5" /><line x1="366.11987322191214" y1="423.78567142389966"   x2="368.4422706863504" y2="427.26138485237766"   id=" " stroke="black"  stroke-width="0.5" /><line x1="354.5051249333359" y1="431.00818603587084"   x2="360.42050936352473" y2="441.25393241525967"   id=" " stroke="black"  stroke-width="0.5" /><line x1="342.44286965587645" y1="437.4555958063541"   x2="344.29172704899395" y2="441.2047077224812"   id=" " stroke="black"  stroke-width="0.5" /><line x1="329.984759818463" y1="443.10029193688797"   x2="331.58445501483226" y2="446.9622977756257"   id=" " stroke="black"  stroke-width="0.5" /><line x1="317.1841429600232" y1="447.9181029720519"   x2="318.52782581922366" y2="451.8764650314929"   id=" " stroke="black"  stroke-width="0.5" /><line x1="304.09583328713126" y1="451.88839830534954"   x2="307.1578615864028" y2="463.3160434924448"   id=" " stroke="black"  stroke-width="0.5" /><line x1="290.77587695116046" y1="454.99417652263287"   x2="291.59139449018363" y2="459.0940600530856"   id=" " stroke="black"  stroke-width="0.5" /><line x1="277.28131205005826" y1="457.2221382047678"   x2="277.8269382910594" y2="461.3665809688632"   id=" " stroke="black"  stroke-width="0.5" /><line x1="263.6699243824545" y1="458.56274287778854"   x2="263.94332287010354" y2="462.73399773534436"   id=" " stroke="black"  stroke-width="0.5" /><line x1="250.0" y1="459.01024986667176"   x2="250.0" y2="470.8410187270494"   id=" " stroke="black"  stroke-width="0.5" /><line x1="236.33007561754556" y1="458.56274287778854"   x2="236.05667712989646" y2="462.73399773534436"   id=" " stroke="black"  stroke-width="0.5" /><line x1="222.7186879499418" y1="457.2221382047678"   x2="222.17306170894062" y2="461.3665809688632"   id=" " stroke="black"  stroke-width="0.5" /><line x1="209.2241230488396" y1="454.99417652263287"   x2="208.40860550981637" y2="459.0940600530856"   id=" " stroke="black"  stroke-width="0.5" /><line x1="195.90416671286877" y1="451.88839830534954"   x2="192.84213841359718" y2="463.3160434924448"   id=" " stroke="black"  stroke-width="0.5" /><line x1="182.81585703997683" y1="447.9181029720519"   x2="181.47217418077636" y2="451.8764650314929"   id=" " stroke="black"  stroke-width="0.5" /><line x1="170.01524018153708" y1="443.10029193688797"   x2="168.4155449851678" y2="446.96229777562576"   id=" " stroke="black"  stroke-width="0.5" /><line x1="157.5571303441236" y1="437.4555958063541"   x2="155.70827295100605" y2="441.2047077224812"   id=" " stroke="black"  stroke-width="0.5" /><line x1="145.49487506666418" y1="431.00818603587084"   x2="139.57949063647536" y2="441.2539324152597"   id=" " stroke="black"  stroke-width="0.5" /><line x1="133.88012677808786" y1="423.78567142389966"   x2="131.55772931364962" y2="427.26138485237766"   id=" " stroke="black"  stroke-width="0.5" /><line x1="122.76262161369513" y1="415.8189798868297"   x2="120.21787404596901" y2="419.1353594845663"   id=" " stroke="black"  stroke-width="0.5" /><line x1="112.18996643739024" y1="407.1422260208914"   x2="109.43376576613804" y2="410.2850705413093"   id=" " stroke="black"  stroke-width="0.5" /><line x1="102.20743498178172" y1="397.7925650182183"   x2="93.84181809395804" y2="406.15818190604193"   id=" " stroke="black"  stroke-width="0.5" /><line x1="92.85777397910857" y1="387.81003356260976"   x2="89.71492945869073" y2="390.56623423386196"   id=" " stroke="black"  stroke-width="0.5" /><line x1="84.18102011317029" y1="377.2373783863049"   x2="80.8646405154337" y2="379.782125954031"   id=" " stroke="black"  stroke-width="0.5" /><line x1="76.21432857610037" y1="366.11987322191214"   x2="72.73861514762237" y2="368.4422706863504"   id=" " stroke="black"  stroke-width="0.5" /><line x1="68.99181396412916" y1="354.5051249333359"   x2="58.746067584740274" y2="360.4205093635247"   id=" " stroke="black"  stroke-width="0.5" /><line x1="62.54440419364593" y1="342.4428696558765"   x2="58.795292277518826" y2="344.29172704899406"   id=" " stroke="black"  stroke-width="0.5" /><line x1="56.89970806311206" y1="329.98475981846303"   x2="53.0377022243743" y2="331.5844550148323"   id=" " stroke="black"  stroke-width="0.5" /><line x1="52.081897027948145" y1="317.1841429600232"   x2="48.1235349685071" y2="318.52782581922366"   id=" " stroke="black"  stroke-width="0.5" /><line x1="48.11160169465049" y1="304.0958332871313"   x2="36.68395650755522" y2="307.1578615864029"   id=" " stroke="black"  stroke-width="0.5" /><line x1="45.0058234773671" y1="290.7758769511604"   x2="40.9059399469144" y2="291.59139449018363"   id=" " stroke="black"  stroke-width="0.5" /><line x1="42.777861795232155" y1="277.2813120500583"   x2="38.63341903113678" y2="277.8269382910595"   id=" " stroke="black"  stroke-width="0.5" /><line x1="41.43725712221146" y1="263.66992438245444"   x2="37.26600226465567" y2="263.94332287010354"   id=" " stroke="black"  stroke-width="0.5" /><line x1="40.98975013332824" y1="250.00000000000003"   x2="29.158981272950598" y2="250.00000000000003"   id=" " stroke="black"  stroke-width="0.5" /><line x1="41.43725712221146" y1="236.33007561754562"   x2="37.26600226465567" y2="236.0566771298965"   id=" " stroke="black"  stroke-width="0.5" /><line x1="42.777861795232155" y1="222.71868794994174"   x2="38.63341903113678" y2="222.1730617089406"   id=" " stroke="black"  stroke-width="0.5" /><line x1="45.00582347736707" y1="209.22412304883966"   x2="40.90593994691437" y2="208.40860550981643"   id=" " stroke="black"  stroke-width="0.5" /><line x1="48.11160169465046" y1="195.90416671286874"   x2="36.683956507555195" y2="192.84213841359718"   id=" " stroke="black"  stroke-width="0.5" /><line x1="52.081897027948145" y1="182.81585703997683"   x2="48.12353496850707" y2="181.4721741807764"   id=" " stroke="black"  stroke-width="0.5" /><line x1="56.89970806311206" y1="170.01524018153702"   x2="53.03770222437427" y2="168.41554498516774"   id=" " stroke="black"  stroke-width="0.5" /><line x1="62.54440419364593" y1="157.55713034412355"   x2="58.795292277518826" y2="155.708272951006"   id=" " stroke="black"  stroke-width="0.5" /><line x1="68.99181396412914" y1="145.49487506666418"   x2="58.746067584740246" y2="139.57949063647538"   id=" " stroke="black"  stroke-width="0.5" /><line x1="76.21432857610029" y1="133.88012677808794"   x2="72.73861514762228" y2="131.5577293136497"   id=" " stroke="black"  stroke-width="0.5" /><line x1="84.18102011317029" y1="122.76262161369513"   x2="80.86464051543368" y2="120.21787404596901"   id=" " stroke="black"  stroke-width="0.5" /><line x1="92.85777397910857" y1="112.18996643739024"   x2="89.7149294586907" y2="109.43376576613804"   id=" " stroke="black"  stroke-width="0.5" /><line x1="102.20743498178163" y1="102.2074349817818"   x2="93.84181809395795" y2="93.84181809395812"   id=" " stroke="black"  stroke-width="0.5" /><line x1="112.18996643739021" y1="92.85777397910857"   x2="109.43376576613801" y2="89.71492945869073"   id=" " stroke="black"  stroke-width="0.5" /><line x1="122.76262161369509" y1="84.18102011317032"   x2="120.21787404596898" y2="80.86464051543373"   id=" " stroke="black"  stroke-width="0.5" /><line x1="133.8801267780879" y1="76.21432857610034"   x2="131.55772931364965" y2="72.73861514762231"   id=" " stroke="black"  stroke-width="0.5" /><line x1="145.49487506666404" y1="68.99181396412922"   x2="139.5794906364752" y2="58.7460675847403"   id=" " stroke="black"  stroke-width="0.5" /><line x1="157.55713034412355" y1="62.54440419364593"   x2="155.708272951006" y2="58.795292277518826"   id=" " stroke="black"  stroke-width="0.5" /><line x1="170.01524018153708" y1="56.89970806311206"   x2="168.4155449851678" y2="53.03770222437427"   id=" " stroke="black"  stroke-width="0.5" /><line x1="182.81585703997678" y1="52.081897027948145"   x2="181.47217418077634" y2="48.1235349685071"   id=" " stroke="black"  stroke-width="0.5" /><line x1="195.90416671286877" y1="48.11160169465046"   x2="192.84213841359718" y2="36.683956507555195"   id=" " stroke="black"  stroke-width="0.5" /><line x1="209.2241230488395" y1="45.00582347736713"   x2="208.40860550981628" y2="40.90593994691443"   id=" " stroke="black"  stroke-width="0.5" /><line x1="222.7186879499418" y1="42.777861795232155"   x2="222.17306170894062" y2="38.63341903113678"   id=" " stroke="black"  stroke-width="0.5" /><line x1="236.33007561754565" y1="41.43725712221146"   x2="236.05667712989657" y2="37.26600226465567"   id=" " stroke="black"  stroke-width="0.5" /><line x1="249.99999999999997" y1="40.98975013332824"   x2="249.99999999999997" y2="29.158981272950598"   id=" " stroke="black"  stroke-width="0.5" /><line x1="263.66992438245427" y1="41.437257122211435"   x2="263.9433228701034" y2="37.26600226465564"   id=" " stroke="black"  stroke-width="0.5" /><line x1="277.28131205005815" y1="42.77786179523213"   x2="277.8269382910593" y2="38.633419031136754"   id=" " stroke="black"  stroke-width="0.5" /><line x1="290.77587695116046" y1="45.0058234773671"   x2="291.59139449018363" y2="40.9059399469144"   id=" " stroke="black"  stroke-width="0.5" /><line x1="304.09583328713114" y1="48.11160169465043"   x2="307.15786158640276" y2="36.683956507555195"   id=" " stroke="black"  stroke-width="0.5" /><line x1="317.18414296002317" y1="52.081897027948145"   x2="318.5278258192236" y2="48.12353496850707"   id=" " stroke="black"  stroke-width="0.5" /><line x1="329.98475981846286" y1="56.89970806311203"   x2="331.58445501483214" y2="53.03770222437424"   id=" " stroke="black"  stroke-width="0.5" /><line x1="342.4428696558764" y1="62.5444041936459"   x2="344.29172704899395" y2="58.7952922775188"   id=" " stroke="black"  stroke-width="0.5" /><line x1="354.5051249333359" y1="68.9918139641292"   x2="360.42050936352473" y2="58.7460675847403"   id=" " stroke="black"  stroke-width="0.5" /><line x1="366.11987322191203" y1="76.21432857610029"   x2="368.4422706863503" y2="72.73861514762228"   id=" " stroke="black"  stroke-width="0.5" /><line x1="377.2373783863047" y1="84.18102011317015"   x2="379.7821259540308" y2="80.86464051543354"   id=" " stroke="black"  stroke-width="0.5" /><line x1="387.81003356260976" y1="92.85777397910857"   x2="390.566234233862" y2="89.71492945869076"   id=" " stroke="black"  stroke-width="0.5" /><line x1="397.7925650182183" y1="102.20743498178169"   x2="406.15818190604193" y2="93.84181809395801"   id=" " stroke="black"  stroke-width="0.5" /><line x1="407.1422260208915" y1="112.18996643739027"   x2="410.2850705413093" y2="109.43376576613807"   id=" " stroke="black"  stroke-width="0.5" /><line x1="415.81897988682965" y1="122.76262161369506"   x2="419.13535948456627" y2="120.21787404596895"   id=" " stroke="black"  stroke-width="0.5" /><line x1="423.78567142389954" y1="133.88012677808774"   x2="427.26138485237755" y2="131.55772931364947"   id=" " stroke="black"  stroke-width="0.5" /><line x1="431.0081860358707" y1="145.49487506666404"   x2="441.25393241525967" y2="139.5794906364752"   id=" " stroke="black"  stroke-width="0.5" /><line x1="437.45559580635404" y1="157.55713034412355"   x2="441.2047077224812" y2="155.708272951006"   id=" " stroke="black"  stroke-width="0.5" /><line x1="443.10029193688797" y1="170.01524018153705"   x2="446.96229777562576" y2="168.4155449851678"   id=" " stroke="black"  stroke-width="0.5" /><line x1="447.9181029720519" y1="182.81585703997678"   x2="451.8764650314929" y2="181.4721741807763"   id=" " stroke="black"  stroke-width="0.5" /><line x1="451.8883983053495" y1="195.90416671286857"   x2="463.31604349244475" y2="192.84213841359698"   id=" " stroke="black"  stroke-width="0.5" /><line x1="454.99417652263287" y1="209.2241230488395"   x2="459.09406005308557" y2="208.40860550981625"   id=" " stroke="black"  stroke-width="0.5" /><line x1="457.2221382047678" y1="222.71868794994177"   x2="461.3665809688632" y2="222.1730617089406"   id=" " stroke="black"  stroke-width="0.5" /><line x1="458.56274287778854" y1="236.33007561754562"   x2="462.73399773534436" y2="236.05667712989654"   id=" " stroke="black"  stroke-width="0.5" /><circle cx="250.0" cy="250.0"  r="4.416820374540988" fill="none" stroke="red" id="  "  stroke-width="0.5" />
</svg>
