<svg viewBox="0 0 500 500" xmlns="http://www.w3.org/2000/svg">
<circle cx="250.0" cy="250.0"  r="119.04761904761904" fill="none" stroke="black" id="sphereceleste"  stroke-width="0.5" />
<circle cx="250.0" cy="250.0"  r="181.40512252579057" fill="none" stroke="black" id="capricorne"  stroke-width="0.5" />
<text font-family="Arial, Helvetica, sans-serif" font-size="7" >
<textPath xlink:href="#capricorne" startOffset="23%">Latitude 44</textPath>
 </text><circle cx="250.0" cy="250.0"  r="190.4753786520801" fill="none" stroke="black" id="cercleexterne"  stroke-width="0.5" />
<circle cx="250.0" cy="250.0"  r="184.12619936367742" fill="none" stroke="none" id="cercleinvisible"  stroke-width="0.5" />
<text font-family="Arial, Helvetica, sans-serif" font-size="7" >
<textPath xlink:href="#cercleinvisible" startOffset="58.6%">230</textPath>
 </text><text font-family="Arial, Helvetica, sans-serif" font-size="7" >
<textPath xlink:href="#cercleinvisible" startOffset="62.4%">220</textPath>
 </text><text font-family="Arial, Helvetica, sans-serif" font-size="7" >
<textPath xlink:href="#cercleinvisible" startOffset="65.5%">210</textPath>
 </text><text font-family="Arial, Helvetica, sans-serif" font-size="7" >
<textPath xlink:href="#cercleinvisible" startOffset="68.6%">200</textPath>
 </text><text font-family="Arial, Helvetica, sans-serif" font-size="7" >
<textPath xlink:href="#cercleinvisible" startOffset="71.55%">190</textPath>
 </text><text font-family="Arial, Helvetica, sans-serif" font-size="7" >
<textPath xlink:href="#cercleinvisible" startOffset="74.4%">Sud</textPath>
 </text><text font-family="Arial, Helvetica, sans-serif" font-size="7" >
<textPath xlink:href="#cercleinvisible" startOffset="77.4%">170</textPath>
 </text><text font-family="Arial, Helvetica, sans-serif" font-size="7" >
<textPath xlink:href="#cercleinvisible" startOffset="80.3%">160</textPath>
 </text><text font-family="Arial, Helvetica, sans-serif" font-size="7" >
<textPath xlink:href="#cercleinvisible" startOffset="83.4%">150</textPath>
 </text><text font-family="Arial, Helvetica, sans-serif" font-size="7" >
<textPath xlink:href="#cercleinvisible" startOffset="86.5%">140</textPath>
 </text><text font-family="Arial, Helvetica, sans-serif" font-size="7" >
<textPath xlink:href="#cercleinvisible" startOffset="90%">130</textPath>
 </text><circle cx="250.0" cy="250.0"  r="78.1253329761519" fill="none" stroke="black" id="cancer"  stroke-width="0.5" />
<circle cx="250.0" cy="250.0"  r="0.7142857142857142" fill="none" stroke="black" id="  "  stroke-width="0.5" />
<path d="
M85.27758662140084 174.0108888765832
A171.3757785268722 171.3757785268722 0 0 0 414.7224133785992 174.0108888765832"  id="horizon" fill="none"  stroke="black"   stroke-width="0.5" />
<path d="
M81.13244590771217 183.73109587834324
A178.2308096679471 178.2308096679471 0 0 0 418.86755409228783 183.73109587834324"  id="horizonlarge" fill="none"    stroke="none"   stroke-width="0.5" />
<path d="
M85.27758662140084 174.0108888765832
A171.3757785268722 171.3757785268722 0 0 0 414.7224133785992 174.0108888765832"  id="horizon" fill="none"  stroke="black"   stroke-width="0.5" />
<text font-family="Arial, Helvetica, sans-serif" font-size="7" >
<textPath xlink:href="#horizonlarge" startOffset="6.5%">250</textPath>
 </text><text font-family="Arial, Helvetica, sans-serif" font-size="7" >
<textPath xlink:href="#horizonlarge" startOffset="16.8%">Ouest</textPath>
 </text><text font-family="Arial, Helvetica, sans-serif" font-size="7" >
<textPath xlink:href="#horizonlarge" startOffset="30.4%">300</textPath>
 </text><text font-family="Arial, Helvetica, sans-serif" font-size="7" >
<textPath xlink:href="#horizonlarge" startOffset="40.15%">330</textPath>
 </text><text font-family="Arial, Helvetica, sans-serif" font-size="7" >
<textPath xlink:href="#horizonlarge" startOffset="48.2%">Nord</textPath>
 </text><text font-family="Arial, Helvetica, sans-serif" font-size="7" >
<textPath xlink:href="#horizonlarge" startOffset="57.65%">30</textPath>
 </text><text font-family="Arial, Helvetica, sans-serif" font-size="7" >
<textPath xlink:href="#horizonlarge" startOffset="67.4%">60</textPath>
 </text><text font-family="Arial, Helvetica, sans-serif" font-size="7" >
<textPath xlink:href="#horizonlarge" startOffset="79.25%">Est</textPath>
 </text><text font-family="Arial, Helvetica, sans-serif" font-size="7" >
<textPath xlink:href="#horizonlarge" startOffset="91%">110</textPath>
 </text><path d="
M98.61172523211587 150.05297032227168
A151.6915656961748 151.6915656961748 0 0 0 401.3882747678841 150.05297032227168"  id=" " fill="none"  stroke="black"   stroke-width="0.25" />
<path d="
M382.66700140654723 126.27738599434507
A135.02030874784586 135.02030874784586 0 1 1117.33299859345277 126.27738599434507"  id="10" fill="none" stroke="black"   stroke-width="0.5" />
<text font-family="Arial, Helvetica, sans-serif" font-size="7" >
<textPath xlink:href="#10" startOffset="7.2%">10</textPath>
 </text><text font-family="Arial, Helvetica, sans-serif" font-size="7" >
<textPath xlink:href="#10" startOffset="91.3%">10</textPath>
 </text><path d="
M143.89093104326253 102.86508244562944
A120.60188098802267 120.60188098802267 0 1 0 356.1090689567375 102.86508244562944"  id=" " fill="none" stroke="black"   stroke-width="0.25" />
<path d="
M313.29186785054225 79.99424144286587
A107.91018397089718 107.91018397089718 0 1 1186.70813214945775 79.99424144286587"  id="20" fill="none" stroke="black"   stroke-width="0.5" />
<text font-family="Arial, Helvetica, sans-serif" font-size="7" >
<textPath xlink:href="#20" startOffset="17.27%">20</textPath>
 </text><text font-family="Arial, Helvetica, sans-serif" font-size="7" >
<textPath xlink:href="#20" startOffset="81.32%">20</textPath>
 </text><circle cx="250.0" cy="173.353189310058"  r="96.56854986630145" fill="none" stroke="black" id="  "  stroke-width="0.25" />
<circle cx="250.0" cy="178.31784162395803"  r="86.29936800734014" fill="none" stroke="black" id="30"  stroke-width="0.5" />
<text font-family="Arial, Helvetica, sans-serif" font-size="7" >
<textPath xlink:href="#30" startOffset="96.85%">30</textPath>
 </text><text font-family="Arial, Helvetica, sans-serif" font-size="7" >
<textPath xlink:href="#30" startOffset="51.6%">30</textPath>
 </text><circle cx="250.0" cy="182.47647040069558"  r="76.89278041175899" fill="none" stroke="black" id="  "  stroke-width="0.25" />
<circle cx="250.0" cy="185.97072944419972"  r="68.18650501910359" fill="none" stroke="black" id="40"  stroke-width="0.5" />
<text font-family="Arial, Helvetica, sans-serif" font-size="7" >
<textPath xlink:href="#40" startOffset="95.15%">40</textPath>
 </text><text font-family="Arial, Helvetica, sans-serif" font-size="7" >
<textPath xlink:href="#40" startOffset="53.18%">40</textPath>
 </text><circle cx="250.0" cy="188.90867495459025"  r="60.05241221317657" fill="none" stroke="black" id="  "  stroke-width="0.25" />
<circle cx="250.0" cy="191.37363896305342"  r="52.3873396937274" fill="none" stroke="black" id="50"  stroke-width="0.5" />
<text font-family="Arial, Helvetica, sans-serif" font-size="7" >
<textPath xlink:href="#50" startOffset="93.45%">50</textPath>
 </text><text font-family="Arial, Helvetica, sans-serif" font-size="7" >
<textPath xlink:href="#50" startOffset="54.18%">50</textPath>
 </text><circle cx="250.0" cy="193.43037299636873"  r="45.10664507535285" fill="none" stroke="black" id="  "  stroke-width="0.25" />
<circle cx="250.0" cy="195.12937730898165"  r="38.13957094073368" fill="none" stroke="black" id="60"  stroke-width="0.5" />
<circle cx="250.0" cy="196.5099932840155"  r="31.425834700325645" fill="none" stroke="black" id="  "  stroke-width="0.25" />
<circle cx="250.0" cy="197.60263188553134"  r="24.91305964713973" fill="none" stroke="black" id="70"  stroke-width="0.5" />
<circle cx="250.0" cy="198.43038330473874"  r="18.55479002147098" fill="none" stroke="black" id="  "  stroke-width="0.25" />
<circle cx="250.0" cy="199.01017095866757"  r="12.308912823129313" fill="none" stroke="black" id="80"  stroke-width="0.5" />
<circle cx="250.0" cy="199.35355879863306"  r="6.1363603103187785" fill="none" stroke="black" id="  "  stroke-width="0.25" />
<path d="
M68.81606342301865 258.95542322090296
A293.5914579352213 293.5914579352213 0 0 0 431.18393657698135 258.95542322090296"  id="moins18" fill="none"  stroke="black"   stroke-width="0.5" />
<path d="
M68.730736882636 257.01945350329686
A292.12350064554516 292.12350064554516 0 0 0 431.269263117364 257.01945350329686"  id="moins18p" fill="none"    stroke="none"   stroke-width="0.5" />
<text font-family="Arial, Helvetica, sans-serif" font-size="7" >
<textPath xlink:href="#moins18p" startOffset="2%">-18</textPath>
 </text><text font-family="Arial, Helvetica, sans-serif" font-size="7" >
<textPath xlink:href="#moins18p" startOffset="95%">-18</textPath>
 </text><path d="
M369.04761904761904 250.0
A165.4956655972236 165.4956655972236 0 0 0 130.95238095238096 250.0"  id=" " fill="none"  stroke="black"   stroke-width="0.5" />
<path d="
M376.52717698065646 242.31034467279505
A166.12783215393313 166.12783215393313 0 0 0 262.3078615966079 198.84930515701564"  id=" " fill="none"  stroke="black"   stroke-width="0.25" />
<path d="
M237.85024330672223 200.98317556625193
A166.12783215393313 166.12783215393313 0 0 0 138.4019853683048 256.7823394799151"  id=" " fill="none"  stroke="black"   stroke-width="0.25" />
<path d="
M361.5980146316952 256.7823394799151
A166.12783215393313 166.12783215393313 0 0 0 262.14975669327777 200.98317556625193"  id=" " fill="none"  stroke="black"   stroke-width="0.25" />
<path d="
M237.6921384033921 198.84930515701564
A166.12783215393313 166.12783215393313 0 0 0 123.47282301934355 242.31034467279505"  id=" " fill="none"  stroke="black"   stroke-width="0.25" />
<path d="
M383.9739823939283 233.58992706521116
A168.04870299916502 168.04870299916502 0 0 0 262.24625118476484 197.7697408691253"  id=" " fill="none"  stroke="black"   stroke-width="0.5" />
<path d="
M238.0651933354735 202.02176933291508
A168.04870299916502 168.04870299916502 0 0 0 145.77939120687353 262.7656710731681"  id=" " fill="none"  stroke="black"   stroke-width="0.5" />
<path d="
M354.2206087931265 262.7656710731681
A168.04870299916502 168.04870299916502 0 0 0 261.9348066645265 202.02176933291508"  id=" " fill="none"  stroke="black"   stroke-width="0.5" />
<path d="
M237.75374881523513 197.7697408691253
A168.04870299916502 168.04870299916502 0 0 0 116.02601760607172 233.58992706521116"  id=" " fill="none"  stroke="black"   stroke-width="0.5" />
<path d="
M391.29783726502967 223.6997885492762
A171.33372055391803 171.33372055391803 0 0 0 262.08881540295374 196.69287144399377"  id=" " fill="none"  stroke="black"   stroke-width="0.25" />
<path d="
M238.36657832043386 203.0317172922065
A171.33372055391803 171.33372055391803 0 0 0 153.0574767509547 268.04421716118947"  id=" " fill="none"  stroke="black"   stroke-width="0.25" />
<path d="
M346.9425232490453 268.04421716118947
A171.33372055391803 171.33372055391803 0 0 0 261.63342167956614 203.0317172922065"  id=" " fill="none"  stroke="black"   stroke-width="0.25" />
<path d="
M237.91118459704623 196.69287144399377
A171.33372055391803 171.33372055391803 0 0 0 108.70216273497036 223.6997885492762"  id=" " fill="none"  stroke="black"   stroke-width="0.25" />
<path d="
M398.37191996606253 212.486390091622
A176.11680876967185 176.11680876967185 0 0 0 261.8349644605541 195.62742782552527"  id=" " fill="none"  stroke="black"   stroke-width="0.5" />
<path d="
M238.75063953501493 204.0062918555465
A176.11680876967185 176.11680876967185 0 0 0 160.22023088514496 272.69946521558313"  id=" " fill="none"  stroke="black"   stroke-width="0.5" />
<path d="
M339.77976911485507 272.69946521558313
A176.11680876967185 176.11680876967185 0 0 0 261.2493604649851 204.0062918555465"  id=" " fill="none"  stroke="black"   stroke-width="0.5" />
<path d="
M238.1650355394459 195.62742782552527
A176.11680876967185 176.11680876967185 0 0 0 101.62808003393747 212.486390091622"  id=" " fill="none"  stroke="black"   stroke-width="0.5" />
<path d="
M405.0211715287962 199.78484174103266
A182.604263103977 182.604263103977 0 0 0 261.4849436621997 194.58237196102792"  id=" " fill="none"  stroke="black"   stroke-width="0.25" />
<path d="
M239.21318885084648 204.93925521510187
A182.604263103977 182.604263103977 0 0 0 167.25975730426086 276.80159322999395"  id=" " fill="none"  stroke="black"   stroke-width="0.25" />
<path d="
M332.74024269573914 276.80159322999395
A182.604263103977 182.604263103977 0 0 0 260.78681114915355 204.93925521510187"  id=" " fill="none"  stroke="black"   stroke-width="0.25" />
<path d="
M238.5150563378003 194.58237196102792
A182.604263103977 182.604263103977 0 0 0 94.97882847120383 199.78484174103266"  id=" " fill="none"  stroke="black"   stroke-width="0.25" />
<path d="
M411.00799007036073 185.4259427469437
A191.09793416454664 191.09793416454664 0 0 0 261.03988976245944 193.56681088237806"  id=" " fill="none"  stroke="black"   stroke-width="0.5" />
<path d="
M239.74967054157767 205.8248669079524
A191.09793416454664 191.09793416454664 0 0 0 174.17404964068777 280.41084642836614"  id=" " fill="none"  stroke="black"   stroke-width="0.5" />
<path d="
M325.82595035931223 280.41084642836614
A191.09793416454664 191.09793416454664 0 0 0 260.2503294584223 205.8248669079524"  id=" " fill="none"  stroke="black"   stroke-width="0.5" />
<path d="
M238.96011023754053 193.56681088237806
A191.09793416454664 191.09793416454664 0 0 0 88.99200992963927 185.4259427469437"  id=" " fill="none"  stroke="black"   stroke-width="0.5" />
<path d="
M411.94080921636305 168.25042636841096
A202.0329031112541 202.0329031112541 0 0 0 260.50187777957166 192.58989853529343"  id=" " fill="none"  stroke="black"   stroke-width="0.25" />
<path d="
M240.3552183127457 206.65788441385166
A202.0329031112541 202.0329031112541 0 0 0 180.96534627516286 283.57880264181614"  id=" " fill="none"  stroke="black"   stroke-width="0.25" />
<path d="
M319.03465372483714 283.57880264181614
A202.0329031112541 202.0329031112541 0 0 0 259.6447816872543 206.65788441385166"  id=" " fill="none"  stroke="black"   stroke-width="0.25" />
<path d="
M239.49812222042831 192.58989853529343
A202.0329031112541 202.0329031112541 0 0 0 88.05919078363695 168.25042636841096"  id=" " fill="none"  stroke="black"   stroke-width="0.25" />
<path d="
M400.85962504755514 149.25680167322383
A216.03924822351289 216.03924822351289 0 0 0 259.87395564401015 191.6607264335677"  id=" " fill="none"  stroke="black"   stroke-width="0.5" />
<path d="
M241.02470703738305 207.43355811126827
A216.03924822351289 216.03924822351289 0 0 0 187.6389187565465 286.3494998847374"  id=" " fill="none"  stroke="black"   stroke-width="0.5" />
<path d="
M312.3610812434535 286.3494998847374
A216.03924822351289 216.03924822351289 0 0 0 258.97529296261695 207.43355811126827"  id=" " fill="none"  stroke="black"   stroke-width="0.5" />
<path d="
M240.12604435598985 191.6607264335677
A216.03924822351289 216.03924822351289 0 0 0 99.14037495244486 149.25680167322383"  id=" " fill="none"  stroke="black"   stroke-width="0.5" />
<path d="
M388.2183759902297 132.51170689289683
A234.04621480155606 234.04621480155606 0 0 0 259.1601641535041 190.78820479671714"  id=" " fill="none"  stroke="black"   stroke-width="0.25" />
<path d="
M241.7527989193703 208.14762187361424
A234.04621480155606 234.04621480155606 0 0 0 194.2021834896552 288.76042029224624"  id=" " fill="none"  stroke="black"   stroke-width="0.25" />
<path d="
M305.7978165103448 288.76042029224624
A234.04621480155606 234.04621480155606 0 0 0 258.2472010806297 208.14762187361424"  id=" " fill="none"  stroke="black"   stroke-width="0.25" />
<path d="
M240.83983584649587 190.78820479671714
A234.04621480155606 234.04621480155606 0 0 0 111.78162400977035 132.51170689289683"  id=" " fill="none"  stroke="black"   stroke-width="0.25" />
<path d="
M374.4363736353296 118.00224473467077
A257.4655502117238 257.4655502117238 0 0 0 258.36553993897 189.9809364165322"  id=" " fill="none"  stroke="black"   stroke-width="0.5" />
<path d="
M242.53398401692127 208.7962805139406
A257.4655502117238 257.4655502117238 0 0 0 200.66405392308752 290.8433356820297"  id=" " fill="none"  stroke="black"   stroke-width="0.5" />
<path d="
M299.3359460769125 290.8433356820297
A257.4655502117238 257.4655502117238 0 0 0 257.46601598307876 208.7962805139406"  id=" " fill="none"  stroke="black"   stroke-width="0.5" />
<path d="
M241.63446006102998 189.9809364165322
A257.4655502117238 257.4655502117238 0 0 0 125.56362636467044 118.00224473467077"  id=" " fill="none"  stroke="black"   stroke-width="0.5" />
<path d="
M359.85273248175656 105.63866291527799
A288.5328878746602 288.5328878746602 0 0 0 257.49609952353217 189.24708605579522"  id=" " fill="none"  stroke="black"   stroke-width="0.25" />
<path d="
M243.36261523643515 209.37619519112
A288.5328878746602 288.5328878746602 0 0 0 207.0344714046861 292.6250253692518"  id=" " fill="none"  stroke="black"   stroke-width="0.25" />
<path d="
M292.9655285953139 292.6250253692518
A288.5328878746602 288.5328878746602 0 0 0 256.63738476356485 209.37619519112"  id=" " fill="none"  stroke="black"   stroke-width="0.25" />
<path d="
M242.5039004764678 189.24708605579522
A288.5328878746602 288.5328878746602 0 0 0 140.14726751824344 105.63866291527799"  id=" " fill="none"  stroke="black"   stroke-width="0.25" />
<path d="
M344.72769036379117 95.29226536162199
A330.99133119444707 330.99133119444707 0 0 0 256.55880307779296 188.5942486723724"  id=" " fill="none"  stroke="black"   stroke-width="0.5" />
<path d="
M244.23293805347666 209.88446778155998
A330.99133119444707 330.99133119444707 0 0 0 213.32406860006603 294.1278788647734"  id=" " fill="none"  stroke="black"   stroke-width="0.5" />
<path d="
M286.675931399934 294.1278788647734
A330.99133119444707 330.99133119444707 0 0 0 255.76706194652334 209.88446778155998"  id=" " fill="none"  stroke="black"   stroke-width="0.5" />
<path d="
M243.44119692220704 188.5942486723724
A330.99133119444707 330.99133119444707 0 0 0 155.27230963620883 95.29226536162199"  id=" " fill="none"  stroke="black"   stroke-width="0.5" />
<path d="
M329.25215872153535 86.82244695861607
A391.596105941027 391.596105941027 0 0 0 255.5614971260476 188.0293201444384"  id=" " fill="none"  stroke="black"   stroke-width="0.25" />
<path d="
M245.13911533530404 210.31862510430201
A391.596105941027 391.596105941027 0 0 0 219.54393109849826 295.3703961830963"  id=" " fill="none"  stroke="black"   stroke-width="0.25" />
<path d="
M280.45606890150174 295.3703961830963
A391.596105941027 391.596105941027 0 0 0 254.86088466469596 210.31862510430201"  id=" " fill="none"  stroke="black"   stroke-width="0.25" />
<path d="
M244.4385028739524 188.0293201444384
A391.596105941027 391.596105941027 0 0 0 170.74784127846465 86.82244695861607"  id=" " fill="none"  stroke="black"   stroke-width="0.25" />
<path d="
M313.5602984524119 80.09441757482654
A483.8769552810811 483.8769552810811 0 0 0 254.51283621571895 187.55837441063682"  id=" " fill="none"  stroke="black"   stroke-width="0.5" />
<path d="
M246.07524773143206 210.67660376898988
A483.8769552810811 483.8769552810811 0 0 0 225.70543152809154 296.3675975584238"  id=" " fill="none"  stroke="black"   stroke-width="0.5" />
<path d="
M274.29456847190846 296.3675975584238
A483.8769552810811 483.8769552810811 0 0 0 253.92475226856794 210.67660376898988"  id=" " fill="none"  stroke="black"   stroke-width="0.5" />
<path d="
M245.48716378428105 187.55837441063682
A483.8769552810811 483.8769552810811 0 0 0 186.43970154758807 80.09441757482654"  id=" " fill="none"  stroke="black"   stroke-width="0.5" />
<path d="
M297.7421991140835 74.98999770770729
A639.4261501570302 639.4261501570302 0 0 0 253.42218439007152 187.18655100166015"  id=" " fill="none"  stroke="black"   stroke-width="0.25" />
<path d="
M247.03539016884437 210.95673629923337
A639.4261501570302 639.4261501570302 0 0 0 231.82011691752308 297.1313529353322"  id=" " fill="none"  stroke="black"   stroke-width="0.25" />
<path d="
M268.1798830824769 297.1313529353322
A639.4261501570302 639.4261501570302 0 0 0 252.96460983115563 210.95673629923337"  id=" " fill="none"  stroke="black"   stroke-width="0.25" />
<path d="
M246.57781560992848 187.18655100166015
A639.4261501570302 639.4261501570302 0 0 0 202.25780088591648 74.98999770770729"  id=" " fill="none"  stroke="black"   stroke-width="0.25" />
<path d="
M281.8553376495369 71.41372969393439
A953.0515541295 953.0515541295 0 0 0 252.29949815696173 186.91795680601655"  id=" " fill="none"  stroke="black"   stroke-width="0.5" />
<path d="
M248.01356504036053 211.1577390707864
A953.0515541295 953.0515541295 0 0 0 237.89963474086278 297.6706399616098"  id=" " fill="none"  stroke="black"   stroke-width="0.5" />
<path d="
M262.1003652591372 297.6706399616098
A953.0515541295 953.0515541295 0 0 0 251.98643495963947 211.1577390707864"  id=" " fill="none"  stroke="black"   stroke-width="0.5" />
<path d="
M247.70050184303827 186.91795680601655
A953.0515541295 953.0515541295 0 0 0 218.14466235046308 71.41372969393439"  id=" " fill="none"  stroke="black"   stroke-width="0.5" />
<path d="
M265.93445462964314 69.29606635644885
A1898.8498104638143 1898.8498104638143 0 0 0 251.15519347209724 186.75558557483402"  id=" " fill="none"  stroke="black"   stroke-width="0.25" />
<path d="
M249.0037727118883 211.27870249581838
A1898.8498104638143 1898.8498104638143 0 0 0 243.9556864857735 297.9917375248473"  id=" " fill="none"  stroke="black"   stroke-width="0.25" />
<path d="
M256.04431351422653 297.9917375248473
A1898.8498104638143 1898.8498104638143 0 0 0 250.9962272881117 211.27870249581838"  id=" " fill="none"  stroke="black"   stroke-width="0.25" />
<path d="
M248.84480652790276 186.75558557483402
A1898.8498104638143 1898.8498104638143 0 0 0 234.06554537035683 69.29606635644885"  id=" " fill="none"  stroke="black"   stroke-width="0.25" />
<line x1="250.0" y1="68.59487747420943"   x2="250.0" y2="328.12533297615187"   id=" " stroke="black"  stroke-width="0.5" /><circle cx="250.0" cy="250.0"  r="209.01024986667176" fill="none" stroke="red" id="  "  stroke-width="0.5" />
<circle cx="250.0" cy="250.0"  r="211.93639336480516" fill="none" stroke="none" id="basechiffre"  stroke-width="0.5" />
<circle cx="250.0" cy="250.0"  r="220.8410187270494" fill="none" stroke="red" id="  "  stroke-width="0.5" />
<text font-family="Arial, Helvetica, sans-serif" font-size="7" >
<textPath xlink:href="#basechiffre" startOffset="-0.27%">06</textPath>
 </text><text font-family="Arial, Helvetica, sans-serif" font-size="7" >
<textPath xlink:href="#basechiffre" startOffset="99.65%">0</textPath>
 </text><text font-family="Arial, Helvetica, sans-serif" font-size="7" >
<textPath xlink:href="#basechiffre" startOffset="3.896666666666667%">05</textPath>
 </text><text font-family="Arial, Helvetica, sans-serif" font-size="7" >
<textPath xlink:href="#basechiffre" startOffset="8.063333333333334%">04</textPath>
 </text><text font-family="Arial, Helvetica, sans-serif" font-size="7" >
<textPath xlink:href="#basechiffre" startOffset="12.23%">03</textPath>
 </text><text font-family="Arial, Helvetica, sans-serif" font-size="7" >
<textPath xlink:href="#basechiffre" startOffset="16.39666666666667%">02</textPath>
 </text><text font-family="Arial, Helvetica, sans-serif" font-size="7" >
<textPath xlink:href="#basechiffre" startOffset="20.563333333333333%">01</textPath>
 </text><text font-family="Arial, Helvetica, sans-serif" font-size="7" >
<textPath xlink:href="#basechiffre" startOffset="24.73%">24</textPath>
 </text><text font-family="Arial, Helvetica, sans-serif" font-size="7" >
<textPath xlink:href="#basechiffre" startOffset="28.89666666666667%">23</textPath>
 </text><text font-family="Arial, Helvetica, sans-serif" font-size="7" >
<textPath xlink:href="#basechiffre" startOffset="33.06333333333333%">22</textPath>
 </text><text font-family="Arial, Helvetica, sans-serif" font-size="7" >
<textPath xlink:href="#basechiffre" startOffset="37.23%">21</textPath>
 </text><text font-family="Arial, Helvetica, sans-serif" font-size="7" >
<textPath xlink:href="#basechiffre" startOffset="41.39666666666666%">20</textPath>
 </text><text font-family="Arial, Helvetica, sans-serif" font-size="7" >
<textPath xlink:href="#basechiffre" startOffset="45.56333333333333%">19</textPath>
 </text><text font-family="Arial, Helvetica, sans-serif" font-size="7" >
<textPath xlink:href="#basechiffre" startOffset="49.73%">18</textPath>
 </text><text font-family="Arial, Helvetica, sans-serif" font-size="7" >
<textPath xlink:href="#basechiffre" startOffset="53.89666666666666%">17</textPath>
 </text><text font-family="Arial, Helvetica, sans-serif" font-size="7" >
<textPath xlink:href="#basechiffre" startOffset="58.06333333333333%">16</textPath>
 </text><text font-family="Arial, Helvetica, sans-serif" font-size="7" >
<textPath xlink:href="#basechiffre" startOffset="62.23%">15</textPath>
 </text><text font-family="Arial, Helvetica, sans-serif" font-size="7" >
<textPath xlink:href="#basechiffre" startOffset="66.39666666666668%">14</textPath>
 </text><text font-family="Arial, Helvetica, sans-serif" font-size="7" >
<textPath xlink:href="#basechiffre" startOffset="70.56333333333333%">13</textPath>
 </text><text font-family="Arial, Helvetica, sans-serif" font-size="7" >
<textPath xlink:href="#basechiffre" startOffset="74.73%">12</textPath>
 </text><text font-family="Arial, Helvetica, sans-serif" font-size="7" >
<textPath xlink:href="#basechiffre" startOffset="78.89666666666668%">11</textPath>
 </text><text font-family="Arial, Helvetica, sans-serif" font-size="7" >
<textPath xlink:href="#basechiffre" startOffset="83.06333333333333%">10</textPath>
 </text><text font-family="Arial, Helvetica, sans-serif" font-size="7" >
<textPath xlink:href="#basechiffre" startOffset="87.23%">09</textPath>
 </text><text font-family="Arial, Helvetica, sans-serif" font-size="7" >
<textPath xlink:href="#basechiffre" startOffset="91.39666666666668%">08</textPath>
 </text><text font-family="Arial, Helvetica, sans-serif" font-size="7" >
<textPath xlink:href="#basechiffre" startOffset="95.56333333333333%">07</textPath>
 </text><line x1="459.01024986667176" y1="250.0"   x2="470.8410187270494" y2="250.0"   id=" " stroke="black"  stroke-width="0.5" /><line x1="458.56274287778854" y1="263.66992438245444"   x2="462.73399773534436" y2="263.9433228701035"   id=" " stroke="black"  stroke-width="0.5" /><line x1="457.2221382047678" y1="277.2813120500582"   x2="461.3665809688632" y2="277.8269382910594"   id=" " stroke="black"  stroke-width="0.5" /><line x1="454.99417652263287" y1="290.7758769511604"   x2="459.0940600530856" y2="291.59139449018363"   id=" " stroke="black"  stroke-width="0.5" /><line x1="451.88839830534954" y1="304.09583328713126"   x2="463.3160434924448" y2="307.1578615864028"   id=" " stroke="black"  stroke-width="0.5" /><line x1="447.9181029720519" y1="317.18414296002317"   x2="451.8764650314929" y2="318.5278258192236"   id=" " stroke="black"  stroke-width="0.5" /><line x1="443.10029193688797" y1="329.984759818463"   x2="446.9622977756257" y2="331.58445501483226"   id=" " stroke="black"  stroke-width="0.5" /><line x1="437.4555958063541" y1="342.44286965587645"   x2="441.2047077224812" y2="344.29172704899395"   id=" " stroke="black"  stroke-width="0.5" /><line x1="431.00818603587084" y1="354.5051249333359"   x2="441.2539324152597" y2="360.4205093635247"   id=" " stroke="black"  stroke-width="0.5" /><line x1="423.78567142389966" y1="366.1198732219121"   x2="427.26138485237766" y2="368.44227068635035"   id=" " stroke="black"  stroke-width="0.5" /><line x1="415.8189798868297" y1="377.23737838630484"   x2="419.1353594845663" y2="379.782125954031"   id=" " stroke="black"  stroke-width="0.5" /><line x1="407.1422260208914" y1="387.81003356260976"   x2="410.2850705413093" y2="390.56623423386196"   id=" " stroke="black"  stroke-width="0.5" /><line x1="397.7925650182183" y1="397.7925650182183"   x2="406.15818190604193" y2="406.15818190604193"   id=" " stroke="black"  stroke-width="0.5" /><line x1="387.81003356260976" y1="407.1422260208914"   x2="390.56623423386196" y2="410.2850705413093"   id=" " stroke="black"  stroke-width="0.5" /><line x1="377.23737838630484" y1="415.8189798868297"   x2="379.782125954031" y2="419.1353594845663"   id=" " stroke="black"  stroke-width="0.5" /><line x1="366.11987322191214" y1="423.78567142389966"   x2="368.4422706863504" y2="427.26138485237766"   id=" " stroke="black"  stroke-width="0.5" /><line x1="354.5051249333359" y1="431.00818603587084"   x2="360.42050936352473" y2="441.25393241525967"   id=" " stroke="black"  stroke-width="0.5" /><line x1="342.44286965587645" y1="437.4555958063541"   x2="344.29172704899395" y2="441.2047077224812"   id=" " stroke="black"  stroke-width="0.5" /><line x1="329.984759818463" y1="443.10029193688797"   x2="331.58445501483226" y2="446.9622977756257"   id=" " stroke="black"  stroke-width="0.5" /><line x1="317.1841429600232" y1="447.9181029720519"   x2="318.52782581922366" y2="451.8764650314929"   id=" " stroke="black"  stroke-width="0.5" /><line x1="304.09583328713126" y1="451.88839830534954"   x2="307.1578615864028" y2="463.3160434924448"   id=" " stroke="black"  stroke-width="0.5" /><line x1="290.77587695116046" y1="454.99417652263287"   x2="291.59139449018363" y2="459.0940600530856"   id=" " stroke="black"  stroke-width="0.5" /><line x1="277.28131205005826" y1="457.2221382047678"   x2="277.8269382910594" y2="461.3665809688632"   id=" " stroke="black"  stroke-width="0.5" /><line x1="263.6699243824545" y1="458.56274287778854"   x2="263.94332287010354" y2="462.73399773534436"   id=" " stroke="black"  stroke-width="0.5" /><line x1="250.0" y1="459.01024986667176"   x2="250.0" y2="470.8410187270494"   id=" " stroke="black"  stroke-width="0.5" /><line x1="236.33007561754556" y1="458.56274287778854"   x2="236.05667712989646" y2="462.73399773534436"   id=" " stroke="black"  stroke-width="0.5" /><line x1="222.7186879499418" y1="457.2221382047678"   x2="222.17306170894062" y2="461.3665809688632"   id=" " stroke="black"  stroke-width="0.5" /><line x1="209.2241230488396" y1="454.99417652263287"   x2="208.40860550981637" y2="459.0940600530856"   id=" " stroke="black"  stroke-width="0.5" /><line x1="195.90416671286877" y1="451.88839830534954"   x2="192.84213841359718" y2="463.3160434924448"   id=" " stroke="black"  stroke-width="0.5" /><line x1="182.81585703997683" y1="447.9181029720519"   x2="181.47217418077636" y2="451.8764650314929"   id=" " stroke="black"  stroke-width="0.5" /><line x1="170.01524018153708" y1="443.10029193688797"   x2="168.4155449851678" y2="446.96229777562576"   id=" " stroke="black"  stroke-width="0.5" /><line x1="157.5571303441236" y1="437.4555958063541"   x2="155.70827295100605" y2="441.2047077224812"   id=" " stroke="black"  stroke-width="0.5" /><line x1="145.49487506666418" y1="431.00818603587084"   x2="139.57949063647536" y2="441.2539324152597"   id=" " stroke="black"  stroke-width="0.5" /><line x1="133.88012677808786" y1="423.78567142389966"   x2="131.55772931364962" y2="427.26138485237766"   id=" " stroke="black"  stroke-width="0.5" /><line x1="122.76262161369513" y1="415.8189798868297"   x2="120.21787404596901" y2="419.1353594845663"   id=" " stroke="black"  stroke-width="0.5" /><line x1="112.18996643739024" y1="407.1422260208914"   x2="109.43376576613804" y2="410.2850705413093"   id=" " stroke="black"  stroke-width="0.5" /><line x1="102.20743498178172" y1="397.7925650182183"   x2="93.84181809395804" y2="406.15818190604193"   id=" " stroke="black"  stroke-width="0.5" /><line x1="92.85777397910857" y1="387.81003356260976"   x2="89.71492945869073" y2="390.56623423386196"   id=" " stroke="black"  stroke-width="0.5" /><line x1="84.18102011317029" y1="377.2373783863049"   x2="80.8646405154337" y2="379.782125954031"   id=" " stroke="black"  stroke-width="0.5" /><line x1="76.21432857610037" y1="366.11987322191214"   x2="72.73861514762237" y2="368.4422706863504"   id=" " stroke="black"  stroke-width="0.5" /><line x1="68.99181396412916" y1="354.5051249333359"   x2="58.746067584740274" y2="360.4205093635247"   id=" " stroke="black"  stroke-width="0.5" /><line x1="62.54440419364593" y1="342.4428696558765"   x2="58.795292277518826" y2="344.29172704899406"   id=" " stroke="black"  stroke-width="0.5" /><line x1="56.89970806311206" y1="329.98475981846303"   x2="53.0377022243743" y2="331.5844550148323"   id=" " stroke="black"  stroke-width="0.5" /><line x1="52.081897027948145" y1="317.1841429600232"   x2="48.1235349685071" y2="318.52782581922366"   id=" " stroke="black"  stroke-width="0.5" /><line x1="48.11160169465049" y1="304.0958332871313"   x2="36.68395650755522" y2="307.1578615864029"   id=" " stroke="black"  stroke-width="0.5" /><line x1="45.0058234773671" y1="290.7758769511604"   x2="40.9059399469144" y2="291.59139449018363"   id=" " stroke="black"  stroke-width="0.5" /><line x1="42.777861795232155" y1="277.2813120500583"   x2="38.63341903113678" y2="277.8269382910595"   id=" " stroke="black"  stroke-width="0.5" /><line x1="41.43725712221146" y1="263.66992438245444"   x2="37.26600226465567" y2="263.94332287010354"   id=" " stroke="black"  stroke-width="0.5" /><line x1="40.98975013332824" y1="250.00000000000003"   x2="29.158981272950598" y2="250.00000000000003"   id=" " stroke="black"  stroke-width="0.5" /><line x1="41.43725712221146" y1="236.33007561754562"   x2="37.26600226465567" y2="236.0566771298965"   id=" " stroke="black"  stroke-width="0.5" /><line x1="42.777861795232155" y1="222.71868794994174"   x2="38.63341903113678" y2="222.1730617089406"   id=" " stroke="black"  stroke-width="0.5" /><line x1="45.00582347736707" y1="209.22412304883966"   x2="40.90593994691437" y2="208.40860550981643"   id=" " stroke="black"  stroke-width="0.5" /><line x1="48.11160169465046" y1="195.90416671286874"   x2="36.683956507555195" y2="192.84213841359718"   id=" " stroke="black"  stroke-width="0.5" /><line x1="52.081897027948145" y1="182.81585703997683"   x2="48.12353496850707" y2="181.4721741807764"   id=" " stroke="black"  stroke-width="0.5" /><line x1="56.89970806311206" y1="170.01524018153702"   x2="53.03770222437427" y2="168.41554498516774"   id=" " stroke="black"  stroke-width="0.5" /><line x1="62.54440419364593" y1="157.55713034412355"   x2="58.795292277518826" y2="155.708272951006"   id=" " stroke="black"  stroke-width="0.5" /><line x1="68.99181396412914" y1="145.49487506666418"   x2="58.746067584740246" y2="139.57949063647538"   id=" " stroke="black"  stroke-width="0.5" /><line x1="76.21432857610029" y1="133.88012677808794"   x2="72.73861514762228" y2="131.5577293136497"   id=" " stroke="black"  stroke-width="0.5" /><line x1="84.18102011317029" y1="122.76262161369513"   x2="80.86464051543368" y2="120.21787404596901"   id=" " stroke="black"  stroke-width="0.5" /><line x1="92.85777397910857" y1="112.18996643739024"   x2="89.7149294586907" y2="109.43376576613804"   id=" " stroke="black"  stroke-width="0.5" /><line x1="102.20743498178163" y1="102.2074349817818"   x2="93.84181809395795" y2="93.84181809395812"   id=" " stroke="black"  stroke-width="0.5" /><line x1="112.18996643739021" y1="92.85777397910857"   x2="109.43376576613801" y2="89.71492945869073"   id=" " stroke="black"  stroke-width="0.5" /><line x1="122.76262161369509" y1="84.18102011317032"   x2="120.21787404596898" y2="80.86464051543373"   id=" " stroke="black"  stroke-width="0.5" /><line x1="133.8801267780879" y1="76.21432857610034"   x2="131.55772931364965" y2="72.73861514762231"   id=" " stroke="black"  stroke-width="0.5" /><line x1="145.49487506666404" y1="68.99181396412922"   x2="139.5794906364752" y2="58.7460675847403"   id=" " stroke="black"  stroke-width="0.5" /><line x1="157.55713034412355" y1="62.54440419364593"   x2="155.708272951006" y2="58.795292277518826"   id=" " stroke="black"  stroke-width="0.5" /><line x1="170.01524018153708" y1="56.89970806311206"   x2="168.4155449851678" y2="53.03770222437427"   id=" " stroke="black"  stroke-width="0.5" /><line x1="182.81585703997678" y1="52.081897027948145"   x2="181.47217418077634" y2="48.1235349685071"   id=" " stroke="black"  stroke-width="0.5" /><line x1="195.90416671286877" y1="48.11160169465046"   x2="192.84213841359718" y2="36.683956507555195"   id=" " stroke="black"  stroke-width="0.5" /><line x1="209.2241230488395" y1="45.00582347736713"   x2="208.40860550981628" y2="40.90593994691443"   id=" " stroke="black"  stroke-width="0.5" /><line x1="222.7186879499418" y1="42.777861795232155"   x2="222.17306170894062" y2="38.63341903113678"   id=" " stroke="black"  stroke-width="0.5" /><line x1="236.33007561754565" y1="41.43725712221146"   x2="236.05667712989657" y2="37.26600226465567"   id=" " stroke="black"  stroke-width="0.5" /><line x1="249.99999999999997" y1="40.98975013332824"   x2="249.99999999999997" y2="29.158981272950598"   id=" " stroke="black"  stroke-width="0.5" /><line x1="263.66992438245427" y1="41.437257122211435"   x2="263.9433228701034" y2="37.26600226465564"   id=" " stroke="black"  stroke-width="0.5" /><line x1="277.28131205005815" y1="42.77786179523213"   x2="277.8269382910593" y2="38.633419031136754"   id=" " stroke="black"  stroke-width="0.5" /><line x1="290.77587695116046" y1="45.0058234773671"   x2="291.59139449018363" y2="40.9059399469144"   id=" " stroke="black"  stroke-width="0.5" /><line x1="304.09583328713114" y1="48.11160169465043"   x2="307.15786158640276" y2="36.683956507555195"   id=" " stroke="black"  stroke-width="0.5" /><line x1="317.18414296002317" y1="52.081897027948145"   x2="318.5278258192236" y2="48.12353496850707"   id=" " stroke="black"  stroke-width="0.5" /><line x1="329.98475981846286" y1="56.89970806311203"   x2="331.58445501483214" y2="53.03770222437424"   id=" " stroke="black"  stroke-width="0.5" /><line x1="342.4428696558764" y1="62.5444041936459"   x2="344.29172704899395" y2="58.7952922775188"   id=" " stroke="black"  stroke-width="0.5" /><line x1="354.5051249333359" y1="68.9918139641292"   x2="360.42050936352473" y2="58.7460675847403"   id=" " stroke="black"  stroke-width="0.5" /><line x1="366.11987322191203" y1="76.21432857610029"   x2="368.4422706863503" y2="72.73861514762228"   id=" " stroke="black"  stroke-width="0.5" /><line x1="377.2373783863047" y1="84.18102011317015"   x2="379.7821259540308" y2="80.86464051543354"   id=" " stroke="black"  stroke-width="0.5" /><line x1="387.81003356260976" y1="92.85777397910857"   x2="390.566234233862" y2="89.71492945869076"   id=" " stroke="black"  stroke-width="0.5" /><line x1="397.7925650182183" y1="102.20743498178169"   x2="406.15818190604193" y2="93.84181809395801"   id=" " stroke="black"  stroke-width="0.5" /><line x1="407.1422260208915" y1="112.18996643739027"   x2="410.2850705413093" y2="109.43376576613807"   id=" " stroke="black"  stroke-width="0.5" /><line x1="415.81897988682965" y1="122.76262161369506"   x2="419.13535948456627" y2="120.21787404596895"   id=" " stroke="black"  stroke-width="0.5" /><line x1="423.78567142389954" y1="133.88012677808774"   x2="427.26138485237755" y2="131.55772931364947"   id=" " stroke="black"  stroke-width="0.5" /><line x1="431.0081860358707" y1="145.49487506666404"   x2="441.25393241525967" y2="139.5794906364752"   id=" " stroke="black"  stroke-width="0.5" /><line x1="437.45559580635404" y1="157.55713034412355"   x2="441.2047077224812" y2="155.708272951006"   id=" " stroke="black"  stroke-width="0.5" /><line x1="443.10029193688797" y1="170.01524018153705"   x2="446.96229777562576" y2="168.4155449851678"   id=" " stroke="black"  stroke-width="0.5" /><line x1="447.9181029720519" y1="182.81585703997678"   x2="451.8764650314929" y2="181.4721741807763"   id=" " stroke="black"  stroke-width="0.5" /><line x1="451.8883983053495" y1="195.90416671286857"   x2="463.31604349244475" y2="192.84213841359698"   id=" " stroke="black"  stroke-width="0.5" /><line x1="454.99417652263287" y1="209.2241230488395"   x2="459.09406005308557" y2="208.40860550981625"   id=" " stroke="black"  stroke-width="0.5" /><line x1="457.2221382047678" y1="222.71868794994177"   x2="461.3665809688632" y2="222.1730617089406"   id=" " stroke="black"  stroke-width="0.5" /><line x1="458.56274287778854" y1="236.33007561754562"   x2="462.73399773534436" y2="236.05667712989654"   id=" " stroke="black"  stroke-width="0.5" /><circle cx="250.0" cy="250.0"  r="4.416820374540988" fill="none" stroke="red" id="  "  stroke-width="0.5" />
</svg>
