<svg viewBox="0 0 500 500" xmlns="http://www.w3.org/2000/svg">
<circle cx="250.0" cy="250.0"  r="119.04761904761904" fill="none" stroke="black" id="sphereceleste"  stroke-width="0.5" />
<circle cx="250.0" cy="250.0"  r="181.40512252579057" fill="none" stroke="black" id="capricorne"  stroke-width="0.5" />
<text font-family="Arial, Helvetica, sans-serif" font-size="7" >
<textPath xlink:href="#capricorne" startOffset="23%">Latitude 60</textPath>
 </text><circle cx="250.0" cy="250.0"  r="190.4753786520801" fill="none" stroke="black" id="cercleexterne"  stroke-width="0.5" />
<circle cx="250.0" cy="250.0"  r="184.12619936367742" fill="none" stroke="none" id="cercleinvisible"  stroke-width="0.5" />
<text font-family="Arial, Helvetica, sans-serif" font-size="7" >
<textPath xlink:href="#cercleinvisible" startOffset="59%">230</textPath>
 </text><text font-family="Arial, Helvetica, sans-serif" font-size="7" >
<textPath xlink:href="#cercleinvisible" startOffset="62.3%">220</textPath>
 </text><text font-family="Arial, Helvetica, sans-serif" font-size="7" >
<textPath xlink:href="#cercleinvisible" startOffset="65.3%">210</textPath>
 </text><text font-family="Arial, Helvetica, sans-serif" font-size="7" >
<textPath xlink:href="#cercleinvisible" startOffset="68.4%">200</textPath>
 </text><text font-family="Arial, Helvetica, sans-serif" font-size="7" >
<textPath xlink:href="#cercleinvisible" startOffset="71.3%">190</textPath>
 </text><text font-family="Arial, Helvetica, sans-serif" font-size="7" >
<textPath xlink:href="#cercleinvisible" startOffset="74.3%">Sud</textPath>
 </text><text font-family="Arial, Helvetica, sans-serif" font-size="7" >
<textPath xlink:href="#cercleinvisible" startOffset="77.4%">170</textPath>
 </text><text font-family="Arial, Helvetica, sans-serif" font-size="7" >
<textPath xlink:href="#cercleinvisible" startOffset="80.4%">160</textPath>
 </text><text font-family="Arial, Helvetica, sans-serif" font-size="7" >
<textPath xlink:href="#cercleinvisible" startOffset="83.6%">150</textPath>
 </text><text font-family="Arial, Helvetica, sans-serif" font-size="7" >
<textPath xlink:href="#cercleinvisible" startOffset="86.4%">140</textPath>
 </text><text font-family="Arial, Helvetica, sans-serif" font-size="7" >
<textPath xlink:href="#cercleinvisible" startOffset="90%">130</textPath>
 </text><circle cx="250.0" cy="250.0"  r="78.1253329761519" fill="none" stroke="black" id="cancer"  stroke-width="0.5" />
<circle cx="250.0" cy="250.0"  r="0.7142857142857142" fill="none" stroke="black" id="  "  stroke-width="0.5" />
<path d="
M130.28396492074108 113.70660535631691
A137.4643498070537 137.4643498070537 0 0 0 369.7160350792589 113.70660535631691"  id="horizon" fill="none"  stroke="black"   stroke-width="0.5" />
<path d="
M130.28396492074108 113.70660535631691
A137.4643498070537 137.4643498070537 0 1 0 369.7160350792589 113.70660535631691"  id="horizon" fill="none" stroke="black"   stroke-width="0.5" />
<path d="
M118.60846019820886 124.92369630057247
A142.96292379933584 142.96292379933584 0 1 0 381.39153980179117 124.92369630057247"  id="horizonlarge" fill="none"    stroke="none"   stroke-width="0.5" />
<text font-family="Arial, Helvetica, sans-serif" font-size="7" >
<textPath xlink:href="#horizonlarge" startOffset="14%">250</textPath>
 </text><text font-family="Arial, Helvetica, sans-serif" font-size="7" >
<textPath xlink:href="#horizonlarge" startOffset="22%">Ouest</textPath>
 </text><text font-family="Arial, Helvetica, sans-serif" font-size="7" >
<textPath xlink:href="#horizonlarge" startOffset="32.6%">300</textPath>
 </text><text font-family="Arial, Helvetica, sans-serif" font-size="7" >
<textPath xlink:href="#horizonlarge" startOffset="41%">330</textPath>
 </text><text font-family="Arial, Helvetica, sans-serif" font-size="7" >
<textPath xlink:href="#horizonlarge" startOffset="48.42%">Nord</textPath>
 </text><text font-family="Arial, Helvetica, sans-serif" font-size="7" >
<textPath xlink:href="#horizonlarge" startOffset="57.1%">30</textPath>
 </text><text font-family="Arial, Helvetica, sans-serif" font-size="7" >
<textPath xlink:href="#horizonlarge" startOffset="65.55%">60</textPath>
 </text><text font-family="Arial, Helvetica, sans-serif" font-size="7" >
<textPath xlink:href="#horizonlarge" startOffset="75.5%">Est</textPath>
 </text><text font-family="Arial, Helvetica, sans-serif" font-size="7" >
<textPath xlink:href="#horizonlarge" startOffset="84%">110</textPath>
 </text><path d="
M188.7754659264195 79.23883665754067
A124.41979926602598 124.41979926602598 0 1 0 311.22453407358046 79.23883665754067"  id=" " fill="none" stroke="black"   stroke-width="0.25" />
<circle cx="250.0" cy="192.74759829838598"  r="112.76521814863766" fill="none" stroke="black" id="10"  stroke-width="0.5" />
<text font-family="Arial, Helvetica, sans-serif" font-size="7" >
<textPath xlink:href="#10" startOffset="96.38%">10</textPath>
 </text><text font-family="Arial, Helvetica, sans-serif" font-size="7" >
<textPath xlink:href="#10" startOffset="52.62%">10</textPath>
 </text><circle cx="250.0" cy="197.08263032927914"  r="102.22850804847027" fill="none" stroke="black" id="  "  stroke-width="0.25" />
<circle cx="250.0" cy="200.72718105190432"  r="92.6026087416912" fill="none" stroke="black" id="20"  stroke-width="0.5" />
<text font-family="Arial, Helvetica, sans-serif" font-size="7" >
<textPath xlink:href="#20" startOffset="95%">20</textPath>
 </text><text font-family="Arial, Helvetica, sans-serif" font-size="7" >
<textPath xlink:href="#20" startOffset="53.6%">20</textPath>
 </text><circle cx="250.0" cy="203.80894570295905"  r="83.72662440168185" fill="none" stroke="black" id="  "  stroke-width="0.25" />
<circle cx="250.0" cy="206.42554716851922"  r="75.47316621613824" fill="none" stroke="black" id="30"  stroke-width="0.5" />
<text font-family="Arial, Helvetica, sans-serif" font-size="7" >
<textPath xlink:href="#30" startOffset="93.8%">30</textPath>
 </text><text font-family="Arial, Helvetica, sans-serif" font-size="7" >
<textPath xlink:href="#30" startOffset="54.5%">30</textPath>
 </text><circle cx="250.0" cy="208.6525886086617"  r="67.73963313454543" fill="none" stroke="black" id="  "  stroke-width="0.25" />
<circle cx="250.0" cy="210.54924699590387"  r="60.442060231294334" fill="none" stroke="black" id="40"  stroke-width="0.5" />
<text font-family="Arial, Helvetica, sans-serif" font-size="7" >
<textPath xlink:href="#40" startOffset="92.7%">40</textPath>
 </text><text font-family="Arial, Helvetica, sans-serif" font-size="7" >
<textPath xlink:href="#40" startOffset="55.3%">40</textPath>
 </text><circle cx="250.0" cy="212.16223271478782"  r="53.51068366466406" fill="none" stroke="black" id="  "  stroke-width="0.25" />
<circle cx="250.0" cy="213.52863841167942"  r="46.8866786747401" fill="none" stroke="black" id="50"  stroke-width="0.5" />
<text font-family="Arial, Helvetica, sans-serif" font-size="7" >
<textPath xlink:href="#50" startOffset="91.5%">50</textPath>
 </text><text font-family="Arial, Helvetica, sans-serif" font-size="7" >
<textPath xlink:href="#50" startOffset="55.7%">50</textPath>
 </text><circle cx="250.0" cy="214.67801679172732"  r="40.519714506905075" fill="none" stroke="black" id="  "  stroke-width="0.25" />
<circle cx="250.0" cy="215.63391254823657"  r="34.366087451763434" fill="none" stroke="black" id="60"  stroke-width="0.5" />
<circle cx="250.0" cy="216.41500038927035"  r="28.38726831209727" fill="none" stroke="black" id="  "  stroke-width="0.25" />
<circle cx="250.0" cy="217.03593323327843"  r="22.548749680302056" fill="none" stroke="black" id="70"  stroke-width="0.5" />
<circle cx="250.0" cy="217.50797262139935"  r="16.819110999148762" fill="none" stroke="black" id="  "  stroke-width="0.25" />
<circle cx="250.0" cy="217.83945148960314"  r="11.169241283198652" fill="none" stroke="black" id="80"  stroke-width="0.5" />
<circle cx="250.0" cy="218.036104076076"  r="5.571674180716881" fill="none" stroke="black" id="  "  stroke-width="0.25" />
<path d="
M69.14254437265674 235.9145741065223
A203.2662558267147 203.2662558267147 0 0 0 430.85745562734326 235.9145741065223"  id="moins18" fill="none"  stroke="black"   stroke-width="0.5" />
<path d="
M69.30307791369066 233.98623007748182
A202.24992454758112 202.24992454758112 0 0 0 430.6969220863093 233.98623007748182"  id="moins18p" fill="none"    stroke="none"   stroke-width="0.5" />
<text font-family="Arial, Helvetica, sans-serif" font-size="7" >
<textPath xlink:href="#moins18p" startOffset="2%">-18</textPath>
 </text><text font-family="Arial, Helvetica, sans-serif" font-size="7" >
<textPath xlink:href="#moins18p" startOffset="95%">-18</textPath>
 </text><path d="
M369.04761904761904 249.99999999999997
A238.09523809523807 238.09523809523807 0 0 0 130.95238095238096 249.99999999999997"  id=" " fill="none"  stroke="black"   stroke-width="0.5" />
<path d="
M373.99818382081594 240.60497936776574
A239.0047232246065 239.0047232246065 0 0 0 261.1600946770985 217.38752490208913"  id=" " fill="none"  stroke="black"   stroke-width="0.25" />
<path d="
M238.9306914398379 219.33020929764137
A239.0047232246065 239.0047232246065 0 0 0 136.35768334225133 258.61038344914215"  id=" " fill="none"  stroke="black"   stroke-width="0.25" />
<path d="
M363.64231665774867 258.61038344914215
A239.0047232246065 239.0047232246065 0 0 0 261.0693085601621 219.33020929764137"  id=" " fill="none"  stroke="black"   stroke-width="0.25" />
<path d="
M238.83990532290147 217.38752490208913
A239.0047232246065 239.0047232246065 0 0 0 126.00181617918409 240.60497936776574"  id=" " fill="none"  stroke="black"   stroke-width="0.25" />
<path d="
M378.38601717600307 230.39498725305475
A241.76824092517734 241.76824092517734 0 0 0 261.07761124777204 216.41169804956536"  id=" " fill="none"  stroke="black"   stroke-width="0.5" />
<path d="
M239.10121135341825 220.28247356880047
A241.76824092517734 241.76824092517734 0 0 0 142.1269601766219 266.4726063422454"  id=" " fill="none"  stroke="black"   stroke-width="0.5" />
<path d="
M357.8730398233781 266.4726063422454
A241.76824092517734 241.76824092517734 0 0 0 260.89878864658175 220.28247356880047"  id=" " fill="none"  stroke="black"   stroke-width="0.5" />
<path d="
M238.92238875222796 216.41169804956536
A241.76824092517734 241.76824092517734 0 0 0 121.6139828239969 230.39498725305475"  id=" " fill="none"  stroke="black"   stroke-width="0.5" />
<path d="
M382.0841116173228 219.34977523218254
A246.49432866906736 246.49432866906736 0 0 0 260.9091138256056 215.44295688658664"  id=" " fill="none"  stroke="black"   stroke-width="0.25" />
<path d="
M239.35232847507874 221.21273504419594
A246.49432866906736 246.49432866906736 0 0 0 148.18469961492775 273.62632267722387"  id=" " fill="none"  stroke="black"   stroke-width="0.25" />
<path d="
M351.81530038507225 273.62632267722387
A246.49432866906736 246.49432866906736 0 0 0 260.64767152492124 221.21273504419594"  id=" " fill="none"  stroke="black"   stroke-width="0.25" />
<path d="
M239.09088617439446 215.44295688658664
A246.49432866906736 246.49432866906736 0 0 0 117.91588838267722 219.34977523218254"  id=" " fill="none"  stroke="black"   stroke-width="0.25" />
<path d="
M384.94514868904497 207.4642812149556
A253.37566011331236 253.37566011331236 0 0 0 260.65488809898864 214.48903204715492"  id=" " fill="none"  stroke="black"   stroke-width="0.5" />
<path d="
M239.6812525472207 222.11442538988211
A253.37566011331236 253.37566011331236 0 0 0 154.46865330344536 280.1121940115444"  id=" " fill="none"  stroke="black"   stroke-width="0.5" />
<path d="
M345.53134669655464 280.1121940115444
A253.37566011331236 253.37566011331236 0 0 0 260.3187474527793 222.11442538988211"  id=" " fill="none"  stroke="black"   stroke-width="0.5" />
<path d="
M239.34511190101134 214.48903204715492
A253.37566011331236 253.37566011331236 0 0 0 115.05485131095503 207.4642812149556"  id=" " fill="none"  stroke="black"   stroke-width="0.5" />
<path d="
M386.80110724509154 194.7550236340864
A262.70902832440277 262.70902832440277 0 0 0 260.315943183366 213.55771503345957"  id=" " fill="none"  stroke="black"   stroke-width="0.25" />
<path d="
M240.08470787068455 222.98133177143006
A262.70902832440277 262.70902832440277 0 0 0 160.92795272375605 285.9703458965694"  id=" " fill="none"  stroke="black"   stroke-width="0.25" />
<path d="
M339.07204727624395 285.9703458965694
A262.70902832440277 262.70902832440277 0 0 0 259.91529212931545 222.98133177143006"  id=" " fill="none"  stroke="black"   stroke-width="0.25" />
<path d="
M239.68405681663396 213.55771503345957
A262.70902832440277 262.70902832440277 0 0 0 113.19889275490848 194.7550236340864"  id=" " fill="none"  stroke="black"   stroke-width="0.25" />
<path d="
M387.46434980705374 181.26782509647313
A274.9286996141075 274.9286996141075 0 0 0 259.89403475681513 212.65678546975977"  id=" " fill="none"  stroke="black"   stroke-width="0.5" />
<path d="
M240.55897866501292 223.80762264956698
A274.9286996141075 274.9286996141075 0 0 0 167.52139011576776 291.2393049421161"  id=" " fill="none"  stroke="black"   stroke-width="0.5" />
<path d="
M332.47860988423224 291.2393049421161
A274.9286996141075 274.9286996141075 0 0 0 259.44102133498706 223.80762264956698"  id=" " fill="none"  stroke="black"   stroke-width="0.5" />
<path d="
M240.10596524318487 212.65678546975977
A274.9286996141075 274.9286996141075 0 0 0 112.53565019294626 181.26782509647313"  id=" " fill="none"  stroke="black"   stroke-width="0.5" />
<path d="
M386.73091639222764 167.08671193784932
A290.66061637177523 290.66061637177523 0 0 0 259.3916800747023 211.7939328007937"  id=" " fill="none"  stroke="black"   stroke-width="0.25" />
<path d="
M241.09995360684292 224.58786797363527
A290.66061637177523 290.66061637177523 0 0 0 174.2158895044434 295.9552963576065"  id=" " fill="none"  stroke="black"   stroke-width="0.25" />
<path d="
M325.7841104955566 295.9552963576065
A290.66061637177523 290.66061637177523 0 0 0 258.9000463931571 224.58786797363527"  id=" " fill="none"  stroke="black"   stroke-width="0.25" />
<path d="
M240.60831992529765 211.7939328007937
A290.66061637177523 290.66061637177523 0 0 0 113.26908360777239 167.08671193784932"  id=" " fill="none"  stroke="black"   stroke-width="0.25" />
<path d="
M384.3868766433985 152.34352987760883
A310.8112593648282 310.8112593648282 0 0 0 258.8121636640204 210.97667345145973"  id=" " fill="none"  stroke="black"   stroke-width="0.5" />
<path d="
M241.70316893731604 225.31705439157565
A310.8112593648282 310.8112593648282 0 0 0 180.98517133672328 300.15180590320165"  id=" " fill="none"  stroke="black"   stroke-width="0.5" />
<path d="
M319.0148286632767 300.15180590320165
A310.8112593648282 310.8112593648282 0 0 0 258.29683106268396 225.31705439157565"  id=" " fill="none"  stroke="black"   stroke-width="0.5" />
<path d="
M241.1878363359796 210.97667345145973
A310.8112593648282 310.8112593648282 0 0 0 115.61312335660145 152.34352987760883"  id=" " fill="none"  stroke="black"   stroke-width="0.5" />
<path d="
M380.21860968524453 137.22737596708788
A336.71751485073685 336.71751485073685 0 0 0 258.1595326364478 210.21226472140032"  id=" " fill="none"  stroke="black"   stroke-width="0.25" />
<path d="
M242.363849673146 225.99059613486574
A336.71751485073685 336.71751485073685 0 0 0 187.80860119910918 303.85933125846054"  id=" " fill="none"  stroke="black"   stroke-width="0.25" />
<path d="
M312.19139880089085 303.85933125846054
A336.71751485073685 336.71751485073685 0 0 0 257.63615032685396 225.99059613486574"  id=" " fill="none"  stroke="black"   stroke-width="0.25" />
<path d="
M241.84046736355222 210.21226472140032
A336.71751485073685 336.71751485073685 0 0 0 119.78139031475547 137.22737596708788"  id=" " fill="none"  stroke="black"   stroke-width="0.25" />
<path d="
M374.02769947389766 121.99238978732902
A370.4104349667648 370.4104349667648 0 0 0 257.43858075483837 209.50761692595268"  id=" " fill="none"  stroke="black"   stroke-width="0.5" />
<path d="
M243.0769485939307 226.60434225168424
A370.4104349667648 370.4104349667648 0 0 0 194.67020609386412 307.10526536835937"  id=" " fill="none"  stroke="black"   stroke-width="0.5" />
<path d="
M305.3297939061359 307.10526536835937
A370.4104349667648 370.4104349667648 0 0 0 256.9230514060693 226.60434225168424"  id=" " fill="none"  stroke="black"   stroke-width="0.5" />
<path d="
M242.56141924516166 209.50761692595268
A370.4104349667648 370.4104349667648 0 0 0 125.97230052610237 121.99238978732902"  id=" " fill="none"  stroke="black"   stroke-width="0.5" />
<path d="
M363.4069229720851 108.41367191497389
A415.1063799097852 415.1063799097852 0 0 0 256.6548206384797 208.86920550011337"  id=" " fill="none"  stroke="black"   stroke-width="0.25" />
<path d="
M243.8371828073255 227.15458085488666
A415.1063799097852 415.1063799097852 0 0 0 201.55783865738135 309.91386845705125"  id=" " fill="none"  stroke="black"   stroke-width="0.25" />
<path d="
M298.44216134261865 309.91386845705125
A415.1063799097852 415.1063799097852 0 0 0 256.1628171926745 227.15458085488666"  id=" " fill="none"  stroke="black"   stroke-width="0.25" />
<path d="
M243.3451793615203 208.86920550011337
A415.1063799097852 415.1063799097852 0 0 0 136.5930770279149 108.41367191497389"  id=" " fill="none"  stroke="black"   stroke-width="0.25" />
<path d="
M348.78885409659 97.85342335471441
A476.19047619047603 476.19047619047603 0 0 0 255.81444379228333 208.30298494120743"  id=" " fill="none"  stroke="black"   stroke-width="0.5" />
<path d="
M244.63906781166452 227.63804102659066
A476.19047619047603 476.19047619047603 0 0 0 208.462469003093 312.3062964953605"  id=" " fill="none"  stroke="black"   stroke-width="0.5" />
<path d="
M291.53753099690704 312.3062964953605
A476.19047619047603 476.19047619047603 0 0 0 255.36093218833548 227.63804102659066"  id=" " fill="none"  stroke="black"   stroke-width="0.5" />
<path d="
M244.18555620771667 208.30298494120743
A476.19047619047603 476.19047619047603 0 0 0 151.21114590341 97.85342335471441"  id=" " fill="none"  stroke="black"   stroke-width="0.5" />
<path d="
M333.40261173308227 88.90430535021181
A563.3813293220234 563.3813293220234 0 0 0 254.92426848480656 207.8143065663685"  id=" " fill="none"  stroke="black"   stroke-width="0.25" />
<path d="
M245.4769490811599 228.05189298162148
A563.3813293220234 563.3813293220234 0 0 0 215.3775845416752 314.3006624551764"  id=" " fill="none"  stroke="black"   stroke-width="0.25" />
<path d="
M284.6224154583248 314.3006624551764
A563.3813293220234 563.3813293220234 0 0 0 254.5230509188401 228.05189298162148"  id=" " fill="none"  stroke="black"   stroke-width="0.25" />
<path d="
M245.07573151519344 207.8143065663685
A563.3813293220234 563.3813293220234 0 0 0 166.59738826691776 88.90430535021181"  id=" " fill="none"  stroke="black"   stroke-width="0.25" />
<path d="
M317.4064390124437 81.58328331706869
A696.1439048007348 696.1439048007348 0 0 0 253.99167586691377 207.40784209239766"  id=" " fill="none"  stroke="black"   stroke-width="0.5" />
<path d="
M246.3450312913303 228.39374704075263
A696.1439048007348 696.1439048007348 0 0 0 222.2986795004704 315.9121131686315"  id=" " fill="none"  stroke="black"   stroke-width="0.5" />
<path d="
M277.70132049952963 315.9121131686315
A696.1439048007348 696.1439048007348 0 0 0 253.6549687086697 228.39374704075263"  id=" " fill="none"  stroke="black"   stroke-width="0.5" />
<path d="
M246.00832413308623 207.40784209239766
A696.1439048007348 696.1439048007348 0 0 0 182.59356098755632 81.58328331706869"  id=" " fill="none"  stroke="black"   stroke-width="0.5" />
<path d="
M300.9435513002656 75.89493672062738
A919.9293583705413 919.9293583705413 0 0 0 253.0245351014753 207.08751500065796"  id=" " fill="none"  stroke="black"   stroke-width="0.25" />
<path d="
M247.23740538162954 228.6616519043487
A919.9293583705413 919.9293583705413 0 0 0 229.2228175023616 317.1529094704979"  id=" " fill="none"  stroke="black"   stroke-width="0.25" />
<path d="
M270.7771824976384 317.1529094704979
A919.9293583705413 919.9293583705413 0 0 0 252.76259461837046 228.6616519043487"  id=" " fill="none"  stroke="black"   stroke-width="0.25" />
<path d="
M246.9754648985247 207.08751500065796
A919.9293583705413 919.9293583705413 0 0 0 199.0564486997344 75.89493672062738"  id=" " fill="none"  stroke="black"   stroke-width="0.25" />
<path d="
M284.14362875317113 71.8370658802385
A1371.1358293199119 1371.1358293199119 0 0 0 252.0311186471225 206.85644152496792"  id=" " fill="none"  stroke="black"   stroke-width="0.5" />
<path d="
M248.14807371866988 228.85409264991716
A1371.1358293199119 1371.1358293199119 0 0 0 236.14825220663283 318.0325009120687"  id=" " fill="none"  stroke="black"   stroke-width="0.5" />
<path d="
M263.85174779336717 318.0325009120687
A1371.1358293199119 1371.1358293199119 0 0 0 251.85192628133012 228.85409264991716"  id=" " fill="none"  stroke="black"   stroke-width="0.5" />
<path d="
M247.9688813528775 206.85644152496792
A1371.1358293199119 1371.1358293199119 0 0 0 215.85637124682884 71.8370658802385"  id=" " fill="none"  stroke="black"   stroke-width="0.5" />
<path d="
M267.12541029139385 69.40504214970696
A2731.8364870642527 2731.8364870642527 0 0 0 251.02000918716791 206.7168828969243"  id=" " fill="none"  stroke="black"   stroke-width="0.25" />
<path d="
M249.07097367742386 228.969988805147
A2731.8364870642527 2731.8364870642527 0 0 0 243.0740925033717 318.5575890019575"  id=" " fill="none"  stroke="black"   stroke-width="0.25" />
<path d="
M256.92590749662827 318.5575890019575
A2731.8364870642527 2731.8364870642527 0 0 0 250.92902632257614 228.969988805147"  id=" " fill="none"  stroke="black"   stroke-width="0.25" />
<path d="
M248.97999081283209 206.7168828969243
A2731.8364870642527 2731.8364870642527 0 0 0 232.87458970860612 69.40504214970696"  id=" " fill="none"  stroke="black"   stroke-width="0.25" />
<line x1="250.0" y1="68.59487747420943"   x2="250.0" y2="328.12533297615187"   id=" " stroke="black"  stroke-width="0.5" /><circle cx="250.0" cy="250.0"  r="209.01024986667176" fill="none" stroke="red" id="  "  stroke-width="0.5" />
<circle cx="250.0" cy="250.0"  r="211.93639336480516" fill="none" stroke="none" id="basechiffre"  stroke-width="0.5" />
<circle cx="250.0" cy="250.0"  r="220.8410187270494" fill="none" stroke="red" id="  "  stroke-width="0.5" />
<text font-family="Arial, Helvetica, sans-serif" font-size="7" >
<textPath xlink:href="#basechiffre" startOffset="-0.27%">06</textPath>
 </text><text font-family="Arial, Helvetica, sans-serif" font-size="7" >
<textPath xlink:href="#basechiffre" startOffset="99.65%">0</textPath>
 </text><text font-family="Arial, Helvetica, sans-serif" font-size="7" >
<textPath xlink:href="#basechiffre" startOffset="3.896666666666667%">05</textPath>
 </text><text font-family="Arial, Helvetica, sans-serif" font-size="7" >
<textPath xlink:href="#basechiffre" startOffset="8.063333333333334%">04</textPath>
 </text><text font-family="Arial, Helvetica, sans-serif" font-size="7" >
<textPath xlink:href="#basechiffre" startOffset="12.23%">03</textPath>
 </text><text font-family="Arial, Helvetica, sans-serif" font-size="7" >
<textPath xlink:href="#basechiffre" startOffset="16.39666666666667%">02</textPath>
 </text><text font-family="Arial, Helvetica, sans-serif" font-size="7" >
<textPath xlink:href="#basechiffre" startOffset="20.563333333333333%">01</textPath>
 </text><text font-family="Arial, Helvetica, sans-serif" font-size="7" >
<textPath xlink:href="#basechiffre" startOffset="24.73%">24</textPath>
 </text><text font-family="Arial, Helvetica, sans-serif" font-size="7" >
<textPath xlink:href="#basechiffre" startOffset="28.89666666666667%">23</textPath>
 </text><text font-family="Arial, Helvetica, sans-serif" font-size="7" >
<textPath xlink:href="#basechiffre" startOffset="33.06333333333333%">22</textPath>
 </text><text font-family="Arial, Helvetica, sans-serif" font-size="7" >
<textPath xlink:href="#basechiffre" startOffset="37.23%">21</textPath>
 </text><text font-family="Arial, Helvetica, sans-serif" font-size="7" >
<textPath xlink:href="#basechiffre" startOffset="41.39666666666666%">20</textPath>
 </text><text font-family="Arial, Helvetica, sans-serif" font-size="7" >
<textPath xlink:href="#basechiffre" startOffset="45.56333333333333%">19</textPath>
 </text><text font-family="Arial, Helvetica, sans-serif" font-size="7" >
<textPath xlink:href="#basechiffre" startOffset="49.73%">18</textPath>
 </text><text font-family="Arial, Helvetica, sans-serif" font-size="7" >
<textPath xlink:href="#basechiffre" startOffset="53.89666666666666%">17</textPath>
 </text><text font-family="Arial, Helvetica, sans-serif" font-size="7" >
<textPath xlink:href="#basechiffre" startOffset="58.06333333333333%">16</textPath>
 </text><text font-family="Arial, Helvetica, sans-serif" font-size="7" >
<textPath xlink:href="#basechiffre" startOffset="62.23%">15</textPath>
 </text><text font-family="Arial, Helvetica, sans-serif" font-size="7" >
<textPath xlink:href="#basechiffre" startOffset="66.39666666666668%">14</textPath>
 </text><text font-family="Arial, Helvetica, sans-serif" font-size="7" >
<textPath xlink:href="#basechiffre" startOffset="70.56333333333333%">13</textPath>
 </text><text font-family="Arial, Helvetica, sans-serif" font-size="7" >
<textPath xlink:href="#basechiffre" startOffset="74.73%">12</textPath>
 </text><text font-family="Arial, Helvetica, sans-serif" font-size="7" >
<textPath xlink:href="#basechiffre" startOffset="78.89666666666668%">11</textPath>
 </text><text font-family="Arial, Helvetica, sans-serif" font-size="7" >
<textPath xlink:href="#basechiffre" startOffset="83.06333333333333%">10</textPath>
 </text><text font-family="Arial, Helvetica, sans-serif" font-size="7" >
<textPath xlink:href="#basechiffre" startOffset="87.23%">09</textPath>
 </text><text font-family="Arial, Helvetica, sans-serif" font-size="7" >
<textPath xlink:href="#basechiffre" startOffset="91.39666666666668%">08</textPath>
 </text><text font-family="Arial, Helvetica, sans-serif" font-size="7" >
<textPath xlink:href="#basechiffre" startOffset="95.56333333333333%">07</textPath>
 </text><line x1="459.01024986667176" y1="250.0"   x2="470.8410187270494" y2="250.0"   id=" " stroke="black"  stroke-width="0.5" /><line x1="458.56274287778854" y1="263.66992438245444"   x2="462.73399773534436" y2="263.9433228701035"   id=" " stroke="black"  stroke-width="0.5" /><line x1="457.2221382047678" y1="277.2813120500582"   x2="461.3665809688632" y2="277.8269382910594"   id=" " stroke="black"  stroke-width="0.5" /><line x1="454.99417652263287" y1="290.7758769511604"   x2="459.0940600530856" y2="291.59139449018363"   id=" " stroke="black"  stroke-width="0.5" /><line x1="451.88839830534954" y1="304.09583328713126"   x2="463.3160434924448" y2="307.1578615864028"   id=" " stroke="black"  stroke-width="0.5" /><line x1="447.9181029720519" y1="317.18414296002317"   x2="451.8764650314929" y2="318.5278258192236"   id=" " stroke="black"  stroke-width="0.5" /><line x1="443.10029193688797" y1="329.984759818463"   x2="446.9622977756257" y2="331.58445501483226"   id=" " stroke="black"  stroke-width="0.5" /><line x1="437.4555958063541" y1="342.44286965587645"   x2="441.2047077224812" y2="344.29172704899395"   id=" " stroke="black"  stroke-width="0.5" /><line x1="431.00818603587084" y1="354.5051249333359"   x2="441.2539324152597" y2="360.4205093635247"   id=" " stroke="black"  stroke-width="0.5" /><line x1="423.78567142389966" y1="366.1198732219121"   x2="427.26138485237766" y2="368.44227068635035"   id=" " stroke="black"  stroke-width="0.5" /><line x1="415.8189798868297" y1="377.23737838630484"   x2="419.1353594845663" y2="379.782125954031"   id=" " stroke="black"  stroke-width="0.5" /><line x1="407.1422260208914" y1="387.81003356260976"   x2="410.2850705413093" y2="390.56623423386196"   id=" " stroke="black"  stroke-width="0.5" /><line x1="397.7925650182183" y1="397.7925650182183"   x2="406.15818190604193" y2="406.15818190604193"   id=" " stroke="black"  stroke-width="0.5" /><line x1="387.81003356260976" y1="407.1422260208914"   x2="390.56623423386196" y2="410.2850705413093"   id=" " stroke="black"  stroke-width="0.5" /><line x1="377.23737838630484" y1="415.8189798868297"   x2="379.782125954031" y2="419.1353594845663"   id=" " stroke="black"  stroke-width="0.5" /><line x1="366.11987322191214" y1="423.78567142389966"   x2="368.4422706863504" y2="427.26138485237766"   id=" " stroke="black"  stroke-width="0.5" /><line x1="354.5051249333359" y1="431.00818603587084"   x2="360.42050936352473" y2="441.25393241525967"   id=" " stroke="black"  stroke-width="0.5" /><line x1="342.44286965587645" y1="437.4555958063541"   x2="344.29172704899395" y2="441.2047077224812"   id=" " stroke="black"  stroke-width="0.5" /><line x1="329.984759818463" y1="443.10029193688797"   x2="331.58445501483226" y2="446.9622977756257"   id=" " stroke="black"  stroke-width="0.5" /><line x1="317.1841429600232" y1="447.9181029720519"   x2="318.52782581922366" y2="451.8764650314929"   id=" " stroke="black"  stroke-width="0.5" /><line x1="304.09583328713126" y1="451.88839830534954"   x2="307.1578615864028" y2="463.3160434924448"   id=" " stroke="black"  stroke-width="0.5" /><line x1="290.77587695116046" y1="454.99417652263287"   x2="291.59139449018363" y2="459.0940600530856"   id=" " stroke="black"  stroke-width="0.5" /><line x1="277.28131205005826" y1="457.2221382047678"   x2="277.8269382910594" y2="461.3665809688632"   id=" " stroke="black"  stroke-width="0.5" /><line x1="263.6699243824545" y1="458.56274287778854"   x2="263.94332287010354" y2="462.73399773534436"   id=" " stroke="black"  stroke-width="0.5" /><line x1="250.0" y1="459.01024986667176"   x2="250.0" y2="470.8410187270494"   id=" " stroke="black"  stroke-width="0.5" /><line x1="236.33007561754556" y1="458.56274287778854"   x2="236.05667712989646" y2="462.73399773534436"   id=" " stroke="black"  stroke-width="0.5" /><line x1="222.7186879499418" y1="457.2221382047678"   x2="222.17306170894062" y2="461.3665809688632"   id=" " stroke="black"  stroke-width="0.5" /><line x1="209.2241230488396" y1="454.99417652263287"   x2="208.40860550981637" y2="459.0940600530856"   id=" " stroke="black"  stroke-width="0.5" /><line x1="195.90416671286877" y1="451.88839830534954"   x2="192.84213841359718" y2="463.3160434924448"   id=" " stroke="black"  stroke-width="0.5" /><line x1="182.81585703997683" y1="447.9181029720519"   x2="181.47217418077636" y2="451.8764650314929"   id=" " stroke="black"  stroke-width="0.5" /><line x1="170.01524018153708" y1="443.10029193688797"   x2="168.4155449851678" y2="446.96229777562576"   id=" " stroke="black"  stroke-width="0.5" /><line x1="157.5571303441236" y1="437.4555958063541"   x2="155.70827295100605" y2="441.2047077224812"   id=" " stroke="black"  stroke-width="0.5" /><line x1="145.49487506666418" y1="431.00818603587084"   x2="139.57949063647536" y2="441.2539324152597"   id=" " stroke="black"  stroke-width="0.5" /><line x1="133.88012677808786" y1="423.78567142389966"   x2="131.55772931364962" y2="427.26138485237766"   id=" " stroke="black"  stroke-width="0.5" /><line x1="122.76262161369513" y1="415.8189798868297"   x2="120.21787404596901" y2="419.1353594845663"   id=" " stroke="black"  stroke-width="0.5" /><line x1="112.18996643739024" y1="407.1422260208914"   x2="109.43376576613804" y2="410.2850705413093"   id=" " stroke="black"  stroke-width="0.5" /><line x1="102.20743498178172" y1="397.7925650182183"   x2="93.84181809395804" y2="406.15818190604193"   id=" " stroke="black"  stroke-width="0.5" /><line x1="92.85777397910857" y1="387.81003356260976"   x2="89.71492945869073" y2="390.56623423386196"   id=" " stroke="black"  stroke-width="0.5" /><line x1="84.18102011317029" y1="377.2373783863049"   x2="80.8646405154337" y2="379.782125954031"   id=" " stroke="black"  stroke-width="0.5" /><line x1="76.21432857610037" y1="366.11987322191214"   x2="72.73861514762237" y2="368.4422706863504"   id=" " stroke="black"  stroke-width="0.5" /><line x1="68.99181396412916" y1="354.5051249333359"   x2="58.746067584740274" y2="360.4205093635247"   id=" " stroke="black"  stroke-width="0.5" /><line x1="62.54440419364593" y1="342.4428696558765"   x2="58.795292277518826" y2="344.29172704899406"   id=" " stroke="black"  stroke-width="0.5" /><line x1="56.89970806311206" y1="329.98475981846303"   x2="53.0377022243743" y2="331.5844550148323"   id=" " stroke="black"  stroke-width="0.5" /><line x1="52.081897027948145" y1="317.1841429600232"   x2="48.1235349685071" y2="318.52782581922366"   id=" " stroke="black"  stroke-width="0.5" /><line x1="48.11160169465049" y1="304.0958332871313"   x2="36.68395650755522" y2="307.1578615864029"   id=" " stroke="black"  stroke-width="0.5" /><line x1="45.0058234773671" y1="290.7758769511604"   x2="40.9059399469144" y2="291.59139449018363"   id=" " stroke="black"  stroke-width="0.5" /><line x1="42.777861795232155" y1="277.2813120500583"   x2="38.63341903113678" y2="277.8269382910595"   id=" " stroke="black"  stroke-width="0.5" /><line x1="41.43725712221146" y1="263.66992438245444"   x2="37.26600226465567" y2="263.94332287010354"   id=" " stroke="black"  stroke-width="0.5" /><line x1="40.98975013332824" y1="250.00000000000003"   x2="29.158981272950598" y2="250.00000000000003"   id=" " stroke="black"  stroke-width="0.5" /><line x1="41.43725712221146" y1="236.33007561754562"   x2="37.26600226465567" y2="236.0566771298965"   id=" " stroke="black"  stroke-width="0.5" /><line x1="42.777861795232155" y1="222.71868794994174"   x2="38.63341903113678" y2="222.1730617089406"   id=" " stroke="black"  stroke-width="0.5" /><line x1="45.00582347736707" y1="209.22412304883966"   x2="40.90593994691437" y2="208.40860550981643"   id=" " stroke="black"  stroke-width="0.5" /><line x1="48.11160169465046" y1="195.90416671286874"   x2="36.683956507555195" y2="192.84213841359718"   id=" " stroke="black"  stroke-width="0.5" /><line x1="52.081897027948145" y1="182.81585703997683"   x2="48.12353496850707" y2="181.4721741807764"   id=" " stroke="black"  stroke-width="0.5" /><line x1="56.89970806311206" y1="170.01524018153702"   x2="53.03770222437427" y2="168.41554498516774"   id=" " stroke="black"  stroke-width="0.5" /><line x1="62.54440419364593" y1="157.55713034412355"   x2="58.795292277518826" y2="155.708272951006"   id=" " stroke="black"  stroke-width="0.5" /><line x1="68.99181396412914" y1="145.49487506666418"   x2="58.746067584740246" y2="139.57949063647538"   id=" " stroke="black"  stroke-width="0.5" /><line x1="76.21432857610029" y1="133.88012677808794"   x2="72.73861514762228" y2="131.5577293136497"   id=" " stroke="black"  stroke-width="0.5" /><line x1="84.18102011317029" y1="122.76262161369513"   x2="80.86464051543368" y2="120.21787404596901"   id=" " stroke="black"  stroke-width="0.5" /><line x1="92.85777397910857" y1="112.18996643739024"   x2="89.7149294586907" y2="109.43376576613804"   id=" " stroke="black"  stroke-width="0.5" /><line x1="102.20743498178163" y1="102.2074349817818"   x2="93.84181809395795" y2="93.84181809395812"   id=" " stroke="black"  stroke-width="0.5" /><line x1="112.18996643739021" y1="92.85777397910857"   x2="109.43376576613801" y2="89.71492945869073"   id=" " stroke="black"  stroke-width="0.5" /><line x1="122.76262161369509" y1="84.18102011317032"   x2="120.21787404596898" y2="80.86464051543373"   id=" " stroke="black"  stroke-width="0.5" /><line x1="133.8801267780879" y1="76.21432857610034"   x2="131.55772931364965" y2="72.73861514762231"   id=" " stroke="black"  stroke-width="0.5" /><line x1="145.49487506666404" y1="68.99181396412922"   x2="139.5794906364752" y2="58.7460675847403"   id=" " stroke="black"  stroke-width="0.5" /><line x1="157.55713034412355" y1="62.54440419364593"   x2="155.708272951006" y2="58.795292277518826"   id=" " stroke="black"  stroke-width="0.5" /><line x1="170.01524018153708" y1="56.89970806311206"   x2="168.4155449851678" y2="53.03770222437427"   id=" " stroke="black"  stroke-width="0.5" /><line x1="182.81585703997678" y1="52.081897027948145"   x2="181.47217418077634" y2="48.1235349685071"   id=" " stroke="black"  stroke-width="0.5" /><line x1="195.90416671286877" y1="48.11160169465046"   x2="192.84213841359718" y2="36.683956507555195"   id=" " stroke="black"  stroke-width="0.5" /><line x1="209.2241230488395" y1="45.00582347736713"   x2="208.40860550981628" y2="40.90593994691443"   id=" " stroke="black"  stroke-width="0.5" /><line x1="222.7186879499418" y1="42.777861795232155"   x2="222.17306170894062" y2="38.63341903113678"   id=" " stroke="black"  stroke-width="0.5" /><line x1="236.33007561754565" y1="41.43725712221146"   x2="236.05667712989657" y2="37.26600226465567"   id=" " stroke="black"  stroke-width="0.5" /><line x1="249.99999999999997" y1="40.98975013332824"   x2="249.99999999999997" y2="29.158981272950598"   id=" " stroke="black"  stroke-width="0.5" /><line x1="263.66992438245427" y1="41.437257122211435"   x2="263.9433228701034" y2="37.26600226465564"   id=" " stroke="black"  stroke-width="0.5" /><line x1="277.28131205005815" y1="42.77786179523213"   x2="277.8269382910593" y2="38.633419031136754"   id=" " stroke="black"  stroke-width="0.5" /><line x1="290.77587695116046" y1="45.0058234773671"   x2="291.59139449018363" y2="40.9059399469144"   id=" " stroke="black"  stroke-width="0.5" /><line x1="304.09583328713114" y1="48.11160169465043"   x2="307.15786158640276" y2="36.683956507555195"   id=" " stroke="black"  stroke-width="0.5" /><line x1="317.18414296002317" y1="52.081897027948145"   x2="318.5278258192236" y2="48.12353496850707"   id=" " stroke="black"  stroke-width="0.5" /><line x1="329.98475981846286" y1="56.89970806311203"   x2="331.58445501483214" y2="53.03770222437424"   id=" " stroke="black"  stroke-width="0.5" /><line x1="342.4428696558764" y1="62.5444041936459"   x2="344.29172704899395" y2="58.7952922775188"   id=" " stroke="black"  stroke-width="0.5" /><line x1="354.5051249333359" y1="68.9918139641292"   x2="360.42050936352473" y2="58.7460675847403"   id=" " stroke="black"  stroke-width="0.5" /><line x1="366.11987322191203" y1="76.21432857610029"   x2="368.4422706863503" y2="72.73861514762228"   id=" " stroke="black"  stroke-width="0.5" /><line x1="377.2373783863047" y1="84.18102011317015"   x2="379.7821259540308" y2="80.86464051543354"   id=" " stroke="black"  stroke-width="0.5" /><line x1="387.81003356260976" y1="92.85777397910857"   x2="390.566234233862" y2="89.71492945869076"   id=" " stroke="black"  stroke-width="0.5" /><line x1="397.7925650182183" y1="102.20743498178169"   x2="406.15818190604193" y2="93.84181809395801"   id=" " stroke="black"  stroke-width="0.5" /><line x1="407.1422260208915" y1="112.18996643739027"   x2="410.2850705413093" y2="109.43376576613807"   id=" " stroke="black"  stroke-width="0.5" /><line x1="415.81897988682965" y1="122.76262161369506"   x2="419.13535948456627" y2="120.21787404596895"   id=" " stroke="black"  stroke-width="0.5" /><line x1="423.78567142389954" y1="133.88012677808774"   x2="427.26138485237755" y2="131.55772931364947"   id=" " stroke="black"  stroke-width="0.5" /><line x1="431.0081860358707" y1="145.49487506666404"   x2="441.25393241525967" y2="139.5794906364752"   id=" " stroke="black"  stroke-width="0.5" /><line x1="437.45559580635404" y1="157.55713034412355"   x2="441.2047077224812" y2="155.708272951006"   id=" " stroke="black"  stroke-width="0.5" /><line x1="443.10029193688797" y1="170.01524018153705"   x2="446.96229777562576" y2="168.4155449851678"   id=" " stroke="black"  stroke-width="0.5" /><line x1="447.9181029720519" y1="182.81585703997678"   x2="451.8764650314929" y2="181.4721741807763"   id=" " stroke="black"  stroke-width="0.5" /><line x1="451.8883983053495" y1="195.90416671286857"   x2="463.31604349244475" y2="192.84213841359698"   id=" " stroke="black"  stroke-width="0.5" /><line x1="454.99417652263287" y1="209.2241230488395"   x2="459.09406005308557" y2="208.40860550981625"   id=" " stroke="black"  stroke-width="0.5" /><line x1="457.2221382047678" y1="222.71868794994177"   x2="461.3665809688632" y2="222.1730617089406"   id=" " stroke="black"  stroke-width="0.5" /><line x1="458.56274287778854" y1="236.33007561754562"   x2="462.73399773534436" y2="236.05667712989654"   id=" " stroke="black"  stroke-width="0.5" /><circle cx="250.0" cy="250.0"  r="4.416820374540988" fill="none" stroke="red" id="  "  stroke-width="0.5" />
</svg>
